<?xml version="1.0" encoding="utf-8"?>
<!-- Generator: Adobe Illustrator 16.0.0, SVG Export Plug-In . SVG Version: 6.00 Build 0)  -->
<!DOCTYPE svg PUBLIC "-//W3C//DTD SVG 1.1//EN" "http://www.w3.org/Graphics/SVG/1.1/DTD/svg11.dtd">
<svg version="1.1" id="Layer_1" xmlns="http://www.w3.org/2000/svg" xmlns:xlink="http://www.w3.org/1999/xlink" x="0px" y="0px"
	 width="306px" height="279.5px" viewBox="0 0 306 279.5" enable-background="new 0 0 306 279.5" xml:space="preserve">
<g>
	<g>
		<defs>
			<rect id="SVGID_1_" x="35.162" y="19.104" width="235.527" height="235.145"/>
		</defs>
		<clipPath id="SVGID_2_">
			<use xlink:href="#SVGID_1_"  overflow="visible"/>
		</clipPath>
		<path clip-path="url(#SVGID_2_)" fill="#0A9146" d="M254.217,178.65c0,0-2.15-3.099-1.193-5.246
			c0.959-2.385,1.674-3.104,0.715-4.771c-0.95-1.673-1.43-2.388-2.862-3.105l-0.239-2.385c0,0,0.719-0.953,1.91,0.479
			s1.191,2.385,1.912,2.624c0.481,0.238,1.43-0.955,1.43-2.146c0-1.43-0.477-2.865-1.905-3.58c-1.437-0.96,0,0,0,0
			s-1.674-0.96-1.915-1.908c-0.234-1.192-0.474-3.102,0.956-2.387l2.388,2.387c0.719,0.948,1.67,1.193,1.67-0.481
			c0.245-1.906,0.715-2.861-0.715-4.057c0,0-2.15-1.905-2.865-2.385c0,0-0.955-2.146,0.236-2.146c1.2,0,1.911-0.238,2.392,0.717
			c0.237,0.715,0,1.672,0.718,1.672c0.949,0,1.671-0.723,1.671-1.672c0.233-0.955,0.711-1.435,0-2.384
			c-0.722-0.718-3.106-2.63-3.821-3.583c0,0-1.195-1.668-0.238-1.91c0.953-0.478,1.43-0.955,1.908,0.242
			c0.715,0.952,1.43,1.905,1.91,2.146c0.711,0.237,1.19-0.719,1.19-2.146c0,0,0.723-2.628,0-3.104
			c-0.948-0.48-3.816-1.909-4.056-2.627c-0.238-0.719,0-2.147,0.955-1.913c0.715,0.245,1.192,0.715,1.91,1.437
			c0.952,0.714,1.67,1.194,1.913,0.955c0.474-0.241,0.474-5.254-0.241-5.726c-0.481-0.242-3.1-1.195-3.58-1.916
			c-0.956-0.711-0.956-2.854-0.237-2.854c0.718,0,2.146,0.949,2.623,1.429c0.714,0.715,1.194,0.956,1.194,0.956
			s1.671-2.865,0.715-4.301c-1.195-1.43-3.813-2.385-4.295-2.862c-0.718-0.718-1.908-2.624-0.955-2.865
			c0.718,0,1.67,0.48,2.865,1.195c0.952,0.718,1.19,1.198,1.67,0.718c0.241-0.718,0.473-3.345,0-3.817
			c-0.48-0.48-2.388-1.194-3.58-1.913c-1.193-0.714-2.384-1.433-1.67-2.147c0.715-0.715,0.241-1.191,1.67-0.956
			c0,0,1.43,1.67,2.15,1.67c0.712-0.234,0.712-0.714,0.712-0.714s0-2.624-0.477-2.865c-0.477-0.477-3.342-2.144-4.294-2.144
			c-0.957,0-1.672-1.913-1.191-1.913c0.715-0.235,0.949-1.195,1.43-0.949c0.477,0,1.19,1.665,1.67,1.665
			c0.715,0,1.191-0.234,1.191-0.234l-0.232-3.346c0,0-1.677-0.948-2.869-0.948c-0.955-0.242-2.864-1.195-2.626-1.913
			c0.233-0.952,0.955-1.909,1.905-1.433l2.15,0.959c0,0,0.48-0.959,0-1.67c-0.715-0.96-0.948-2.865-2.62-3.106
			c-1.436-0.238-3.58-0.238-3.821-0.953c-0.236-0.715-0.958-2.147,0.241-2.385c1.43-0.238,1.906,1.195,2.38,0.952
			c0.721-0.237,0.956-0.237,0.956-0.237s0.479-3.58-1.43-4.533c-2.147-0.714-4.057,0.238-4.771-0.714
			c-0.479-0.959-1.197-1.671,0.235-1.913c1.674,0,3.106,0,3.106-0.474c0.237-0.48-0.956-3.345-2.147-3.579
			c-1.433-0.245-3.104-0.245-3.58-0.48c-0.479-0.241-2.389-1.67-1.197-2.15c1.197-0.477,1.432,0,2.146,0.245
			c0.48,0.47,1.198,0.234,1.198,0.234s-0.241-4.294-1.671-4.535c0,0-3.342,0.476-4.539-0.477c0,0-1.905-1.667-0.949-1.667
			c0.949-0.242,1.91-0.242,2.625,0c0.718,0.234,1.437-1.195,0.718-1.671c-0.718-0.714-1.195-1.912-2.15-2.385
			c-1.192-0.241-4.291,0.234-4.771,0c-0.722-0.48-0.242-2.15,0.951-1.674c1.437,0.48,2.385,0.241,2.385,0.241s0-2.865-3.1-2.627
			c0,0-4.298,0.48-3.579-0.952c0.48-1.195,1.191-0.718,2.385-0.956c0.957-0.238,1.436-2.624-1.905-3.579
			c0,0-3.346,0.476-4.059,0.237c0,0-0.954-0.717-0.481-0.952c0.481-0.48,3.11-0.959,3.11-0.959s-0.959-2.862-2.629-2.862h-4.533
			c0,0-1.197-1.188,1.433-1.909c0,0-1.671-1.429-1.671-2.862s1.671-0.473,2.62,0.242c1.198,0.711,1.43,1.906,1.909,1.191
			c0.481-0.714,0.481-2.624,1.67-2.624c0.957,0,0.722,3.817,0.722,4.532c0,0.714-0.24,0.956,0.481,1.429
			c0.711,0.721,1.902,1.191,1.902,0.477c0.237-0.477,0.237-2.621,0.952-2.866c0.955-0.234,1.673,0.722,1.194,2.866
			c-0.479,2.15-0.714,2.385,0.242,3.821c1.19,1.194,1.67,1.429,2.144,1.429c0.718-0.235,0.955-2.62,0.955-3.335
			c0,0,2.147,0.235,1.429,2.144c-0.714,2.15-1.666,3.58-0.714,4.771c0.955,1.198,1.194,2.15,1.674,2.15
			c0.714,0,2.381-2.385,2.624-3.58c0,0,1.667,0.715,0,3.814c0,0-1.191,0.959-0.474,2.392c0,0,1.187,2.385,1.901,2.385
			c0,0,1.437-1.433,2.151-3.58c0,0,2.15,0.715,0.949,3.1c0,0-1.664,1.433-1.191,3.345c0,0,1.671,2.862,1.671,3.335
			c0,0,0.722,1.195,1.909,0c0,0,0.479-3.814,1.671-3.335c1.191,0.235,0.955,2.14,0,3.335c-0.715,1.436-2.145,2.63-1.191,4.771
			c0,0,0.477,2.392,1.667,2.392c0,0,0.715,0.238,1.674-1.913c0,0,1.905-2.865,2.15-0.949c0,0,0.233,1.667-0.48,2.385
			c-0.479,0.477-2.151,1.909-2.151,2.862c0.243,0.953,0.481,1.909,0.481,2.385c0.24,0.48,0.715,2.865,0.951,2.865
			c0.481,0,1.199-0.48,2.147-2.147c0,0,0.956-1.913,1.671-1.195c0,0,1.194,1.91-0.479,3.58c0,0-1.661,0.714-1.906,1.913
			c0,0,0.478,4.294,0.955,5.006c0,0,1.192,0.48,2.152-0.477c0,0,0-1.667,0.473-1.667c0.718-0.242,3.817-1.433,0.956,2.858
			c0,0-2.63,1.673-2.151,3.58c0,0,0.723,2.385,0.953,2.865c0,0,1.198-0.235,2.153-1.429c0,0,1.426-2.385,2.144-1.191
			c0,0,1.196,1.67-1.429,3.334c0,0-1.67,1.198-1.909,1.67c0,0,0.473,3.58,0.473,4.298c0,0,0.48,0.238,1.437-0.477
			c0,0,0.711-1.67,2.15-1.909c0,0,2.858,0,0.233,2.624c0,0-2.383,2.627-3.098,2.865c0,0-0.241,0.714,0,1.433
			c0,0.477,0.235,2.624,0.235,3.099c0.237,0.48-0.235,0.715,1.19-0.238c1.198-0.952,1.439-1.667,2.631-2.385
			c1.19-0.477,2.14,1.67,0.715,2.865c-1.433,1.191,0,0,0,0s-3.347,1.909-3.821,3.338c-0.478,1.194-0.715,4.774,0,4.774
			c0.714,0,2.389-1.43,3.106-2.144c0.473-0.48,3.576,0.949,0.948,2.62c0,0-3.58,2.865-4.057,3.346
			c-0.715,0.47,0.245,3.335-0.234,4.053c0,0,1.429,0,3.099-0.953c0,0,4.061-0.715,0.715,1.906c0,0-2.623,1.433-3.813,1.674
			l-0.715,0.952c0,0-0.241,3.58-0.477,4.536c0,0.715,0.711,0.234,1.902-0.48c1.439-0.718,2.869-1.433,3.347-0.951
			c0.476,0.714,0.476,2.86-1.674,3.099c-1.903,0.48-3.34,1.433-3.818,1.913c-0.474,0.477-0.235,3.342-0.715,4.056
			c0,0,1.909,0,3.1-0.956c1.434-0.715,2.865-1.194,2.63-0.234c0,0,0.233,1.67-1.913,2.385c0,0-3.104,0.715-3.816,1.67
			c0,0-1.192,1.665-1.43,2.387v2.623c0,0,2.864-1.43,4.06-1.674c1.43-0.234,2.62,1.911-0.244,2.865
			c-2.862,0.959-4.536,0.959-5.006,1.911c-0.481,0.715,0,2.386-0.241,3.1c0,0.954,1.433-0.476,2.385-0.952
			c1.191-0.24,2.862,0.715,1.437,1.433c-1.199,0.953-2.151,1.907-3.58,2.385c-1.437,0.48-2.15,2.386-2.389,3.818
			c-0.48,1.668-0.718,3.103-0.956,3.583c-0.235,0.715-0.477,1.43-0.477,1.43L254.217,178.65z"/>
	</g>
	<g>
		<defs>
			<rect id="SVGID_3_" x="35.162" y="19.104" width="235.527" height="235.145"/>
		</defs>
		<clipPath id="SVGID_4_">
			<use xlink:href="#SVGID_3_"  overflow="visible"/>
		</clipPath>
		<path clip-path="url(#SVGID_4_)" fill="#0A9146" d="M52.577,178.65c0,0,2.15-3.099,1.198-5.246
			c-0.959-2.385-1.674-3.104-0.718-4.771c0.952-1.673,1.433-2.388,2.862-3.105l0.477-2.385c0,0-0.715-0.953-1.906,0.479
			c-1.195,1.433-1.433,2.385-1.913,2.624c-0.715,0.238-1.43-0.955-1.667-2.146c0-1.43,0.473-2.865,1.906-3.58c1.674-0.96,0,0,0,0
			s1.674-0.96,1.913-1.908c0.234-1.192,0.479-3.102-0.953-2.387c0,0-1.433,1.43-2.151,2.387c-0.955,0.948-2.147,1.193-2.147-0.481
			c0-1.906-0.715-2.861,0.714-4.057c0,0,2.385-1.905,3.342-2.385c0,0,0.714-2.146-0.477-2.146c-1.194,0-1.909-0.238-2.388,0.717
			c-0.239,0.715,0,1.672-0.953,1.672c-0.953,0-1.433-0.723-1.67-1.672c-0.238-0.955-0.714-1.435,0-2.384
			c0.718-0.718,3.338-2.63,4.298-3.583c0,0,1.191-1.668,0-1.91c-0.959-0.478-1.433-0.955-2.151,0.242
			c-0.714,0.952-1.429,1.905-1.909,2.146c-0.715,0.237-1.191-0.719-1.191-2.146c0,0-0.714-2.393,0.238-3.104
			c0.714-0.48,3.817-1.909,4.053-2.627c0.241-0.719,0-2.147-0.953-1.913c-0.952,0.245-1.433,0.715-2.147,1.437
			c-0.952,0.714-1.67,1.194-1.905,0.955c-0.48-0.241-0.242-5.254,0.234-5.726c0.48-0.242,3.103-1.195,4.057-1.916
			c0.714-0.711,0.714-2.854,0-2.854c-0.953,0-2.144,0.949-2.862,1.429c-0.477,0.715-1.195,0.956-1.195,0.956
			s-1.667-2.865-0.715-4.301c1.195-1.43,3.817-2.385,4.532-2.862c0.952-0.718,1.913-2.624,1.194-2.865
			c-0.955,0-2.147,0.48-3.342,1.195c-0.952,0.718-1.191,1.198-1.433,0.718c-0.473-0.718-0.714-3.345,0-3.817
			c0.48-0.48,2.147-1.194,3.58-1.913c1.194-0.714,2.627-1.433,1.913-2.147c-0.718-0.715-0.241-1.191-1.913-0.956
			c0,0-1.667,1.67-2.385,1.67c-0.714-0.234-0.714-0.714-0.714-0.714s0.238-2.624,0.477-2.865c0.476-0.477,3.817-2.144,4.535-2.144
			c0.952,0,1.906-1.913,1.191-1.913c-0.477-0.235-0.956-1.195-1.433-0.949c-0.477,0-1.191,1.665-1.91,1.665
			c-0.477,0-1.194-0.234-1.194-0.234l0.242-3.346c0,0,1.909-0.948,3.103-0.948c0.953-0.242,2.865-1.195,2.621-1.913
			c-0.234-0.952-0.953-1.909-1.906-1.433l-2.147,0.959c0,0-0.48-0.959,0.238-1.67c0.477-0.96,0.953-2.865,2.385-3.106
			c1.429-0.238,3.58-0.238,3.817-0.953c0.477-0.715,0.957-2.147-0.237-2.385c-1.194-0.238-1.671,1.195-2.385,0.952
			c-0.48-0.237-0.953-0.237-0.953-0.237s-0.48-3.58,1.667-4.533c1.909-0.714,3.817,0.238,4.536-0.714
			c0.714-0.959,1.194-1.671-0.238-1.913c-1.433,0-2.865,0-3.107-0.474c-0.237-0.48,0.96-3.345,2.151-3.579
			c1.433-0.245,3.099-0.245,3.58-0.48c0.715-0.241,2.385-1.67,1.195-2.15c-1.195-0.477-1.433,0-2.147,0.245
			c-0.48,0.47-1.195,0.234-1.195,0.234s0.241-4.294,1.667-4.535c0,0,3.583,0.476,4.539-0.477c0,0,1.907-1.667,0.953-1.667
			c-0.953-0.242-1.909-0.242-2.627,0c-0.714,0.234-1.433-1.195-0.714-1.671c0.714-0.714,1.194-1.912,2.388-2.385
			c0.952-0.241,4.053,0.234,4.532,0c0.714-0.48,0.238-2.15-0.956-1.674c-1.433,0.48-2.385,0.241-2.385,0.241s0.238-2.865,3.1-2.627
			c0,0,4.297,0.48,3.58-0.952c-0.477-1.195-1.192-0.718-2.147-0.956c-0.953-0.238-1.671-2.624,1.67-3.579
			c0,0,3.342,0.476,4.057,0.237c0,0,1.194-0.717,0.48-0.952c-0.48-0.48-3.106-0.959-3.106-0.959s0.959-2.862,2.627-2.862h4.536
			c0,0,1.194-1.188-1.433-1.909c0,0,1.667-1.429,1.667-2.862c0.241-1.433-1.667-0.473-2.621,0.242
			c-0.956,0.711-1.433,1.906-1.913,1.191c-0.477-0.714-0.477-2.624-1.433-2.624c-1.191,0-0.953,3.817-0.953,4.532
			c0.238,0.956,0.238,0.956-0.48,1.429c-0.473,0.721-1.667,1.191-1.905,0.477c-0.239-0.477-0.239-2.621-0.953-2.866
			c-0.956-0.234-1.673,0.722-1.194,2.866c0.477,2.15,0.715,2.385-0.238,3.821c-1.195,1.194-1.674,1.429-2.147,1.429
			c-0.479-0.235-0.956-2.62-0.956-3.335c0,0-2.147,0.235-1.429,2.144c0.714,2.15,1.667,3.58,0.714,4.771
			c-0.714,1.198-0.956,2.15-1.67,2.15c-0.718,0-2.151-2.385-2.624-3.58c0,0-1.67,0.715,0,3.814c0,0,1.191,0.959,0.473,2.392
			c0,0-1.19,2.385-1.905,2.385c0,0-1.433-1.433-2.15-3.58c0,0-2.147,0.715-0.952,3.1c0,0,1.67,1.433,1.191,3.345
			c0,0-1.67,2.862-1.67,3.335c0,0-0.714,1.195-1.667,0c0,0-0.718-3.814-1.913-3.335c-1.191,0.235-0.953,2.14,0,3.335
			c0.714,1.436,2.385,2.63,1.194,4.771c0,0-0.235,2.392-1.667,2.392c0,0-0.718,0.238-1.674-1.913c0,0-2.147-2.865-2.385-0.949
			c0,0,0,1.667,0.477,2.385c0.718,0.477,2.385,1.909,2.385,2.862c-0.234,0.953-0.477,1.909-0.477,2.385
			c0,0.48-0.718,2.865-0.953,2.865c-0.479,0-1.433-0.48-2.385-2.147c0,0-0.955-1.913-1.67-1.195c0,0-1.195,1.91,0.476,3.58
			c0,0,1.671,0.714,1.91,1.913c0,0-0.238,4.294-0.952,5.006c0,0-1.195,0.48-2.147-0.477c0,0,0-1.667-0.48-1.667
			c-0.714-0.242-3.58-1.433-0.953,2.858c0,0,2.624,1.673,2.147,3.58c0,0-0.715,2.385-0.957,2.865c0,0-1.191-0.235-2.146-1.429
			c0,0-1.429-2.385-2.144-1.191c0,0-0.96,1.67,1.429,3.334c0,0,1.67,1.198,1.909,1.67c0,0-0.48,3.58-0.238,4.298
			c0,0-0.718,0.238-1.67-0.477c0,0-0.715-1.67-2.147-1.909c0,0-2.866,0-0.242,2.624c0,0,2.389,2.627,3.342,2.865
			c0,0,0,0.714-0.237,1.433c0,0.477-0.238,2.624-0.238,3.099c0,0.48,0.238,0.715-1.191-0.238c-1.195-0.952-1.195-1.667-2.389-2.385
			c-1.191-0.477-2.385,1.67-0.952,2.865c1.429,1.191,0,0,0,0s3.342,1.909,3.814,3.338c0.48,1.194,0.718,4.774,0,4.774
			c-0.714,0-2.385-1.43-2.862-2.144c-0.476-0.48-3.817,0.949-1.191,2.62c0,0,3.58,2.865,4.053,3.346c0.718,0.47,0,3.335,0.48,4.053
			c0,0-1.667,0-3.1-0.953c0,0-4.298-0.715-0.959,1.906c0,0,2.627,1.433,3.821,1.674l0.714,0.952c0,0,0.238,3.58,0.477,4.536
			c0.238,0.715-0.714,0.234-1.905-0.48c-1.195-0.718-2.865-1.433-3.107-0.951c-0.473,0.714-0.473,2.86,1.433,3.099
			c1.913,0.48,3.342,1.433,3.817,1.913c0.48,0.477,0.242,3.342,0.714,4.056c0,0-1.905,0-3.099-0.956
			c-1.191-0.715-2.865-1.194-2.624-0.234c0,0-0.242,1.67,2.15,2.385c0,0,2.858,0.715,3.572,1.67c0,0,1.195,1.665,1.433,2.387
			c0.241,0.715,0,2.623,0,2.623s-2.862-1.43-4.053-1.674c-1.433-0.234-2.627,1.911,0.234,2.865c2.865,0.959,4.536,0.959,5.012,1.911
			c0.48,0.715,0,2.386,0.238,3.1c0.241,0.954-1.433-0.476-2.385-0.952c-1.195-0.24-2.624,0.715-1.433,1.433
			c1.195,0.953,2.385,1.907,3.58,2.385c1.433,0.48,2.147,2.386,2.624,3.818c0.48,1.668,0.714,3.103,0.956,3.583
			c0.239,0.715,0.477,1.43,0.477,1.43L52.577,178.65z"/>
	</g>
	<g>
		<defs>
			<rect id="SVGID_5_" x="35.162" y="19.104" width="235.527" height="235.145"/>
		</defs>
		<clipPath id="SVGID_6_">
			<use xlink:href="#SVGID_5_"  overflow="visible"/>
		</clipPath>
		<path clip-path="url(#SVGID_6_)" fill="none" stroke="#0A9146" stroke-width="3.3143" stroke-miterlimit="10" d="M153.045,220.178
			c47.485,0,86.139-40.567,86.139-90.438c0-49.642-38.653-90.205-86.139-90.205c-47.491,0-86.149,40.563-86.149,90.205
			C66.896,179.61,105.554,220.178,153.045,220.178z"/>
	</g>
	<g>
		<defs>
			<rect id="SVGID_7_" x="35.162" y="19.104" width="235.527" height="235.145"/>
		</defs>
		<clipPath id="SVGID_8_">
			<use xlink:href="#SVGID_7_"  overflow="visible"/>
		</clipPath>
		<path clip-path="url(#SVGID_8_)" fill="#AE9962" d="M197.191,174.121c1.429-0.241,0.949-0.479,1.429-0.721
			c0,0.242,0.238,0.479,0.48,0.479c0.234,0,0.234-0.714,0.711-0.714h0.479c0.235,0,0.235,0,0.235,0.234v-0.477
			c0.715-0.238,0.715-0.718,1.437-0.718v0.244c0.479,0,0.237-0.244,0.237-0.48c0.476-0.479,0.241-0.956,0.715-0.956v0.478
			c0.476,0,0.238-1.906,1.19-1.426c-0.715-1.436-0.234-1.436,0-1.195c0.246,0,0.246,0.234,0.246,0.234
			c0.711-0.477,1.426-0.952,1.426-1.905c0-0.241-0.236-0.479-0.236-0.719c0.48,0,0.95-0.476,0.95-0.951
			c0.241,0.951,0.722,1.67,0.96,2.384c0.473,1.433,0.473,1.671,0.473,2.625v0.952c0.241,0,0.241,0.714,0.241,0.959
			c0,0.234-0.714,1.191-0.714,1.191c-0.238,0-0.481,0-0.481-0.242v-0.714c-0.479-0.234-0.237,0-0.237,0.48
			c0,0.478,0.237,1.191,0.237,1.191c0,0.715-0.715,1.194-0.948,1.43c-0.48,0.721,0.233,1.193-0.48,2.629
			c-0.722,0.948-0.955,2.147-1.437,3.335c-0.715,1.436-1.664,3.582-2.144,5.016c-0.24,0.714-1.67,3.579-1.913,4.532
			c-0.479,0.479-0.948,0.479-1.666,0.479c-0.715,0-1.671,1.192-2.147,0.715c-0.243-0.477-1.195-0.715-1.195-0.955
			c-0.479-0.239-0.715-1.192-0.715-1.672v-1.187v-0.718c0,0-0.237-0.481-0.237-0.715c-0.24-0.48,0-0.959,0-1.433
			c0-0.481,0.237-0.481,0.237-0.956c0.235-0.242,0.235-0.477,0.235-0.718c0.238-0.239,0.479-0.239,0.479-0.239
			c0.239-0.234,0.239-0.472,0.48-0.714c0.234-0.712,0.948-1.19,1.191-2.15c-0.241-0.949,0.238-0.235-0.241-1.191l-0.234-1.194
			v-2.144l0.956-1.671V174.121z"/>
	</g>
	<g>
		<defs>
			<rect id="SVGID_9_" x="35.162" y="19.104" width="235.527" height="235.145"/>
		</defs>
		<clipPath id="SVGID_10_">
			<use xlink:href="#SVGID_9_"  overflow="visible"/>
		</clipPath>
		<path clip-path="url(#SVGID_10_)" fill="#AE9962" d="M195.755,164.335l0.236,0.239c0,0.241,0.243,0.956,0.243,0.956h-0.243
			c-0.236-0.241-0.472-0.477-0.472-0.715C195.521,164.574,195.755,164.335,195.755,164.335"/>
	</g>
	<g>
		<defs>
			<rect id="SVGID_11_" x="35.162" y="19.104" width="235.527" height="235.145"/>
		</defs>
		<clipPath id="SVGID_12_">
			<use xlink:href="#SVGID_11_"  overflow="visible"/>
		</clipPath>
		<path clip-path="url(#SVGID_12_)" fill="#AE9962" d="M197.665,166.007l0.237-0.239c0,0.239,0.238,0.478,0,0.478
			C197.665,166.245,197.665,166.007,197.665,166.007"/>
	</g>
	<g>
		<defs>
			<rect id="SVGID_13_" x="35.162" y="19.104" width="235.527" height="235.145"/>
		</defs>
		<clipPath id="SVGID_14_">
			<use xlink:href="#SVGID_13_"  overflow="visible"/>
		</clipPath>
		<path clip-path="url(#SVGID_14_)" fill="#AE9962" d="M204.586,168.153v0.238h-0.234
			C204.352,168.153,204.586,168.153,204.586,168.153"/>
	</g>
	<g>
		<defs>
			<rect id="SVGID_15_" x="35.162" y="19.104" width="235.527" height="235.145"/>
		</defs>
		<clipPath id="SVGID_16_">
			<use xlink:href="#SVGID_15_"  overflow="visible"/>
		</clipPath>
		<path clip-path="url(#SVGID_16_)" fill="#AE9962" d="M199.098,167.438V167.2C199.332,167.2,199.332,167.438,199.098,167.438"/>
	</g>
	<g>
		<defs>
			<rect id="SVGID_17_" x="35.162" y="19.104" width="235.527" height="235.145"/>
		</defs>
		<clipPath id="SVGID_18_">
			<use xlink:href="#SVGID_17_"  overflow="visible"/>
		</clipPath>
		<path clip-path="url(#SVGID_18_)" fill="#AE9962" d="M201.721,160.279c-0.479,0-0.237,0.235-0.237,0.235
			C201.482,160.279,202.2,160.759,201.721,160.279"/>
	</g>
	<g>
		<defs>
			<rect id="SVGID_19_" x="35.162" y="19.104" width="235.527" height="235.145"/>
		</defs>
		<clipPath id="SVGID_20_">
			<use xlink:href="#SVGID_19_"  overflow="visible"/>
		</clipPath>
		<path clip-path="url(#SVGID_20_)" fill="#AE9962" d="M197.191,174.121c1.429-0.241,0.949-0.479,1.429-0.721
			c0,0.242,0.238,0.479,0.48,0.479c0.234,0,0.234-0.714,0.711-0.714h0.479c0.235,0,0.235,0,0.235,0.234v-0.477
			c0.715-0.238,0.715-0.718,1.437-0.718v0.244c0.479,0,0.237-0.244,0.237-0.48c0.476-0.479,0.241-0.956,0.715-0.956v0.478
			c0.476,0,0.238-1.906,1.19-1.426c-0.715-1.436-0.234-1.436,0-1.195c0.246,0,0.246,0.234,0.246,0.234
			c0.711-0.477,1.426-0.952,1.426-1.905c0-0.241-0.236-0.479-0.236-0.719c0.48,0,0.95-0.476,0.95-0.951
			c0.241,0.951,0.722,1.67,0.96,2.384c0.473,1.433,0.473,1.671,0.473,2.625v0.952c0.241,0,0.241,0.714,0.241,0.959
			c0,0.234-0.714,1.191-0.714,1.191c-0.238,0-0.481,0-0.481-0.242v-0.714c-0.479-0.234-0.237,0-0.237,0.48
			c0,0.478,0.237,1.191,0.237,1.191c0,0.715-0.715,1.194-0.948,1.43c-0.48,0.721,0.233,1.193-0.48,2.629
			c-0.722,0.948-0.955,2.147-1.437,3.335c-0.715,1.436-1.664,3.582-2.144,5.016c-0.24,0.714-1.67,3.579-1.913,4.532
			c-0.479,0.479-0.948,0.479-1.666,0.479c-0.715,0-1.671,1.192-2.147,0.715c-0.243-0.477-1.195-0.715-1.195-0.955
			c-0.479-0.239-0.715-1.192-0.715-1.672v-1.187v-0.718c0,0-0.237-0.481-0.237-0.715c-0.24-0.48,0-0.959,0-1.433
			c0-0.481,0.237-0.481,0.237-0.956c0.235-0.242,0.235-0.477,0.235-0.718c0.238-0.239,0.479-0.239,0.479-0.239
			c0.239-0.234,0.239-0.472,0.48-0.714c0.234-0.712,0.948-1.19,1.191-2.15c-0.241-0.949,0.238-0.235-0.241-1.191l-0.234-1.194
			v-2.144l0.956-1.671V174.121z"/>
	</g>
	<g>
		<defs>
			<rect id="SVGID_21_" x="35.162" y="19.104" width="235.527" height="235.145"/>
		</defs>
		<clipPath id="SVGID_22_">
			<use xlink:href="#SVGID_21_"  overflow="visible"/>
		</clipPath>
		<path clip-path="url(#SVGID_22_)" fill="#AE9962" d="M195.755,164.335l0.236,0.239c0,0.241,0.243,0.956,0.243,0.956h-0.243
			c-0.236-0.241-0.472-0.477-0.472-0.715C195.521,164.574,195.755,164.335,195.755,164.335"/>
	</g>
	<g>
		<defs>
			<rect id="SVGID_23_" x="35.162" y="19.104" width="235.527" height="235.145"/>
		</defs>
		<clipPath id="SVGID_24_">
			<use xlink:href="#SVGID_23_"  overflow="visible"/>
		</clipPath>
		<path clip-path="url(#SVGID_24_)" fill="#AE9962" d="M197.665,166.007l0.237-0.239c0,0.239,0.238,0.478,0,0.478
			C197.665,166.245,197.665,166.007,197.665,166.007"/>
	</g>
	<g>
		<defs>
			<rect id="SVGID_25_" x="35.162" y="19.104" width="235.527" height="235.145"/>
		</defs>
		<clipPath id="SVGID_26_">
			<use xlink:href="#SVGID_25_"  overflow="visible"/>
		</clipPath>
		<path clip-path="url(#SVGID_26_)" fill="#AE9962" d="M204.586,168.153v0.238h-0.234
			C204.352,168.153,204.586,168.153,204.586,168.153"/>
	</g>
	<g>
		<defs>
			<rect id="SVGID_27_" x="35.162" y="19.104" width="235.527" height="235.145"/>
		</defs>
		<clipPath id="SVGID_28_">
			<use xlink:href="#SVGID_27_"  overflow="visible"/>
		</clipPath>
		<path clip-path="url(#SVGID_28_)" fill="#AE9962" d="M199.098,167.438V167.2C199.332,167.2,199.332,167.438,199.098,167.438"/>
	</g>
	<g>
		<defs>
			<rect id="SVGID_29_" x="35.162" y="19.104" width="235.527" height="235.145"/>
		</defs>
		<clipPath id="SVGID_30_">
			<use xlink:href="#SVGID_29_"  overflow="visible"/>
		</clipPath>
		<path clip-path="url(#SVGID_30_)" fill="#AE9962" d="M201.721,160.279c-0.479,0-0.237,0.235-0.237,0.235
			C201.482,160.279,202.2,160.759,201.721,160.279"/>
	</g>
	<g>
		<defs>
			<rect id="SVGID_31_" x="35.162" y="19.104" width="235.527" height="235.145"/>
		</defs>
		<clipPath id="SVGID_32_">
			<use xlink:href="#SVGID_31_"  overflow="visible"/>
		</clipPath>
		<path clip-path="url(#SVGID_32_)" fill="#AE9962" d="M201.963,160.994h0.237v0.234
			C201.963,161.229,201.963,161.229,201.963,160.994"/>
	</g>
	<g>
		<defs>
			<rect id="SVGID_33_" x="35.162" y="19.104" width="235.527" height="235.145"/>
		</defs>
		<clipPath id="SVGID_34_">
			<use xlink:href="#SVGID_33_"  overflow="visible"/>
		</clipPath>
		<path clip-path="url(#SVGID_34_)" fill="#AE9962" d="M203.391,160.279L203.391,160.279h0.242c0,0,0,0.235-0.242,0.235V160.279z"/>
	</g>
	<g>
		<defs>
			<rect id="SVGID_35_" x="35.162" y="19.104" width="235.527" height="235.145"/>
		</defs>
		<clipPath id="SVGID_36_">
			<use xlink:href="#SVGID_35_"  overflow="visible"/>
		</clipPath>
		<path clip-path="url(#SVGID_36_)" fill="#AE9962" d="M172.369,75.805c0.479-0.234,0.718-0.234,0.952-0.234
			c0.48,0,0.48-0.246,0.48-0.246c0.479,0,0.479,0.246,0.956,0.246H175c0.237,0.469,0.472,0.469,0.948,0.469
			c0,0.721,0.237,0.96,0.237,1.436c0,0.238,0.481,0.238,0.481,0.48c0,0.473-0.239,0.473-0.239,0.953
			c0,0.477,0.239,0.241,0.239,0.477c0.236,0.48,0.472,0.956,0.718,1.429c0,0.241,0.233,0.241,0.233,0.241
			c0.481,0.482,0.237,0.482,0.952,0.949c0,0.486,0.245,1.198,0.48,1.436c0,0,0.477,1.429,0.955,1.429l2.628,4.297
			c0.234,0.238,0.234,0.238,0.474,0.48c-0.238,0-0.238,0.238-0.238,0.238c0,0.952,0.956,1.433,0.956,2.147h0.474
			c0.48,0.715,0.956,1.191,1.436,2.15c0,0.234,0.479,0.234,0.479,0.714c0,0.235-0.244,0.235-0.244,0.235
			c0.244,0.48,0.244,0.959,0.479,1.436c0,0.234,0.241,0.714,0.241,0.714c0.477,0.959,0.238,1.67,0.715,2.385
			c0,0.234,0.474,0.234,0.474,0.234c0.479,0.244,0.722,0.959,1.436,0.718c0.234,0.955,0.956,1.67,1.191,2.861
			c0.245,0.959,0.955,3.106,1.674,2.385c0.474,0.245,0.474,0.48,0.715,0.959l0.71,0.241c0,0.234,0.481,0,0.715,0.234
			c0.48,0.48,0.723,0.956,0.96,1.433c0.715,0.477,1.432,0.477,1.432,1.433c0,0.234,0.239,0.234,0.474,0.234
			c0.245,0,0.48,0.715,0.959,0.715c0,0.48,0.478,0.245,0.715,0.959c0.242,0.953-1.193,0.715-1.193,1.433h0.955
			c0,0.238,0.238,0.238,0.48,0.238c0.711,0.714,0.711,1.909,1.901,1.909c1.199,0,1.433-1.195,2.631-1.195
			c0.238,0,0.476,0.48,0.715,0.48c0.715,0,1.19-0.953,1.19-0.953c0.715-0.48,0.715,0,1.913-0.241c0,0,0.231-0.48,0.477-0.48
			c0.477,0,0.714,0.241,1.191,0c0.244,0,0.48,0,0.714-0.477c0.245,0,0.481,0.238,0.719,0c0.241,0,0.711-0.238,0.952-0.473
			c0.238-0.242,0-0.722,0.48-0.722c0.237,0,0.479,0.48,0.714,0.48v0.715c-0.234,0.477,0.234,2.15,0,2.15
			c-0.477,0-0.234,1.906-0.234,2.144c-0.721,1.432-1.2,2.389-1.912,4.06c-0.237,0.714-0.952,1.429-0.952,2.147
			c0,1.191-1.436,3.817-2.147,5.008c-0.718,0.959-2.389,2.868-3.579,3.579c-1.671,1.195-4.061,3.346-4.302,3.814
			c-1.188,1.916-2.141,2.392-2.62,3.824c-0.481,0.953-1.196,1.191-1.909,2.145c-0.242,0.241-0.723,0-0.956,0.241
			c-0.234,0.477-0.234,1.433-0.481,1.67c-0.476,1.668-2.144,3.101-2.144,5.247c0,1.194,1.192,1.194,1.192,1.67
			c0,0.48-0.474,1.194-0.474,1.436l0.474,0.474c-0.237,0.246-0.237,0.722-0.474,0.722c0,0.47,0.234,1.192,0.474,1.429
			c0,0.235,0,1.906,0.241,2.151c0.477,0.47,1.671,0.233,1.425,0.948c-0.469,1.906-0.233,4.298-0.233,4.298v1.429
			c0,0.241-0.481,0.956,0,1.674c0.48,0.235,0.233,0.235,0.233,0.715c0,0,0.246,0.238,0,0.238c-0.715,0.715-0.715,1.668-0.948,1.909
			c-0.477,0.956-1.191,1.67-2.15,2.144c-0.47,0.48-1.43,0.718-2.151,0.966c-1.19,0.233-2.62,1.661-3.335,2.855
			c-0.234,0.241-0.955,0.477-1.194,0.722c-0.241,0-0.241,0.948-0.476,0.948c-0.477-0.237-0.715,0.478-1.195,0.478
			c-0.234,0.714,0,0.714-0.234,0.959c-0.245,0.234,0.473,0.949,0.473,1.188c0,0,0.242,1.197,0.242,1.433v0.956
			c0.238,0,0.238,0,0.476-0.241c0,0.956-0.237,0.715-0.237,0.956c0,0.238,0.237,0.715,0.237,0.715
			c-0.237,0.237-0.956,1.674-0.476,1.674c0,0,0.476,0.477-0.48,1.191c-0.48,0.956-2.385,1.193-3.342,1.429
			c-0.477,0.241-1.191,0.718-1.191,1.438c0,0.232,0,0.232,0.234,0.474c0,1.191-0.715,2.147-0.952,2.865
			c-0.233,0.715-0.479,1.191-0.715,1.667l-1.194,0.956c-0.952,1.667-1.909,2.861-3.104,4.057c-0.473,0.718-1.19,0.956-1.67,1.429
			c-0.48,0.719-0.948,1.197-1.43,1.433c-1.19,0.715-1.908,1.674-3.341,1.674c-0.715,0-0.959,0.478-1.195,0.478
			c-0.234,0-0.715-0.243-0.715-0.243c-0.237,0-0.479,0.48-0.715,0.48c-0.476,0-0.956-0.48-1.669-0.48
			c-0.235,0-0.481,0.243-0.956,0.243c-0.481,0-0.715-0.243-0.952-0.243c-0.718,0-0.718,0.722-1.436,0.722h-0.235
			c0,0-0.238,0.238-0.479,0.238c-0.235,0-0.235-0.238-0.478-0.238h-0.481c-0.469,0-0.711,0.949-1.19,0.949
			c-0.477,0-0.952-0.711-0.952-0.949c-0.477,0-0.956,0-0.956-0.479c-0.233,0-0.233,0-0.233-0.243
			c-0.246,0.243-0.246,0.243-0.246,0.48c-0.235,0-0.473-0.237-0.473-0.48c0.238,0,0.473-0.234,0.473-0.479
			c0-0.715-0.711-0.715-0.711-1.43c-0.237,0-0.237,0-0.237-0.235c0-0.241,0.713-0.241,0.713-0.241c0.235,0,0-0.955,0-1.194
			c0-0.473-0.237-0.949-0.476-1.429c-0.719-0.957-1.194-1.433-1.429-2.865c-0.241-0.477-0.48-0.953-0.48-1.433
			c-0.953-0.952-2.151-1.906-2.865-3.335c0-0.482-0.238-0.956-0.238-1.2c0-0.235-0.241-0.235-0.241-0.474v-0.956
			c-0.474-0.237,0-1.191-0.238-1.906c-0.234-0.479-0.477-0.955-0.477-1.67v-0.48v-1.67c0-0.479-0.718-1.194-0.477-1.43
			c-0.952-0.479-2.862-5.249-2.862-5.249c-0.238-0.235-1.67-1.913-1.912-2.628v-2.624c0,0.239,0,0.239,0.241,0.239
			c0-0.239-0.241-1.191-0.241-1.43c0-0.48,0.718-0.721,0.718-2.389c0.238-0.479,0.715-1.912,0.477-2.146
			c0-0.48,0.953-1.437,1.432-1.909c0.239-0.241,0.953-0.956,0.953-2.147c0.241-1.194,0.479-1.194-0.714-2.865
			c-0.239-0.48-0.477-1.43-0.477-1.909h-0.241c0.241-0.24,0.479-0.477,0.479-0.955c0-0.715-0.237-0.95-0.479-1.672
			c0-0.473-0.235-0.715-0.235-1.429c-0.238-0.234-0.479-0.234-0.479-0.479c-0.477-0.235-0.477-0.952-0.715-1.43
			c0-0.241-0.238-0.478-0.238-0.718c0-0.237-0.718-1.433-0.718-2.385c-0.234,0-0.714-0.718-0.953-0.718
			c-0.477-0.715-1.194-1.191-1.433-1.906c-0.477,0-1.429-1.194-1.429-1.674c-0.238,0-0.48,0-0.48-0.238c0,0-0.476-0.952-0.476-1.194
			c-0.477,0-0.715-1.665-0.715-1.665c0.238,0.238,0.238,0,0.477,0c0-0.24,0.238-0.24,0.238-0.48c0.238-0.24,0.238-0.955,0.238-1.19
			h0.718c-0.238,0-0.956-0.242-0.956-0.722l0.238-0.234c0.238,0,0.238,0.234,0.238,0.234c0.242,0,0.242-0.949,0.242-1.194h-0.48
			c0.717-0.473,0.952-2.386,0.952-2.386c-0.234-0.234,0.242-1.191,0.242-1.426c-0.477,0-0.477-1.673-0.477-1.908h-0.48
			c0,0.234,0,0.469-0.237,0.469l-0.238-0.469c-0.714,0-0.477-0.96-0.956-0.96c0,0-0.474-0.231-0.474-0.476h-0.241
			c0,0.721-0.718,0.721-1.191,0.721l-0.952-0.245c-0.242,0-0.242,0.245-0.48,0.245h-1.432v0.234c-0.48,0-1.194-0.955-1.194-1.436
			l-0.238-0.478c0.238,0,0.238-0.237,0.48-0.237c-0.715-0.234-0.715-0.234-0.715-0.711c-0.244-0.238-0.48-0.238-0.48-0.48
			c-0.953-1.429-4.056-0.956-4.056-0.956h-0.959c-0.234,0.478-0.952,0.478-1.433,0.478c-0.711,0-0.711,0.721-1.191,0.721h-0.477
			c-0.953,0.238-1.433,0.715-2.385,0.949c-0.48,0-0.718,0-1.194,0.237c-0.477,0.242-0.718,0.478-1.191,0.718
			c-2.865-1.666-7.397-0.955-10.262,0.483c-0.953-0.244-1.906-0.959-2.621-1.439c-0.48-0.478-0.718-0.711-1.198-1.191
			c-0.234-0.237-1.194-1.673-1.667-1.194c-0.245-0.235-0.48-0.48-0.718-0.953c-0.242,0-0.242-0.476-0.48-0.718
			c0,0-0.477,0-0.477-0.237c-0.477-0.238-0.715-0.477-1.191-0.718c-0.238,0-0.238-0.473-0.48-0.473c0-0.48-0.477-0.956-0.477-1.195
			c-0.238,0-0.477-0.477-0.477-0.717v-0.715c0-0.477-0.237-0.718-0.237-1.191c-0.714,0-0.48-0.48-0.714-0.959
			c0-0.234-0.242-0.234-0.242-0.473h-0.477c-0.241,0-0.714-1.195-0.714-1.432c-0.242-0.953-0.242,0-0.242,0
			c-0.477,0.237-0.477-0.474-0.477-0.474c-0.238-0.721-0.953-0.479-0.953-0.479c0-0.241,0.238-0.241,0.238-0.718v-0.238
			c-0.48,0-1.194-0.234-1.194-0.718v-0.238c0-0.235-0.715-0.715-0.715-0.715c0-0.238,0.238-0.714,0.238-1.191
			c0,0-0.238,0-0.238-0.245l0.238-0.234v-0.477c0-0.238,0.237-0.477,0.237-0.952c0-0.715-0.476-1.671-1.194-1.437
			c-0.238,0,0.718-0.48,0.718-0.715c1.909-1.909,0.476-1.429,1.67-3.579c0.238-0.232,0.238-0.477,0.477-0.711
			c0.476-0.48,0.476-1.674,0.715-2.154V97.99c-0.239,0-0.239-0.242-0.239-0.48c0-0.235-0.238-0.235-0.238-0.477
			c0-0.238,0.238-0.949,0.477-0.949c0-0.481,0.238-0.481,0.238-0.96c0-0.234-0.238-0.949-0.477-0.949v0.235
			c-0.238,0,0-0.952-0.476-0.952c-0.238,0-0.238,0.238-0.477,0.473v-0.473c0-0.48,0.714-1.913,0.953-2.147
			c0.238-0.241,0.718-0.48,0.718-0.718c0.238-0.715,0.715-1.195,0.953-1.67c0.237-0.238,0.237-0.477,0.237-0.714l0.956-0.715
			c0.477-0.245,1.191-0.711,1.433-1.194c0.238-0.718,0.238-1.191,0.473-1.91c0.241-0.238,0.241-0.718,0.48-0.718
			c0.238-0.477,0.718-0.477,1.191-0.715c0.48,0,0.48-0.473,0.715-0.473c0.718-0.721,0.718-2.15,1.913-2.15l1.67-0.242
			c0.715-0.714,1.433-1.19,2.147-1.67c0.718-0.474,1.671-1.429,1.913-2.389c0,0-0.241-0.234-0.241-0.47c0-0.245,0-0.245,0.241-0.245
			v-0.953c0.474-0.953,0.953-1.194,1.192-1.905c0.714-0.474,1.194-1.674,1.909-1.913c0.952-0.235,1.67-0.235,2.385-0.715
			c0.48-0.238,1.194-1.195,1.194-1.67l0.238-0.241c0.238-0.238,0.714-1.665,0.714-1.665h0.956c0,0.235,0.234,0.953,0.477,0.953
			c0,0.238,0.477,0.711,0.952,0.711c0.238,0,0.48-0.238,0.48-0.238l0.953,0.238c0.48,0,0.48-0.238,0.718-0.238
			c0,0.238,0,0.48,0.235,0.48c1.912,0.241,2.627-0.715,2.627-0.715c0.477-0.238,0.717-0.238,0.956-0.238
			c0.235,0,0.235-0.241,0.235-0.241c0.718,0.48,0.959-0.477,0.959-0.477c0.714-0.234,0.953-0.477,1.906-0.477
			c0.242,0,1.433-0.48,1.67-0.238c0.715,0.48,0.959-0.476,1.195-0.476c0,0,0.48,0.234,0.718,0.234l0.715-0.234
			c0.48,0.234,0.718,0.234,0.952,0.234c0.959,0,0.718,0.48,0.718,0.48c0.715,0,0.956-0.48,1.433-0.48
			c0.476,0,0.476-0.234,0.715-0.234c0.479,0,0.238,0.234,0.952,0.234c0.48,0,0.241,0,0.241-0.234
			c0.953,0.234,0.953,0.714,1.433,0.476c0.238-0.241,0.238-0.241,0.714-0.241c0.477,0,0.718-0.474,1.429-0.474
			c0.956,0,0.956,0.474,1.433,0.953c0.477-0.238,0.477-0.48,0.956-0.714v0.476c0,0.48-0.956,0.953-0.956,1.433
			c0,0.711,0.241,0.953,0.715,0.953c0,0.241,0.241,0.721,0.241,0.721c0,1.429-2.389,1.429-1.909,2.379
			c0.714,1.198,1.429,0.48,1.667,0.48c0,0.956,1.913,1.905,2.627,1.905c0.48,0,0.48-0.234,0.952-0.234l0.242,0.234
			c0.476,0.242,0.71,0,0.952,0.242c0.478,0,0.953,0.477,1.91,0.477c0,1.913,1.194,1.913,2.388,2.388
			c0.952,0.238,1.43,0.238,1.91,0.477c0.949,0.477,0.949,1.192,2.147,1.192c0.714,0,0.953-0.474,1.433-1.192
			c0.479-0.718-0.479-0.952-0.479-1.667c0-0.245,0.718-0.956,0.718-1.198c0.711-0.718,2.146-0.953,3.579-0.953
			s0.711,0.953,1.667,1.429c0.959,0.477,2.865,0,2.865,0.956c0,0.234,0.238,0.234,0.48,0.234c0.233,0,0.47-0.47,0.948-0.47
			c0.242,0,1.671,0.234,1.913,0.47c1.671,0.959,2.623,0.245,3.104,0.959C171.416,76.761,171.893,76.284,172.369,75.805"/>
	</g>
	<g>
		<defs>
			<rect id="SVGID_37_" x="35.162" y="19.104" width="235.527" height="235.145"/>
		</defs>
		<clipPath id="SVGID_38_">
			<use xlink:href="#SVGID_37_"  overflow="visible"/>
		</clipPath>
		<path clip-path="url(#SVGID_38_)" fill="#AE9962" d="M195.755,165.768c0.48,0,0.715-0.236,0.715-0.714
			c0-0.479-0.234-0.719-0.715-0.719c-0.234,0-0.714,0.239-0.714,0.719C195.041,165.53,195.521,165.768,195.755,165.768"/>
	</g>
	<g>
		<defs>
			<rect id="SVGID_39_" x="35.162" y="19.104" width="235.527" height="235.145"/>
		</defs>
		<clipPath id="SVGID_40_">
			<use xlink:href="#SVGID_39_"  overflow="visible"/>
		</clipPath>
		<polygon clip-path="url(#SVGID_40_)" fill="#AE9962" points="195.518,165.53 195.518,165.05 195.279,164.815 195.752,164.815 
			195.752,164.574 195.994,164.815 196.232,164.815 195.994,165.05 196.232,165.53 195.752,165.289 		"/>
	</g>
	<g>
		<defs>
			<rect id="SVGID_41_" x="35.162" y="19.104" width="235.527" height="235.145"/>
		</defs>
		<clipPath id="SVGID_42_">
			<use xlink:href="#SVGID_41_"  overflow="visible"/>
		</clipPath>
		<path clip-path="url(#SVGID_42_)" fill="#AE9962" d="M57.113,185.096c0,0-19.565-21.233-21.951-24.813
			c0,0,3.817,19.562,8.354,27.915c-0.48,0.481,15.029,29.829,29.11,39.853c1.433,1.191,2.385,2.621,3.817,3.817
			c9.545,7.874,20.046,14.796,31.975,19.087v-33.402c-0.477,0,0-0.24-0.477-0.481c-2.385-0.477-5.013-2.382-7.636-3.813
			c-3.1-1.668-5.727-3.819-7.636-5.728c0,0-5.012-4.058-10.501-10.021c-3.103-3.579-6.679-8.114-9.306-12.412
			c0,0-7.636-14.551-9.306-18.133L57.113,185.096z"/>
	</g>
	<g>
		<defs>
			<rect id="SVGID_43_" x="35.162" y="19.104" width="235.527" height="235.145"/>
		</defs>
		<clipPath id="SVGID_44_">
			<use xlink:href="#SVGID_43_"  overflow="visible"/>
		</clipPath>
		<path clip-path="url(#SVGID_44_)" fill="#AE9962" d="M248.967,185.096c0,0,19.331-21.233,21.723-24.813
			c0,0-3.821,19.562-8.356,27.915c0.477,0.481-14.796,29.829-28.875,39.853c-1.433,1.191-2.383,2.621-3.819,3.817
			c-9.543,7.874-20.044,14.796-31.977,19.087v-33.402c0.48,0,0-0.24,0.48-0.481c2.388-0.477,5.016-2.382,7.636-3.813
			c3.106-1.668,5.727-3.819,7.636-5.728c0,0,5.012-4.058,10.501-10.021c3.103-3.579,6.683-8.114,9.306-12.412
			c0,0,7.637-14.551,9.307-18.133L248.967,185.096z"/>
	</g>
	<g>
		<defs>
			<rect id="SVGID_45_" x="35.162" y="19.104" width="235.527" height="235.145"/>
		</defs>
		<clipPath id="SVGID_46_">
			<use xlink:href="#SVGID_45_"  overflow="visible"/>
		</clipPath>
		<path clip-path="url(#SVGID_46_)" fill="none" stroke="#AE9962" stroke-width="1.6571" stroke-miterlimit="10" d="
			M152.804,230.198c52.496,0,95.214-44.861,95.214-99.747c0-54.881-42.718-99.747-95.214-99.747
			c-52.259,0-94.973,44.865-94.973,99.747C57.831,185.337,100.544,230.198,152.804,230.198z"/>
	</g>
	<g>
		<defs>
			<rect id="SVGID_47_" x="35.162" y="19.104" width="235.527" height="235.145"/>
		</defs>
		<clipPath id="SVGID_48_">
			<use xlink:href="#SVGID_47_"  overflow="visible"/>
		</clipPath>
		<path clip-path="url(#SVGID_48_)" fill="none" stroke="#E21F26" stroke-width="1.6571" stroke-linecap="round" d="M62.269,170.586
			c9.232,21.89,25.755,39.704,46.3,49.987c12.328,6.166,26.098,9.621,40.61,9.621"/>
	</g>
	<g>
		<defs>
			<rect id="SVGID_49_" x="35.162" y="19.104" width="235.527" height="235.145"/>
		</defs>
		<clipPath id="SVGID_50_">
			<use xlink:href="#SVGID_49_"  overflow="visible"/>
		</clipPath>
		<path clip-path="url(#SVGID_50_)" fill="none" stroke="#E21F26" stroke-width="1.6571" stroke-linecap="round" d="
			M242.644,170.586c-9.236,21.89-25.76,39.708-46.308,49.987c-12.323,6.166-26.094,9.621-40.607,9.621"/>
	</g>
	<g>
		<defs>
			<rect id="SVGID_51_" x="35.162" y="19.104" width="235.527" height="235.145"/>
		</defs>
		<clipPath id="SVGID_52_">
			<use xlink:href="#SVGID_51_"  overflow="visible"/>
		</clipPath>
		<rect x="108.898" y="220.412" clip-path="url(#SVGID_52_)" fill="#AE9962" width="88.293" height="27.205"/>
	</g>
	<g>
		<defs>
			<rect id="SVGID_53_" x="35.162" y="19.104" width="235.527" height="235.145"/>
		</defs>
		<clipPath id="SVGID_54_">
			<use xlink:href="#SVGID_53_"  overflow="visible"/>
		</clipPath>
		
			<rect x="108.896" y="220.412" clip-path="url(#SVGID_54_)" fill="none" stroke="#E21F26" stroke-width="1.6571" width="88.289" height="27.205"/>
	</g>
	<g>
		<defs>
			<rect id="SVGID_55_" x="35.162" y="19.104" width="235.527" height="235.145"/>
		</defs>
		<clipPath id="SVGID_56_">
			<use xlink:href="#SVGID_55_"  overflow="visible"/>
		</clipPath>
		<path clip-path="url(#SVGID_56_)" fill="none" stroke="#E21F26" stroke-width="1.6571" d="M123.213,227.095
			c4.053,0,7.159,3.341,7.159,7.639c0,4.055-3.106,7.395-7.159,7.395c-3.817,0-7.16-3.341-7.16-7.395
			C116.055,230.436,119.396,227.095,123.213,227.095z"/>
	</g>
	<g>
		<defs>
			<rect id="SVGID_57_" x="35.162" y="19.104" width="235.527" height="235.145"/>
		</defs>
		<clipPath id="SVGID_58_">
			<use xlink:href="#SVGID_57_"  overflow="visible"/>
		</clipPath>
		<path clip-path="url(#SVGID_58_)" fill="none" stroke="#E21F26" stroke-width="1.6571" d="M133.477,227.095
			c4.052,0,7.159,3.341,7.159,7.639c0,4.055-3.107,7.395-7.159,7.395c-3.818,0-6.921-3.341-6.921-7.395
			C126.555,230.436,129.658,227.095,133.477,227.095z"/>
	</g>
	<g>
		<defs>
			<rect id="SVGID_59_" x="35.162" y="19.104" width="235.527" height="235.145"/>
		</defs>
		<clipPath id="SVGID_60_">
			<use xlink:href="#SVGID_59_"  overflow="visible"/>
		</clipPath>
		<path clip-path="url(#SVGID_60_)" fill="none" stroke="#E21F26" stroke-width="1.6571" d="M143.973,227.095
			c3.818,0,6.922,3.341,6.922,7.639c0,4.055-3.103,7.395-6.922,7.395c-4.053,0-7.159-3.341-7.159-7.395
			C136.813,230.436,139.921,227.095,143.973,227.095z"/>
	</g>
	<g>
		<defs>
			<rect id="SVGID_61_" x="35.162" y="19.104" width="235.527" height="235.145"/>
		</defs>
		<clipPath id="SVGID_62_">
			<use xlink:href="#SVGID_61_"  overflow="visible"/>
		</clipPath>
		<path clip-path="url(#SVGID_62_)" fill="none" stroke="#E21F26" stroke-width="1.6571" d="M164.495,227.095
			c3.821,0,7.162,3.341,7.162,7.639c0,4.055-3.341,7.395-7.162,7.395c-3.818,0-7.159-3.341-7.159-7.395
			C157.336,230.436,160.677,227.095,164.495,227.095z"/>
	</g>
	<g>
		<defs>
			<rect id="SVGID_63_" x="35.162" y="19.104" width="235.527" height="235.145"/>
		</defs>
		<clipPath id="SVGID_64_">
			<use xlink:href="#SVGID_63_"  overflow="visible"/>
		</clipPath>
		<path clip-path="url(#SVGID_64_)" fill="none" stroke="#E21F26" stroke-width="1.6571" d="M174.758,227.095
			c4.053,0,7.159,3.341,7.159,7.639c0,4.055-3.106,7.395-7.159,7.395c-3.821,0-6.921-3.341-6.921-7.395
			C167.837,230.436,170.937,227.095,174.758,227.095z"/>
	</g>
	<g>
		<defs>
			<rect id="SVGID_65_" x="35.162" y="19.104" width="235.527" height="235.145"/>
		</defs>
		<clipPath id="SVGID_66_">
			<use xlink:href="#SVGID_65_"  overflow="visible"/>
		</clipPath>
		<path clip-path="url(#SVGID_66_)" fill="none" stroke="#E21F26" stroke-width="1.6571" d="M185.021,227.095
			c4.049,0,7.158,3.341,7.158,7.639c0,4.055-3.109,7.395-7.158,7.395c-3.821,0-6.921-3.341-6.921-7.395
			C178.1,230.436,181.199,227.095,185.021,227.095z"/>
	</g>
	<g>
		<defs>
			<rect id="SVGID_67_" x="35.162" y="19.104" width="235.527" height="235.145"/>
		</defs>
		<clipPath id="SVGID_68_">
			<use xlink:href="#SVGID_67_"  overflow="visible"/>
		</clipPath>
		<path clip-path="url(#SVGID_68_)" fill="none" stroke="#E21F26" stroke-width="1.6571" d="M154.236,227.095
			c3.814,0,6.922,3.341,6.922,7.639c0,4.055-3.107,7.395-6.922,7.395c-4.056,0-7.163-3.341-7.163-7.395
			C147.074,230.436,150.18,227.095,154.236,227.095z"/>
	</g>
</g>
</svg>
