<?xml version="1.0" encoding="utf-8"?>
<!-- Generator: Adobe Illustrator 16.0.0, SVG Export Plug-In . SVG Version: 6.00 Build 0)  -->
<!DOCTYPE svg PUBLIC "-//W3C//DTD SVG 1.1//EN" "http://www.w3.org/Graphics/SVG/1.1/DTD/svg11.dtd">
<svg version="1.1" id="Layer_1" xmlns="http://www.w3.org/2000/svg" xmlns:xlink="http://www.w3.org/1999/xlink" x="0px" y="0px"
	 width="306px" height="279.5px" viewBox="0 0 306 279.5" enable-background="new 0 0 306 279.5" xml:space="preserve">
<g>
	<g>
		<g>
			<defs>
				<rect id="SVGID_1_" x="15.881" width="274.238" height="273.793"/>
			</defs>
			<clipPath id="SVGID_2_">
				<use xlink:href="#SVGID_1_"  overflow="visible"/>
			</clipPath>
			<path clip-path="url(#SVGID_2_)" fill="#918F8D" d="M270.939,185.77c0,0-2.504-3.607-1.391-6.107
				c1.117-2.777,1.949-3.613,0.832-5.557c-1.105-1.947-1.664-2.779-3.332-3.615l-0.277-2.777c0,0,0.836-1.107,2.225,0.561
				c1.387,1.668,1.387,2.775,2.227,3.055c0.561,0.277,1.664-1.113,1.664-2.5c0-1.664-0.555-3.336-2.219-4.168c-1.672-1.117,0,0,0,0
				s-1.949-1.117-2.229-2.223c-0.273-1.389-0.553-3.609,1.111-2.777l2.781,2.777c0.836,1.104,1.943,1.391,1.943-0.561
				c0.285-2.219,0.832-3.332-0.832-4.725c0,0-2.504-2.219-3.336-2.775c0,0-1.111-2.5,0.273-2.5c1.398,0,2.227-0.275,2.785,0.836
				c0.277,0.832,0,1.945,0.836,1.945c1.105,0,1.945-0.842,1.945-1.945c0.271-1.111,0.828-1.672,0-2.775
				c-0.84-0.836-3.617-3.062-4.449-4.172c0,0-1.391-1.941-0.277-2.225c1.109-0.557,1.664-1.113,2.223,0.279
				c0.832,1.109,1.664,2.221,2.225,2.5c0.828,0.277,1.387-0.836,1.387-2.5c0,0,0.842-3.059,0-3.611
				c-1.104-0.56-4.443-2.224-4.723-3.06s0-2.5,1.111-2.227c0.832,0.285,1.389,0.832,2.225,1.672
				c1.107,0.832,1.943,1.391,2.229,1.113c0.551-0.281,0.551-6.117-0.281-6.668c-0.561-0.281-3.609-1.391-4.168-2.23
				c-1.113-0.828-1.113-3.324-0.277-3.324s2.5,1.105,3.055,1.664c0.832,0.832,1.391,1.113,1.391,1.113s1.945-3.336,0.832-5.008
				c-1.391-1.664-4.439-2.777-5-3.332c-0.836-0.836-2.223-3.055-1.111-3.336c0.836,0,1.943,0.559,3.336,1.391
				c1.107,0.836,1.387,1.395,1.943,0.836c0.281-0.836,0.553-3.895,0-4.445c-0.559-0.559-2.779-1.391-4.168-2.227
				c-1.391-0.832-2.775-1.668-1.943-2.5s0.279-1.387,1.943-1.113c0,0,1.664,1.945,2.504,1.945c0.828-0.273,0.828-0.832,0.828-0.832
				s0-3.055-0.555-3.336c-0.555-0.555-3.891-2.496-5-2.496c-1.113,0-1.945-2.227-1.387-2.227c0.832-0.273,1.105-1.391,1.664-1.105
				c0.555,0,1.387,1.938,1.945,1.938c0.832,0,1.387-0.273,1.387-0.273l-0.27-3.895c0,0-1.953-1.105-3.342-1.105
				c-1.111-0.281-3.336-1.391-3.059-2.227c0.271-1.109,1.111-2.223,2.219-1.668l2.504,1.117c0,0,0.561-1.117,0-1.945
				c-0.832-1.117-1.104-3.336-3.051-3.617c-1.672-0.277-4.168-0.277-4.449-1.109c-0.275-0.832-1.115-2.5,0.281-2.777
				c1.664-0.277,2.219,1.391,2.771,1.109c0.84-0.277,1.111-0.277,1.111-0.277s0.561-4.168-1.664-5.277
				c-2.5-0.832-4.723,0.277-5.555-0.832c-0.561-1.117-1.396-1.945,0.271-2.227c1.949,0,3.617,0,3.617-0.551
				c0.277-0.559-1.113-3.895-2.5-4.168c-1.668-0.285-3.613-0.285-4.168-0.559c-0.559-0.281-2.781-1.945-1.395-2.504
				c1.395-0.555,1.668,0,2.5,0.285c0.559,0.547,1.395,0.273,1.395,0.273s-0.281-5-1.945-5.281c0,0-3.891,0.555-5.285-0.555
				c0,0-2.219-1.941-1.104-1.941c1.104-0.281,2.225-0.281,3.057,0c0.836,0.273,1.672-1.391,0.836-1.945
				c-0.836-0.832-1.393-2.227-2.504-2.777c-1.389-0.281-4.996,0.273-5.557,0c-0.84-0.559-0.279-2.504,1.107-1.949
				c1.674,0.559,2.777,0.281,2.777,0.281s0-3.336-3.609-3.059c0,0-5.004,0.559-4.168-1.109c0.561-1.391,1.389-0.836,2.777-1.113
				c1.113-0.277,1.672-3.055-2.219-4.168c0,0-3.895,0.555-4.727,0.277c0,0-1.109-0.836-0.561-1.109
				c0.561-0.559,3.621-1.117,3.621-1.117s-1.115-3.332-3.062-3.332h-5.276c0,0-1.396-1.383,1.668-2.223c0,0-1.944-1.664-1.944-3.332
				s1.944-0.551,3.051,0.281c1.396,0.828,1.664,2.219,2.224,1.387c0.56-0.832,0.56-3.055,1.944-3.055
				c1.113,0,0.841,4.445,0.841,5.277s-0.281,1.113,0.559,1.664c0.828,0.84,2.216,1.387,2.216,0.555
				c0.276-0.555,0.276-3.051,1.108-3.336c1.112-0.273,1.948,0.84,1.392,3.336c-0.56,2.504-0.832,2.777,0.28,4.449
				c1.388,1.391,1.945,1.664,2.496,1.664c0.836-0.273,1.112-3.051,1.112-3.883c0,0,2.5,0.273,1.664,2.496
				c-0.832,2.504-1.94,4.168-0.832,5.555c1.113,1.395,1.392,2.504,1.949,2.504c0.832,0,2.772-2.777,3.056-4.168
				c0,0,1.94,0.832,0,4.441c0,0-1.388,1.117-0.552,2.785c0,0,1.383,2.777,2.215,2.777c0,0,1.673-1.668,2.505-4.168
				c0,0,2.504,0.832,1.104,3.609c0,0-1.938,1.668-1.388,3.895c0,0,1.944,3.332,1.944,3.883c0,0,0.841,1.391,2.224,0
				c0,0,0.56-4.441,1.945-3.883c1.387,0.273,1.112,2.492,0,3.883c-0.832,1.672-2.496,3.062-1.388,5.555c0,0,0.556,2.785,1.94,2.785
				c0,0,0.832,0.277,1.949-2.227c0,0,2.219-3.336,2.504-1.105c0,0,0.272,1.941-0.56,2.777c-0.56,0.555-2.504,2.223-2.504,3.332
				c0.28,1.109,0.56,2.223,0.56,2.777c0.28,0.559,0.832,3.336,1.108,3.336c0.56,0,1.396-0.559,2.5-2.5c0,0,1.112-2.227,1.944-1.391
				c0,0,1.392,2.223-0.56,4.168c0,0-1.934,0.832-2.219,2.227c0,0,0.556,5,1.112,5.828c0,0,1.388,0.559,2.505-0.555
				c0,0,0-1.941,0.551-1.941c0.836-0.281,4.444-1.668,1.112,3.328c0,0-3.062,1.949-2.504,4.168c0,0,0.841,2.777,1.108,3.336
				c0,0,1.396-0.273,2.509-1.664c0,0,1.659-2.777,2.496-1.387c0,0,1.391,1.945-1.664,3.883c0,0-1.945,1.395-2.224,1.945
				c0,0,0.551,4.168,0.551,5.004c0,0,0.56,0.277,1.673-0.555c0,0,0.827-1.945,2.504-2.223c0,0,3.328,0,0.271,3.055
				c0,0-2.772,3.059-3.604,3.336c0,0-0.281,0.832,0,1.668c0,0.555,0.272,3.055,0.272,3.609c0.276,0.559-0.272,0.832,1.388-0.277
				c1.395-1.109,1.676-1.941,3.062-2.777c1.387-0.555,2.491,1.945,0.832,3.336c-1.669,1.387,0,0,0,0s-3.896,2.223-4.449,3.887
				c-0.556,1.391-0.832,5.559,0,5.559s2.78-1.664,3.617-2.496c0.551-0.559,4.163,1.105,1.104,3.051c0,0-4.169,3.336-4.724,3.896
				c-0.832,0.547,0.284,3.883-0.272,4.719c0,0,1.664,0,3.608-1.109c0,0,4.728-0.832,0.832,2.219c0,0-3.056,1.668-4.44,1.949
				l-0.832,1.108c0,0-0.281,4.168-0.556,5.281c0,0.832,0.828,0.272,2.215-0.56c1.677-0.836,3.341-1.668,3.896-1.108
				c0.555,0.832,0.555,3.332-1.949,3.608c-2.215,0.56-3.888,1.668-4.444,2.228c-0.552,0.556-0.273,3.892-0.832,4.724
				c0,0,2.223,0,3.608-1.113c1.668-0.832,3.336-1.392,3.062-0.272c0,0,0.271,1.944-2.229,2.776c0,0-3.611,0.832-4.443,1.945
				c0,0-1.389,1.938-1.664,2.776v3.056c0,0,3.336-1.664,4.729-1.949c1.663-0.272,3.051,2.228-0.285,3.336
				c-3.332,1.117-5.281,1.117-5.828,2.228c-0.561,0.832,0,2.776-0.281,3.608c0,1.109,1.668-0.555,2.777-1.108
				c1.387-0.28,3.332,0.832,1.672,1.668c-1.396,1.108-2.504,2.22-4.168,2.776c-1.672,0.56-2.504,2.777-2.781,4.445
				c-0.559,1.94-0.836,3.612-1.113,4.172c-0.273,0.832-0.555,1.664-0.555,1.664L270.939,185.77z"/>
		</g>
	</g>
	<g>
		<g>
			<defs>
				<rect id="SVGID_3_" x="15.881" width="274.238" height="273.793"/>
			</defs>
			<clipPath id="SVGID_4_">
				<use xlink:href="#SVGID_3_"  overflow="visible"/>
			</clipPath>
			<path clip-path="url(#SVGID_4_)" fill="#918F8D" d="M36.158,185.77c0,0,2.504-3.607,1.395-6.107
				c-1.117-2.777-1.949-3.613-0.836-5.557c1.109-1.947,1.668-2.779,3.332-3.615l0.555-2.777c0,0-0.832-1.107-2.219,0.561
				c-1.391,1.668-1.668,2.775-2.227,3.055c-0.832,0.277-1.664-1.113-1.941-2.5c0-1.664,0.551-3.336,2.219-4.168c1.949-1.117,0,0,0,0
				s1.949-1.117,2.227-2.223c0.273-1.389,0.559-3.609-1.109-2.777c0,0-1.668,1.664-2.504,2.777c-1.113,1.104-2.5,1.391-2.5-0.561
				c0-2.219-0.832-3.332,0.832-4.725c0,0,2.777-2.219,3.891-2.775c0,0,0.832-2.5-0.555-2.5c-1.391,0-2.223-0.275-2.781,0.836
				c-0.277,0.832,0,1.945-1.109,1.945c-1.109,0-1.668-0.842-1.945-1.945c-0.277-1.111-0.832-1.672,0-2.775
				c0.836-0.836,3.887-3.062,5.004-4.172c0,0,1.387-1.941,0-2.225c-1.117-0.557-1.668-1.113-2.504,0.279
				c-0.832,1.109-1.664,2.221-2.223,2.5c-0.832,0.277-1.387-0.836-1.387-2.5c0,0-0.832-2.783,0.277-3.611
				c0.832-0.56,4.445-2.224,4.719-3.06c0.281-0.836,0-2.5-1.109-2.227c-1.109,0.285-1.668,0.832-2.5,1.672
				c-1.109,0.832-1.945,1.391-2.219,1.113c-0.559-0.281-0.281-6.117,0.273-6.668c0.559-0.281,3.613-1.391,4.723-2.23
				c0.832-0.828,0.832-3.324,0-3.324c-1.109,0-2.496,1.105-3.332,1.664c-0.555,0.832-1.391,1.113-1.391,1.113
				s-1.941-3.336-0.832-5.008c1.391-1.664,4.445-2.777,5.277-3.332c1.109-0.836,2.227-3.055,1.391-3.336
				c-1.113,0-2.5,0.559-3.891,1.391c-1.109,0.836-1.387,1.395-1.668,0.836c-0.551-0.836-0.832-3.895,0-4.445
				c0.559-0.559,2.5-1.391,4.168-2.227c1.391-0.832,3.059-1.668,2.227-2.5c-0.836-0.832-0.281-1.387-2.227-1.113
				c0,0-1.941,1.945-2.777,1.945c-0.832-0.273-0.832-0.832-0.832-0.832s0.277-3.055,0.555-3.336
				c0.555-0.555,4.445-2.496,5.281-2.496c1.109,0,2.219-2.227,1.387-2.227c-0.555-0.273-1.113-1.391-1.668-1.105
				c-0.555,0-1.387,1.938-2.223,1.938c-0.555,0-1.391-0.273-1.391-0.273l0.281-3.895c0,0,2.223-1.105,3.613-1.105
				c1.109-0.281,3.336-1.391,3.051-2.227c-0.273-1.109-1.109-2.223-2.219-1.668l-2.5,1.117c0,0-0.559-1.117,0.277-1.945
				c0.555-1.117,1.109-3.336,2.777-3.617c1.664-0.277,4.168-0.277,4.445-1.109c0.555-0.832,1.113-2.5-0.277-2.777
				s-1.945,1.391-2.777,1.109c-0.559-0.277-1.109-0.277-1.109-0.277s-0.559-4.168,1.941-5.277c2.223-0.832,4.445,0.277,5.281-0.832
				c0.832-1.117,1.391-1.945-0.277-2.227c-1.668,0-3.336,0-3.617-0.551c-0.277-0.559,1.117-3.895,2.504-4.168
				c1.668-0.285,3.609-0.285,4.168-0.559c0.832-0.281,2.777-1.945,1.391-2.504c-1.391-0.555-1.668,0-2.5,0.285
				c-0.559,0.547-1.391,0.273-1.391,0.273s0.281-5,1.941-5.281c0,0,4.172,0.555,5.285-0.555c0,0,2.219-1.941,1.109-1.941
				c-1.109-0.281-2.223-0.281-3.059,0c-0.832,0.273-1.668-1.391-0.832-1.945c0.832-0.832,1.391-2.227,2.781-2.777
				c1.109-0.281,4.719,0.273,5.277,0c0.832-0.559,0.277-2.504-1.113-1.949c-1.668,0.559-2.777,0.281-2.777,0.281
				s0.277-3.336,3.609-3.059c0,0,5.004,0.559,4.168-1.109c-0.555-1.391-1.387-0.836-2.5-1.113c-1.109-0.277-1.945-3.055,1.945-4.168
				c0,0,3.891,0.555,4.723,0.277c0,0,1.391-0.836,0.559-1.109c-0.559-0.559-3.617-1.117-3.617-1.117s1.117-3.332,3.059-3.332h5.281
				c0,0,1.391-1.383-1.668-2.223c0,0,1.941-1.664,1.941-3.332c0.281-1.668-1.941-0.551-3.051,0.281
				c-1.113,0.828-1.668,2.219-2.227,1.387c-0.555-0.832-0.555-3.055-1.668-3.055c-1.387,0-1.109,4.445-1.109,5.277
				c0.277,1.113,0.277,1.113-0.559,1.664c-0.551,0.84-1.941,1.387-2.219,0.555c-0.277-0.555-0.277-3.051-1.109-3.336
				c-1.113-0.273-1.949,0.84-1.391,3.336c0.555,2.504,0.832,2.777-0.277,4.449c-1.391,1.391-1.949,1.664-2.5,1.664
				c-0.559-0.273-1.113-3.051-1.113-3.883c0,0-2.5,0.273-1.664,2.496c0.832,2.504,1.941,4.168,0.832,5.555
				c-0.832,1.395-1.113,2.504-1.945,2.504c-0.836,0-2.504-2.777-3.055-4.168c0,0-1.945,0.832,0,4.441c0,0,1.387,1.117,0.551,2.785
				c0,0-1.387,2.777-2.219,2.777c0,0-1.668-1.668-2.504-4.168c0,0-2.5,0.832-1.109,3.609c0,0,1.945,1.668,1.387,3.895
				c0,0-1.945,3.332-1.945,3.883c0,0-0.832,1.391-1.941,0c0,0-0.836-4.441-2.227-3.883c-1.387,0.273-1.109,2.492,0,3.883
				c0.832,1.672,2.777,3.062,1.391,5.555c0,0-0.273,2.785-1.941,2.785c0,0-0.836,0.277-1.949-2.227c0,0-2.5-3.336-2.777-1.105
				c0,0,0,1.941,0.555,2.777c0.836,0.555,2.777,2.223,2.777,3.332c-0.273,1.109-0.555,2.223-0.555,2.777
				c0,0.559-0.836,3.336-1.109,3.336c-0.559,0-1.668-0.559-2.777-2.5c0,0-1.113-2.227-1.945-1.391c0,0-1.391,2.223,0.555,4.168
				c0,0,1.945,0.832,2.223,2.227c0,0-0.277,5-1.109,5.828c0,0-1.391,0.559-2.5-0.555c0,0,0-1.941-0.559-1.941
				c-0.832-0.281-4.168-1.668-1.109,3.328c0,0,3.055,1.949,2.5,4.168c0,0-0.832,2.777-1.113,3.336c0,0-1.387-0.273-2.5-1.664
				c0,0-1.664-2.777-2.496-1.387c0,0-1.117,1.945,1.664,3.883c0,0,1.945,1.395,2.223,1.945c0,0-0.559,4.168-0.277,5.004
				c0,0-0.836,0.277-1.945-0.555c0,0-0.832-1.945-2.5-2.223c0,0-3.336,0-0.281,3.055c0,0,2.781,3.059,3.891,3.336
				c0,0,0,0.832-0.277,1.668c0,0.555-0.277,3.055-0.277,3.609c0,0.559,0.277,0.832-1.387-0.277
				c-1.391-1.109-1.391-1.941-2.781-2.777c-1.387-0.555-2.777,1.945-1.109,3.336c1.664,1.387,0,0,0,0s3.891,2.223,4.441,3.887
				c0.559,1.391,0.836,5.559,0,5.559c-0.832,0-2.777-1.664-3.332-2.496c-0.555-0.559-4.445,1.105-1.387,3.051
				c0,0,4.168,3.336,4.719,3.896c0.836,0.547,0,3.883,0.559,4.719c0,0-1.941,0-3.609-1.109c0,0-5.004-0.832-1.117,2.219
				c0,0,3.059,1.668,4.449,1.949l0.832,1.108c0,0,0.277,4.168,0.555,5.281c0.277,0.832-0.832,0.272-2.219-0.56
				c-1.391-0.836-3.336-1.668-3.617-1.108c-0.551,0.832-0.551,3.332,1.668,3.608c2.227,0.56,3.891,1.668,4.445,2.228
				c0.559,0.556,0.281,3.892,0.832,4.724c0,0-2.219,0-3.609-1.113c-1.387-0.832-3.336-1.392-3.055-0.272
				c0,0-0.281,1.944,2.504,2.776c0,0,3.328,0.832,4.16,1.945c0,0,1.391,1.938,1.668,2.776c0.281,0.832,0,3.056,0,3.056
				s-3.332-1.664-4.719-1.949c-1.668-0.272-3.059,2.228,0.273,3.336c3.336,1.117,5.281,1.117,5.836,2.228
				c0.559,0.832,0,2.776,0.277,3.608c0.281,1.109-1.668-0.555-2.777-1.108c-1.391-0.28-3.055,0.832-1.668,1.668
				c1.391,1.108,2.777,2.22,4.168,2.776c1.668,0.56,2.5,2.777,3.055,4.445c0.559,1.94,0.832,3.612,1.113,4.172
				c0.277,0.832,0.555,1.664,0.555,1.664L36.158,185.77z"/>
		</g>
	</g>
	<g>
		<g>
			<defs>
				<rect id="SVGID_5_" x="15.881" width="274.238" height="273.793"/>
			</defs>
			<clipPath id="SVGID_6_">
				<use xlink:href="#SVGID_5_"  overflow="visible"/>
			</clipPath>
			<path clip-path="url(#SVGID_6_)" fill="none" stroke="#918F8D" stroke-width="3.859" stroke-miterlimit="10" d="M153.139,234.121
				c55.289,0,100.297-47.234,100.297-105.301c0-57.801-45.008-105.031-100.297-105.031c-55.297,0-100.309,47.23-100.309,105.031
				C52.83,186.887,97.842,234.121,153.139,234.121z"/>
		</g>
	</g>
	<g>
		<g>
			<defs>
				<rect id="SVGID_7_" x="15.881" width="274.238" height="273.793"/>
			</defs>
			<clipPath id="SVGID_8_">
				<use xlink:href="#SVGID_7_"  overflow="visible"/>
			</clipPath>
			<path clip-path="url(#SVGID_8_)" fill="#AEAEAE" d="M204.541,180.496c1.664-0.281,1.105-0.559,1.664-0.84
				c0,0.281,0.277,0.559,0.559,0.559c0.273,0,0.273-0.832,0.828-0.832h0.559c0.273,0,0.273,0,0.273,0.273v-0.555
				c0.832-0.277,0.832-0.836,1.672-0.836v0.283c0.559,0,0.277-0.283,0.277-0.559c0.555-0.561,0.281-1.113,0.832-1.113v0.557
				c0.555,0,0.277-2.221,1.387-1.66c-0.832-1.672-0.273-1.672,0-1.393c0.285,0,0.285,0.271,0.285,0.271
				c0.828-0.555,1.66-1.107,1.66-2.219c0-0.281-0.273-0.559-0.273-0.836c0.559,0,1.105-0.555,1.105-1.107
				c0.281,1.107,0.84,1.943,1.117,2.775c0.551,1.668,0.551,1.945,0.551,3.055v1.109c0.281,0,0.281,0.832,0.281,1.117
				c0,0.273-0.832,1.387-0.832,1.387c-0.277,0-0.561,0-0.561-0.281v-0.832c-0.561-0.271-0.275,0-0.275,0.561
				c0,0.557,0.275,1.389,0.275,1.389c0,0.832-0.832,1.391-1.104,1.664c-0.561,0.84,0.271,1.391-0.561,3.062
				c-0.84,1.104-1.111,2.5-1.672,3.883c-0.832,1.672-1.938,4.172-2.496,5.84c-0.279,0.832-1.943,4.168-2.229,5.277
				c-0.559,0.56-1.104,0.56-1.939,0.56c-0.832,0-1.943,1.387-2.5,0.831c-0.283-0.555-1.393-0.831-1.393-1.112
				c-0.559-0.276-0.83-1.388-0.83-1.944v-1.384v-0.836c0,0-0.277-0.56-0.277-0.832c-0.279-0.56,0-1.116,0-1.668
				c0-0.56,0.277-0.56,0.277-1.112c0.271-0.281,0.271-0.556,0.271-0.836c0.277-0.277,0.559-0.277,0.559-0.277
				c0.277-0.272,0.277-0.551,0.561-0.832c0.271-0.827,1.104-1.387,1.389-2.504c-0.281-1.104,0.275-0.272-0.281-1.387l-0.273-1.392
				v-2.496l1.113-1.944V180.496L204.541,180.496z"/>
		</g>
	</g>
	<g>
		<g>
			<defs>
				<rect id="SVGID_9_" x="15.881" width="274.238" height="273.793"/>
			</defs>
			<clipPath id="SVGID_10_">
				<use xlink:href="#SVGID_9_"  overflow="visible"/>
			</clipPath>
			<path clip-path="url(#SVGID_10_)" fill="#AEAEAE" d="M202.869,169.102l0.273,0.277c0,0.281,0.283,1.113,0.283,1.113h-0.283
				c-0.273-0.281-0.549-0.555-0.549-0.832C202.596,169.379,202.869,169.102,202.869,169.102"/>
		</g>
	</g>
	<g>
		<g>
			<defs>
				<rect id="SVGID_11_" x="15.881" width="274.238" height="273.793"/>
			</defs>
			<clipPath id="SVGID_12_">
				<use xlink:href="#SVGID_11_"  overflow="visible"/>
			</clipPath>
			<path clip-path="url(#SVGID_12_)" fill="#AEAEAE" d="M205.092,171.047l0.277-0.277c0,0.277,0.277,0.557,0,0.557
				S205.092,171.047,205.092,171.047"/>
		</g>
	</g>
	<g>
		<g>
			<defs>
				<rect id="SVGID_13_" x="15.881" width="274.238" height="273.793"/>
			</defs>
			<clipPath id="SVGID_14_">
				<use xlink:href="#SVGID_13_"  overflow="visible"/>
			</clipPath>
			<path clip-path="url(#SVGID_14_)" fill="#AEAEAE" d="M213.15,173.547v0.277h-0.271
				C212.877,173.547,213.15,173.547,213.15,173.547"/>
		</g>
	</g>
	<g>
		<g>
			<defs>
				<rect id="SVGID_15_" x="15.881" width="274.238" height="273.793"/>
			</defs>
			<clipPath id="SVGID_16_">
				<use xlink:href="#SVGID_15_"  overflow="visible"/>
			</clipPath>
			<path clip-path="url(#SVGID_16_)" fill="#AEAEAE" d="M206.76,172.715v-0.277C207.033,172.438,207.033,172.715,206.76,172.715"/>
		</g>
	</g>
	<g>
		<g>
			<defs>
				<rect id="SVGID_17_" x="15.881" width="274.238" height="273.793"/>
			</defs>
			<clipPath id="SVGID_18_">
				<use xlink:href="#SVGID_17_"  overflow="visible"/>
			</clipPath>
			<path clip-path="url(#SVGID_18_)" fill="#AEAEAE" d="M209.814,164.379c-0.559,0-0.275,0.273-0.275,0.273
				C209.537,164.379,210.373,164.938,209.814,164.379"/>
		</g>
	</g>
	<g>
		<g>
			<defs>
				<rect id="SVGID_19_" x="15.881" width="274.238" height="273.793"/>
			</defs>
			<clipPath id="SVGID_20_">
				<use xlink:href="#SVGID_19_"  overflow="visible"/>
			</clipPath>
			<path clip-path="url(#SVGID_20_)" fill="#AEAEAE" d="M204.541,180.496c1.664-0.281,1.105-0.559,1.664-0.84
				c0,0.281,0.277,0.559,0.559,0.559c0.273,0,0.273-0.832,0.828-0.832h0.559c0.273,0,0.273,0,0.273,0.273v-0.555
				c0.832-0.277,0.832-0.836,1.672-0.836v0.283c0.559,0,0.277-0.283,0.277-0.559c0.555-0.561,0.281-1.113,0.832-1.113v0.557
				c0.555,0,0.277-2.221,1.387-1.66c-0.832-1.672-0.273-1.672,0-1.393c0.285,0,0.285,0.271,0.285,0.271
				c0.828-0.555,1.66-1.107,1.66-2.219c0-0.281-0.273-0.559-0.273-0.836c0.559,0,1.105-0.555,1.105-1.107
				c0.281,1.107,0.84,1.943,1.117,2.775c0.551,1.668,0.551,1.945,0.551,3.055v1.109c0.281,0,0.281,0.832,0.281,1.117
				c0,0.273-0.832,1.387-0.832,1.387c-0.277,0-0.561,0-0.561-0.281v-0.832c-0.561-0.271-0.275,0-0.275,0.561
				c0,0.557,0.275,1.389,0.275,1.389c0,0.832-0.832,1.391-1.104,1.664c-0.561,0.84,0.271,1.391-0.561,3.062
				c-0.84,1.104-1.111,2.5-1.672,3.883c-0.832,1.672-1.938,4.172-2.496,5.84c-0.279,0.832-1.943,4.168-2.229,5.277
				c-0.559,0.56-1.104,0.56-1.939,0.56c-0.832,0-1.943,1.387-2.5,0.831c-0.283-0.555-1.393-0.831-1.393-1.112
				c-0.559-0.276-0.83-1.388-0.83-1.944v-1.384v-0.836c0,0-0.277-0.56-0.277-0.832c-0.279-0.56,0-1.116,0-1.668
				c0-0.56,0.277-0.56,0.277-1.112c0.271-0.281,0.271-0.556,0.271-0.836c0.277-0.277,0.559-0.277,0.559-0.277
				c0.277-0.272,0.277-0.551,0.561-0.832c0.271-0.827,1.104-1.387,1.389-2.504c-0.281-1.104,0.275-0.272-0.281-1.387l-0.273-1.392
				v-2.496l1.113-1.944V180.496L204.541,180.496z"/>
		</g>
	</g>
	<g>
		<g>
			<defs>
				<rect id="SVGID_21_" x="15.881" width="274.238" height="273.793"/>
			</defs>
			<clipPath id="SVGID_22_">
				<use xlink:href="#SVGID_21_"  overflow="visible"/>
			</clipPath>
			<path clip-path="url(#SVGID_22_)" fill="#AEAEAE" d="M202.869,169.102l0.273,0.277c0,0.281,0.283,1.113,0.283,1.113h-0.283
				c-0.273-0.281-0.549-0.555-0.549-0.832C202.596,169.379,202.869,169.102,202.869,169.102"/>
		</g>
	</g>
	<g>
		<g>
			<defs>
				<rect id="SVGID_23_" x="15.881" width="274.238" height="273.793"/>
			</defs>
			<clipPath id="SVGID_24_">
				<use xlink:href="#SVGID_23_"  overflow="visible"/>
			</clipPath>
			<path clip-path="url(#SVGID_24_)" fill="#AEAEAE" d="M205.092,171.047l0.277-0.277c0,0.277,0.277,0.557,0,0.557
				S205.092,171.047,205.092,171.047"/>
		</g>
	</g>
	<g>
		<g>
			<defs>
				<rect id="SVGID_25_" x="15.881" width="274.238" height="273.793"/>
			</defs>
			<clipPath id="SVGID_26_">
				<use xlink:href="#SVGID_25_"  overflow="visible"/>
			</clipPath>
			<path clip-path="url(#SVGID_26_)" fill="#AEAEAE" d="M213.15,173.547v0.277h-0.271
				C212.877,173.547,213.15,173.547,213.15,173.547"/>
		</g>
	</g>
	<g>
		<g>
			<defs>
				<rect id="SVGID_27_" x="15.881" width="274.238" height="273.793"/>
			</defs>
			<clipPath id="SVGID_28_">
				<use xlink:href="#SVGID_27_"  overflow="visible"/>
			</clipPath>
			<path clip-path="url(#SVGID_28_)" fill="#AEAEAE" d="M206.76,172.715v-0.277C207.033,172.438,207.033,172.715,206.76,172.715"/>
		</g>
	</g>
	<g>
		<g>
			<defs>
				<rect id="SVGID_29_" x="15.881" width="274.238" height="273.793"/>
			</defs>
			<clipPath id="SVGID_30_">
				<use xlink:href="#SVGID_29_"  overflow="visible"/>
			</clipPath>
			<path clip-path="url(#SVGID_30_)" fill="#AEAEAE" d="M209.814,164.379c-0.559,0-0.275,0.273-0.275,0.273
				C209.537,164.379,210.373,164.938,209.814,164.379"/>
		</g>
	</g>
	<g>
		<g>
			<defs>
				<rect id="SVGID_31_" x="15.881" width="274.238" height="273.793"/>
			</defs>
			<clipPath id="SVGID_32_">
				<use xlink:href="#SVGID_31_"  overflow="visible"/>
			</clipPath>
			<path clip-path="url(#SVGID_32_)" fill="#AEAEAE" d="M210.096,165.211h0.277v0.273
				C210.096,165.484,210.096,165.484,210.096,165.211"/>
		</g>
	</g>
	<g>
		<g>
			<defs>
				<rect id="SVGID_33_" x="15.881" width="274.238" height="273.793"/>
			</defs>
			<clipPath id="SVGID_34_">
				<use xlink:href="#SVGID_33_"  overflow="visible"/>
			</clipPath>
			<path clip-path="url(#SVGID_34_)" fill="#AEAEAE" d="M211.76,164.379L211.76,164.379h0.281c0,0,0,0.273-0.281,0.273V164.379z"/>
		</g>
	</g>
	<g>
		<g>
			<defs>
				<rect id="SVGID_35_" x="15.881" width="274.238" height="273.793"/>
			</defs>
			<clipPath id="SVGID_36_">
				<use xlink:href="#SVGID_35_"  overflow="visible"/>
			</clipPath>
			<path clip-path="url(#SVGID_36_)" fill="#AEAEAE" d="M175.639,66.02c0.559-0.273,0.836-0.273,1.109-0.273
				c0.559,0,0.559-0.285,0.559-0.285c0.559,0,0.559,0.285,1.113,0.285h0.281c0.277,0.547,0.551,0.547,1.104,0.547
				c0,0.84,0.277,1.117,0.277,1.672c0,0.277,0.561,0.277,0.561,0.559c0,0.551-0.277,0.551-0.277,1.109
				c0,0.555,0.277,0.281,0.277,0.555c0.275,0.559,0.551,1.113,0.836,1.664c0,0.281,0.271,0.281,0.271,0.281
				c0.561,0.562,0.275,0.562,1.107,1.105c0,0.566,0.285,1.395,0.561,1.672c0,0,0.555,1.664,1.111,1.664l3.061,5.004
				c0.271,0.277,0.271,0.277,0.553,0.559c-0.277,0-0.277,0.277-0.277,0.277c0,1.109,1.113,1.668,1.113,2.5h0.551
				c0.559,0.832,1.113,1.387,1.672,2.504c0,0.273,0.559,0.273,0.559,0.832c0,0.273-0.285,0.273-0.285,0.273
				c0.285,0.559,0.285,1.117,0.559,1.672c0,0.273,0.281,0.832,0.281,0.832c0.557,1.117,0.277,1.945,0.832,2.777
				c0,0.273,0.551,0.273,0.551,0.273c0.561,0.285,0.842,1.117,1.674,0.836c0.271,1.113,1.111,1.945,1.387,3.332
				c0.285,1.117,1.113,3.617,1.949,2.777c0.551,0.285,0.551,0.559,0.832,1.117l0.826,0.281c0,0.273,0.561,0,0.832,0.273
				c0.561,0.559,0.842,1.113,1.117,1.668c0.832,0.555,1.668,0.555,1.668,1.668c0,0.273,0.277,0.273,0.551,0.273
				c0.285,0,0.561,0.832,1.117,0.832c0,0.559,0.557,0.285,0.832,1.117c0.281,1.109-1.391,0.832-1.391,1.668h1.113
				c0,0.277,0.277,0.277,0.559,0.277c0.828,0.832,0.828,2.223,2.215,2.223c1.396,0,1.668-1.391,3.062-1.391
				c0.277,0,0.555,0.559,0.832,0.559c0.832,0,1.387-1.109,1.387-1.109c0.832-0.559,0.832,0,2.227-0.281c0,0,0.271-0.559,0.557-0.559
				c0.555,0,0.832,0.281,1.387,0c0.285,0,0.561,0,0.832-0.555c0.285,0,0.561,0.277,0.836,0c0.281,0,0.828-0.277,1.109-0.551
				c0.275-0.281,0-0.84,0.559-0.84c0.277,0,0.561,0.559,0.832,0.559v0.832c-0.271,0.555,0.272,2.504,0,2.504
				c-0.555,0-0.271,2.219-0.271,2.496c-0.84,1.668-1.398,2.781-2.229,4.727c-0.275,0.832-1.107,1.664-1.107,2.5
				c0,1.387-1.672,4.445-2.5,5.832c-0.836,1.117-2.781,3.339-4.168,4.167c-1.945,1.392-4.729,3.896-5.008,4.441
				c-1.385,2.23-2.492,2.785-3.053,4.453c-0.561,1.108-1.391,1.387-2.223,2.496c-0.281,0.28-0.842,0-1.113,0.28
				c-0.271,0.556-0.271,1.668-0.561,1.944c-0.555,1.941-2.496,3.609-2.496,6.109c0,1.391,1.389,1.391,1.389,1.944
				c0,0.56-0.551,1.392-0.551,1.672l0.551,0.552c-0.275,0.284-0.275,0.84-0.551,0.84c0,0.547,0.271,1.388,0.551,1.664
				c0,0.272,0,2.219,0.281,2.504c0.555,0.547,1.943,0.272,1.658,1.104c-0.547,2.22-0.271,5.004-0.271,5.004v1.664
				c0,0.281-0.561,1.113,0,1.949c0.561,0.272,0.271,0.272,0.271,0.832c0,0,0.285,0.276,0,0.276c-0.832,0.832-0.832,1.94-1.104,2.224
				c-0.555,1.112-1.387,1.944-2.504,2.495c-0.547,0.56-1.664,0.837-2.504,1.125c-1.389,0.271-3.053,1.935-3.885,3.324
				c-0.271,0.28-1.111,0.556-1.391,0.84c-0.281,0-0.281,1.104-0.555,1.104c-0.555-0.276-0.832,0.556-1.391,0.556
				c-0.273,0.832,0,0.832-0.273,1.117c-0.285,0.272,0.551,1.104,0.551,1.383c0,0,0.281,1.396,0.281,1.668v1.112
				c0.277,0,0.277,0,0.555-0.28c0,1.112-0.277,0.832-0.277,1.112c0,0.277,0.277,0.832,0.277,0.832
				c-0.277,0.277-1.113,1.949-0.555,1.949c0,0,0.555,0.556-0.559,1.387c-0.561,1.113-2.777,1.392-3.893,1.664
				c-0.555,0.281-1.387,0.836-1.387,1.677c0,0.271,0,0.271,0.271,0.551c0,1.388-0.832,2.5-1.107,3.336
				c-0.271,0.832-0.561,1.388-0.832,1.94l-1.393,1.113c-1.107,1.94-2.223,3.332-3.611,4.724c-0.553,0.836-1.389,1.112-1.945,1.664
				c-0.561,0.836-1.104,1.395-1.664,1.668c-1.387,0.832-2.223,1.948-3.891,1.948c-0.832,0-1.117,0.556-1.393,0.556
				c-0.272,0-0.832-0.281-0.832-0.281c-0.275,0-0.559,0.56-0.832,0.56c-0.555,0-1.111-0.56-1.943-0.56
				c-0.273,0-0.561,0.281-1.113,0.281c-0.561,0-0.832-0.281-1.107-0.281c-0.836,0-0.836,0.841-1.672,0.841h-0.273
				c0,0-0.277,0.276-0.559,0.276c-0.273,0-0.273-0.276-0.557-0.276h-0.561c-0.547,0-0.826,1.104-1.387,1.104
				c-0.555,0-1.109-0.828-1.109-1.104c-0.555,0-1.111,0-1.111-0.56c-0.273,0-0.273,0-0.273-0.281
				c-0.285,0.281-0.285,0.281-0.285,0.56c-0.273,0-0.551-0.276-0.551-0.56c0.277,0,0.551-0.272,0.551-0.56
				c0-0.832-0.828-0.832-0.828-1.663c-0.277,0-0.277,0-0.277-0.273c0-0.28,0.832-0.28,0.832-0.28c0.273,0,0-1.112,0-1.392
				c0-0.551-0.277-1.104-0.555-1.664c-0.836-1.112-1.391-1.668-1.664-3.336c-0.281-0.555-0.559-1.108-0.559-1.668
				c-1.109-1.108-2.504-2.219-3.336-3.883c0-0.562-0.277-1.113-0.277-1.397c0-0.272-0.281-0.272-0.281-0.552v-1.112
				c-0.551-0.277,0-1.388-0.277-2.22c-0.273-0.56-0.555-1.112-0.555-1.944v-0.56V189.1c0-0.56-0.836-1.392-0.555-1.664
				c-1.109-0.56-3.332-6.113-3.332-6.113c-0.277-0.272-1.945-2.228-2.227-3.06v-3.055c0,0.276,0,0.276,0.281,0.276
				c0-0.276-0.281-1.387-0.281-1.664c0-0.559,0.836-0.84,0.836-2.78c0.277-0.56,0.832-2.228,0.555-2.5
				c0-0.56,1.109-1.672,1.668-2.224c0.277-0.28,1.109-1.112,1.109-2.5c0.281-1.392,0.559-1.392-0.832-3.336
				c-0.277-0.56-0.555-1.664-0.555-2.224h-0.281c0.281-0.28,0.559-0.555,0.559-1.112c0-0.832-0.277-1.104-0.559-1.945
				c0-0.551-0.273-0.831-0.273-1.663c-0.277-0.273-0.559-0.273-0.559-0.56c-0.555-0.272-0.555-1.108-0.832-1.664
				c0-0.281-0.277-0.556-0.277-0.836c0-0.277-0.836-1.668-0.836-2.777c-0.273,0-0.832-0.836-1.109-0.836
				c-0.555-0.832-1.391-1.387-1.668-2.219c-0.555,0-1.664-1.392-1.664-1.949c-0.277,0-0.559,0-0.559-0.276
				c0,0-0.555-1.108-0.555-1.392c-0.555,0-0.832-1.938-0.832-1.938c0.277,0.277,0.277,0,0.555,0c0-0.28,0.277-0.28,0.277-0.56
				c0.277-0.28,0.277-1.112,0.277-1.387h0.836c-0.277,0-1.113-0.281-1.113-0.84l0.277-0.273c0.277,0,0.277,0.273,0.277,0.273
				c0.281,0,0.281-1.104,0.281-1.391h-0.559c0.836-0.551,1.109-2.777,1.109-2.777c-0.273-0.273,0.281-1.387,0.281-1.66
				c-0.555,0-0.555-1.949-0.555-2.223h-0.559c0,0.273,0,0.547-0.277,0.547l-0.277-0.547c-0.832,0-0.555-1.117-1.113-1.117
				c0,0-0.551-0.27-0.551-0.555h-0.281c0,0.84-0.836,0.84-1.387,0.84l-1.109-0.285c-0.281,0-0.281,0.285-0.559,0.285h-1.668v0.273
				c-0.559,0-1.391-1.113-1.391-1.672l-0.277-0.555c0.277,0,0.277-0.277,0.559-0.277c-0.832-0.273-0.832-0.273-0.832-0.828
				c-0.285-0.277-0.559-0.277-0.559-0.559c-1.109-1.664-4.723-1.113-4.723-1.113h-1.117c-0.273,0.555-1.109,0.555-1.668,0.555
				c-0.828,0-0.828,0.84-1.387,0.84h-0.555c-1.109,0.277-1.668,0.832-2.777,1.105c-0.559,0-0.836,0-1.391,0.277
				c-0.555,0.281-0.836,0.555-1.387,0.836c-3.336-1.941-8.613-1.113-11.949,0.562c-1.109-0.285-2.219-1.117-3.051-1.676
				c-0.559-0.555-0.836-0.828-1.395-1.387c-0.273-0.277-1.391-1.949-1.941-1.391c-0.285-0.273-0.559-0.559-0.836-1.109
				c-0.281,0-0.281-0.555-0.559-0.836c0,0-0.555,0-0.555-0.277c-0.555-0.277-0.832-0.555-1.387-0.836
				c-0.277,0-0.277-0.551-0.559-0.551c0-0.559-0.555-1.113-0.555-1.391c-0.277,0-0.555-0.555-0.555-0.836v-0.832
				c0-0.555-0.277-0.836-0.277-1.387c-0.832,0-0.559-0.559-0.832-1.117c0-0.273-0.281-0.273-0.281-0.551h-0.555
				c-0.281,0-0.832-1.391-0.832-1.668c-0.281-1.109-0.281,0-0.281,0c-0.555,0.277-0.555-0.551-0.555-0.551
				c-0.277-0.84-1.109-0.559-1.109-0.559c0-0.281,0.277-0.281,0.277-0.836V108.8c-0.559,0-1.391-0.273-1.391-0.836v-0.277
				c0-0.273-0.832-0.832-0.832-0.832c0-0.277,0.277-0.832,0.277-1.387c0,0-0.277,0-0.277-0.285l0.277-0.273v-0.555
				c0-0.277,0.277-0.555,0.277-1.109c0-0.832-0.555-1.945-1.391-1.672c-0.277,0,0.836-0.559,0.836-0.832
				c2.223-2.223,0.555-1.664,1.945-4.168c0.277-0.27,0.277-0.555,0.555-0.828c0.555-0.559,0.555-1.949,0.832-2.508v-1.387
				c-0.277,0-0.277-0.281-0.277-0.559c0-0.273-0.277-0.273-0.277-0.555c0-0.277,0.277-1.105,0.555-1.105
				c0-0.559,0.277-0.559,0.277-1.117c0-0.273-0.277-1.105-0.555-1.105v0.273c-0.277,0,0-1.109-0.555-1.109
				c-0.277,0-0.277,0.277-0.555,0.551v-0.551c0-0.559,0.832-2.227,1.109-2.5c0.277-0.281,0.836-0.559,0.836-0.836
				c0.277-0.832,0.832-1.391,1.109-1.945c0.277-0.277,0.277-0.555,0.277-0.832l1.113-0.832c0.555-0.285,1.387-0.828,1.668-1.391
				c0.277-0.836,0.277-1.387,0.551-2.223c0.281-0.277,0.281-0.836,0.559-0.836c0.277-0.555,0.836-0.555,1.387-0.832
				c0.559,0,0.559-0.551,0.832-0.551c0.836-0.84,0.836-2.504,2.227-2.504l1.945-0.281c0.832-0.832,1.668-1.387,2.5-1.945
				c0.836-0.551,1.945-1.664,2.227-2.781c0,0-0.281-0.273-0.281-0.547c0-0.285,0-0.285,0.281-0.285v-1.109
				c0.551-1.109,1.109-1.391,1.387-2.219c0.832-0.551,1.391-1.949,2.223-2.227c1.109-0.273,1.945-0.273,2.777-0.832
				c0.559-0.277,1.391-1.391,1.391-1.945l0.277-0.281c0.277-0.277,0.832-1.938,0.832-1.938h1.113c0,0.273,0.273,1.109,0.555,1.109
				c0,0.277,0.555,0.828,1.109,0.828c0.277,0,0.559-0.277,0.559-0.277l1.109,0.277c0.559,0,0.559-0.277,0.836-0.277
				c0,0.277,0,0.559,0.273,0.559c2.227,0.281,3.059-0.832,3.059-0.832c0.555-0.277,0.836-0.277,1.113-0.277
				c0.273,0,0.273-0.281,0.273-0.281c0.836,0.559,1.117-0.555,1.117-0.555c0.832-0.273,1.109-0.555,2.219-0.555
				c0.281,0,1.668-0.559,1.945-0.277c0.832,0.559,1.117-0.555,1.391-0.555c0,0,0.559,0.273,0.836,0.273l0.832-0.273
				c0.559,0.273,0.836,0.273,1.109,0.273c1.117,0,0.836,0.559,0.836,0.559c0.832,0,1.113-0.559,1.668-0.559
				c0.555,0,0.555-0.273,0.832-0.273c0.559,0,0.277,0.273,1.109,0.273c0.559,0,0.281,0,0.281-0.273
				c1.109,0.273,1.109,0.832,1.668,0.555c0.277-0.281,0.277-0.281,0.832-0.281c0.555,0,0.836-0.551,1.664-0.551
				c1.113,0,1.113,0.551,1.668,1.109c0.555-0.277,0.555-0.559,1.113-0.832v0.555c0,0.559-1.113,1.109-1.113,1.668
				c0,0.828,0.281,1.109,0.832,1.109c0,0.281,0.281,0.84,0.281,0.84c0,1.664-2.781,1.664-2.223,2.77
				c0.832,1.395,1.664,0.559,1.941,0.559c0,1.113,2.227,2.219,3.059,2.219c0.559,0,0.559-0.273,1.109-0.273l0.281,0.273
				c0.555,0.281,0.828,0,1.109,0.281c0.555,0,1.109,0.555,2.223,0.555c0,2.227,1.391,2.227,2.781,2.781
				c1.109,0.277,1.664,0.277,2.223,0.555c1.105,0.555,1.105,1.387,2.5,1.387c0.832,0,1.108-0.551,1.668-1.387
				s-0.56-1.109-0.56-1.941c0-0.285,0.836-1.113,0.836-1.395c0.828-0.836,2.5-1.109,4.168-1.109s0.828,1.109,1.94,1.664
				c1.117,0.555,3.337,0,3.337,1.113c0,0.273,0.276,0.273,0.559,0.273c0.272,0,0.548-0.547,1.104-0.547
				c0.281,0,1.945,0.273,2.228,0.547c1.945,1.117,3.056,0.285,3.613,1.117C174.529,67.133,175.084,66.578,175.639,66.02"/>
		</g>
	</g>
	<g>
		<g>
			<defs>
				<rect id="SVGID_37_" x="15.881" width="274.238" height="273.793"/>
			</defs>
			<clipPath id="SVGID_38_">
				<use xlink:href="#SVGID_37_"  overflow="visible"/>
			</clipPath>
			<path clip-path="url(#SVGID_38_)" fill="#AEAEAE" d="M202.869,170.77c0.559,0,0.832-0.275,0.832-0.832
				c0-0.559-0.273-0.836-0.832-0.836c-0.273,0-0.832,0.277-0.832,0.836C202.037,170.492,202.596,170.77,202.869,170.77"/>
		</g>
	</g>
	<g>
		<g>
			<defs>
				<rect id="SVGID_39_" x="15.881" width="274.238" height="273.793"/>
			</defs>
			<clipPath id="SVGID_40_">
				<use xlink:href="#SVGID_39_"  overflow="visible"/>
			</clipPath>
			<polygon clip-path="url(#SVGID_40_)" fill="#AEAEAE" points="202.592,170.492 202.592,169.934 202.314,169.66 202.865,169.66 
				202.865,169.379 203.146,169.66 203.424,169.66 203.146,169.934 203.424,170.492 202.865,170.211 			"/>
		</g>
	</g>
	<g>
		<g>
			<defs>
				<rect id="SVGID_41_" x="15.881" width="274.238" height="273.793"/>
			</defs>
			<clipPath id="SVGID_42_">
				<use xlink:href="#SVGID_41_"  overflow="visible"/>
			</clipPath>
			<path clip-path="url(#SVGID_42_)" fill="#AEAEAE" d="M41.44,193.273c0,0-22.781-24.725-25.559-28.893
				c0,0,4.445,22.777,9.727,32.504c-0.559,0.561,17.5,34.73,33.895,46.402c1.668,1.387,2.777,3.051,4.445,4.443
				c11.113,9.168,23.34,17.229,37.23,22.225v-38.893c-0.555,0,0-0.279-0.555-0.562c-2.777-0.556-5.836-2.772-8.891-4.44
				c-3.609-1.94-6.668-4.444-8.891-6.668c0,0-5.836-4.724-12.227-11.668c-3.613-4.168-7.777-9.449-10.836-14.453
				c0,0-8.891-16.94-10.836-21.112L41.44,193.273z"/>
		</g>
	</g>
	<g>
		<g>
			<defs>
				<rect id="SVGID_43_" x="15.881" width="274.238" height="273.793"/>
			</defs>
			<clipPath id="SVGID_44_">
				<use xlink:href="#SVGID_43_"  overflow="visible"/>
			</clipPath>
			<path clip-path="url(#SVGID_44_)" fill="#AEAEAE" d="M264.826,193.273c0,0,22.508-24.725,25.293-28.893
				c0,0-4.449,22.777-9.73,32.504c0.555,0.561-17.227,34.73-33.621,46.402c-1.668,1.387-2.773,3.051-4.445,4.443
				c-11.111,9.168-23.34,17.229-37.232,22.225v-38.893c0.561,0,0-0.279,0.561-0.562c2.779-0.556,5.84-2.772,8.891-4.44
				c3.617-1.94,6.668-4.444,8.891-6.668c0,0,5.836-4.724,12.227-11.668c3.613-4.168,7.781-9.449,10.836-14.453
				c0,0,8.893-16.94,10.838-21.112L264.826,193.273z"/>
		</g>
	</g>
	<g>
		<g>
			<defs>
				<rect id="SVGID_45_" x="15.881" width="274.238" height="273.793"/>
			</defs>
			<clipPath id="SVGID_46_">
				<use xlink:href="#SVGID_45_"  overflow="visible"/>
			</clipPath>
			<path clip-path="url(#SVGID_46_)" fill="none" stroke="#AEAEAE" stroke-width="1.9295" stroke-miterlimit="10" d="
				M152.858,245.789c61.125,0,110.863-52.234,110.863-116.141c0-63.902-49.738-116.142-110.863-116.142
				c-60.848,0-110.582,52.238-110.582,116.142C42.276,193.555,92.01,245.789,152.858,245.789z"/>
		</g>
	</g>
	<g>
		<g>
			<defs>
				<rect id="SVGID_47_" x="15.881" width="274.238" height="273.793"/>
			</defs>
			<clipPath id="SVGID_48_">
				<use xlink:href="#SVGID_47_"  overflow="visible"/>
			</clipPath>
			<path clip-path="url(#SVGID_48_)" fill="none" stroke="#E0E1E2" stroke-width="1.9295" stroke-linecap="round" d="
				M47.443,176.379c10.75,25.488,29.988,46.23,53.91,58.203c14.355,7.18,30.387,11.203,47.285,11.203"/>
		</g>
	</g>
	<g>
		<g>
			<defs>
				<rect id="SVGID_49_" x="15.881" width="274.238" height="273.793"/>
			</defs>
			<clipPath id="SVGID_50_">
				<use xlink:href="#SVGID_49_"  overflow="visible"/>
			</clipPath>
			<path clip-path="url(#SVGID_50_)" fill="none" stroke="#E0E1E2" stroke-width="1.9295" stroke-linecap="round" d="
				M257.463,176.379c-10.754,25.488-29.992,46.234-53.918,58.203c-14.348,7.18-30.383,11.203-47.281,11.203"/>
		</g>
	</g>
	<g>
		<g>
			<defs>
				<rect id="SVGID_51_" x="15.881" width="274.238" height="273.793"/>
			</defs>
			<clipPath id="SVGID_52_">
				<use xlink:href="#SVGID_51_"  overflow="visible"/>
			</clipPath>
			<rect x="101.736" y="234.395" clip-path="url(#SVGID_52_)" fill="#AEAEAE" width="102.805" height="31.676"/>
		</g>
	</g>
	<g>
		<g>
			<defs>
				<rect id="SVGID_53_" x="15.881" width="274.238" height="273.793"/>
			</defs>
			<clipPath id="SVGID_54_">
				<use xlink:href="#SVGID_53_"  overflow="visible"/>
			</clipPath>
			
				<rect x="101.733" y="234.395" clip-path="url(#SVGID_54_)" fill="none" stroke="#E0E1E2" stroke-width="1.9295" width="102.8" height="31.676"/>
		</g>
	</g>
	<g>
		<g>
			<defs>
				<rect id="SVGID_55_" x="15.881" width="274.238" height="273.793"/>
			</defs>
			<clipPath id="SVGID_56_">
				<use xlink:href="#SVGID_55_"  overflow="visible"/>
			</clipPath>
			<path clip-path="url(#SVGID_56_)" fill="none" stroke="#E0E1E2" stroke-width="1.9295" d="M118.404,242.176
				c4.719,0,8.336,3.891,8.336,8.895c0,4.721-3.617,8.609-8.336,8.609c-4.445,0-8.336-3.891-8.336-8.609
				C110.069,246.066,113.959,242.176,118.404,242.176z"/>
		</g>
	</g>
	<g>
		<g>
			<defs>
				<rect id="SVGID_57_" x="15.881" width="274.238" height="273.793"/>
			</defs>
			<clipPath id="SVGID_58_">
				<use xlink:href="#SVGID_57_"  overflow="visible"/>
			</clipPath>
			<path clip-path="url(#SVGID_58_)" fill="none" stroke="#E0E1E2" stroke-width="1.9295" d="M130.354,242.176
				c4.719,0,8.336,3.891,8.336,8.895c0,4.721-3.617,8.609-8.336,8.609c-4.445,0-8.059-3.891-8.059-8.609
				C122.295,246.066,125.908,242.176,130.354,242.176z"/>
		</g>
	</g>
	<g>
		<g>
			<defs>
				<rect id="SVGID_59_" x="15.881" width="274.238" height="273.793"/>
			</defs>
			<clipPath id="SVGID_60_">
				<use xlink:href="#SVGID_59_"  overflow="visible"/>
			</clipPath>
			<path clip-path="url(#SVGID_60_)" fill="none" stroke="#E0E1E2" stroke-width="1.9295" d="M142.576,242.176
				c4.445,0,8.059,3.891,8.059,8.895c0,4.721-3.613,8.609-8.059,8.609c-4.719,0-8.336-3.891-8.336-8.609
				C134.24,246.066,137.858,242.176,142.576,242.176z"/>
		</g>
	</g>
	<g>
		<g>
			<defs>
				<rect id="SVGID_61_" x="15.881" width="274.238" height="273.793"/>
			</defs>
			<clipPath id="SVGID_62_">
				<use xlink:href="#SVGID_61_"  overflow="visible"/>
			</clipPath>
			<path clip-path="url(#SVGID_62_)" fill="none" stroke="#E0E1E2" stroke-width="1.9295" d="M166.471,242.176
				c4.449,0,8.34,3.891,8.34,8.895c0,4.721-3.891,8.609-8.34,8.609c-4.445,0-8.336-3.891-8.336-8.609
				C158.135,246.066,162.025,242.176,166.471,242.176z"/>
		</g>
	</g>
	<g>
		<g>
			<defs>
				<rect id="SVGID_63_" x="15.881" width="274.238" height="273.793"/>
			</defs>
			<clipPath id="SVGID_64_">
				<use xlink:href="#SVGID_63_"  overflow="visible"/>
			</clipPath>
			<path clip-path="url(#SVGID_64_)" fill="none" stroke="#E0E1E2" stroke-width="1.9295" d="M178.42,242.176
				c4.719,0,8.336,3.891,8.336,8.895c0,4.721-3.617,8.609-8.336,8.609c-4.449,0-8.059-3.891-8.059-8.609
				C170.361,246.066,173.971,242.176,178.42,242.176z"/>
		</g>
	</g>
	<g>
		<g>
			<defs>
				<rect id="SVGID_65_" x="15.881" width="274.238" height="273.793"/>
			</defs>
			<clipPath id="SVGID_66_">
				<use xlink:href="#SVGID_65_"  overflow="visible"/>
			</clipPath>
			<path clip-path="url(#SVGID_66_)" fill="none" stroke="#E0E1E2" stroke-width="1.9295" d="M190.369,242.176
				c4.715,0,8.336,3.891,8.336,8.895c0,4.721-3.621,8.609-8.336,8.609c-4.449,0-8.059-3.891-8.059-8.609
				C182.311,246.066,185.92,242.176,190.369,242.176z"/>
		</g>
	</g>
	<g>
		<g>
			<defs>
				<rect id="SVGID_67_" x="15.881" width="274.238" height="273.793"/>
			</defs>
			<clipPath id="SVGID_68_">
				<use xlink:href="#SVGID_67_"  overflow="visible"/>
			</clipPath>
			<path clip-path="url(#SVGID_68_)" fill="none" stroke="#E0E1E2" stroke-width="1.9295" d="M154.525,242.176
				c4.441,0,8.061,3.891,8.061,8.895c0,4.721-3.617,8.609-8.061,8.609c-4.723,0-8.338-3.891-8.338-8.609
				C146.186,246.066,149.803,242.176,154.525,242.176z"/>
		</g>
	</g>
</g>
</svg>
