<?xml version="1.0" encoding="utf-8"?>
<!-- Generator: Adobe Illustrator 16.0.0, SVG Export Plug-In . SVG Version: 6.00 Build 0)  -->
<!DOCTYPE svg PUBLIC "-//W3C//DTD SVG 1.1//EN" "http://www.w3.org/Graphics/SVG/1.1/DTD/svg11.dtd">
<svg version="1.1" id="Layer_1" xmlns="http://www.w3.org/2000/svg" xmlns:xlink="http://www.w3.org/1999/xlink" x="0px" y="0px"
	 width="215px" height="215px" viewBox="0 0 215 215" enable-background="new 0 0 215 215" xml:space="preserve">
<rect x="27.998" y="28" fill="none" width="158.334" height="158.344"/>
<path fill="#5894C8" d="M100.79,88.155c0-5.424,6.334-12.21,6.445-12.21c0.085,0,6.365,6.788,6.365,12.21
	c0,5.871-4.604,7.278-6.141,7.278l-0.277-0.015l-0.251,0.015C105.366,95.433,100.79,94.026,100.79,88.155 M47.254,111.58h7.232
	V98.226h12.112v-5.579H54.486v-7.408h12.53V79.66H47.254V111.58 M113.738,76.911h7.59l-8.818-31.914h-9.742l-9.152,31.914h7.033
	l2.038-7.135h9.24L113.738,76.911 M110.585,64.384h-6.642l3.099-13.89h0.502L110.585,64.384 M143.688,94.819
	c0,9.378,4.354,16.51,13.535,16.51c9.211,0,13.592-7.131,13.592-16.51c0-9.371-4.385-16.509-13.592-16.509
	C148.041,78.311,143.688,85.449,143.688,94.819 M151.393,94.819c0-6.127,1.506-11.11,5.832-11.11c4.354,0,5.916,4.982,5.916,11.11
	c0,6.124-1.562,11.118-5.916,11.118C152.898,105.937,151.393,100.943,151.393,94.819 M186.335,107.172
	c0,43.656-35.503,79.172-79.153,79.172c-43.655,0-79.184-35.516-79.184-79.172C27.998,63.516,63.527,28,107.182,28
	C150.832,28,186.335,63.516,186.335,107.172 M108.129,139.146c1.926-8.703,9.77-5.282,14.041-15.527
	c0.027-0.085,24.363-57.832,29.811-70.738c-1.508-1.25-3.069-2.422-4.664-3.544l-24.672,60.552c0,9.076-4.215,19.293-15.434,21.902
	v0.003h-0.028v-0.003c-11.195-2.607-15.408-12.826-15.408-21.902L67.074,49.31c-1.591,1.12-3.155,2.303-4.663,3.545
	c5.417,12.857,29.782,70.68,29.809,70.765c4.328,10.383,12.14,6.946,14.04,15.528c0.475,2.068,0.502,2.972,0.502,2.972h0.866
	C107.627,142.117,107.655,141.216,108.129,139.146 M95.512,94.091l-21.63-48.965c-1.756,0.94-3.46,1.965-5.107,3.042
	c6.476,14.544,26.237,58.937,26.267,58.992c3.124,6.585,8.621,6.718,10.521,10.642c1.114,2.328,1.226,4.418,1.255,4.579l0.753,0.01
	c0.141-0.568,0.277-2.574,1.285-4.589c1.896-3.924,7.396-4.057,10.492-10.642c0.029-0.055,19.764-44.396,26.266-58.965
	c-1.674-1.088-3.379-2.104-5.106-3.05l-21.63,48.947c0.359,4.602,0.139,5.246-0.168,7.557c-0.783,6.08-6.701,10.807-11.446,11.862
	h-0.139c-4.745-1.056-10.66-5.782-11.441-11.862C95.373,99.335,95.18,98.692,95.512,94.091 M107.182,36.749
	c-11.303,0-21.965,2.671-31.429,7.411c6.392,13.707,21.688,46.535,21.799,46.764l0.053,0.091c3.099,6.085,7.593,5.314,8.989,11.506
	l0.224,2.676h0.587l0.39-2.676c1.367-6.192,5.859-5.421,8.989-11.506l0.053-0.091c0.11-0.229,15.405-33.029,21.771-46.748
	C129.146,39.426,118.484,36.749,107.182,36.749 M103.804,177.511c0.42-3.094,0.837-8.041,0.837-13.854v-0.98
	c0-8.171-0.307-10.93-5.751-12.739c-8.428-2.795-11.889-12.201-10.017-23.904l-28.219-71.69C46,67.256,36.76,86.154,36.76,107.172
	C36.76,144.877,66.544,175.746,103.804,177.511 M177.598,107.172c0-21.007-9.236-39.893-23.891-52.804l-28.189,71.664
	c1.869,11.676-1.312,20.983-10.021,23.905c-5.388,1.811-5.747,4.343-5.747,12.739v0.979c0,5.807,0.416,10.76,0.837,13.85
	C147.846,175.723,177.598,144.857,177.598,107.172 M59.036,128.021c0,0,1.061,2.207,1.897,3.779
	c0.837,1.578,2.012,3.463,2.012,3.463l-1.873,1.084c0,0-1.423-2.344-2.707-5.064c-0.362,0.18-2.595,1.342-2.958,1.523
	c0.221,0.396,2.51,4.791,2.51,4.791l-1.896,1.084c0,0-2.318-4.481-2.513-4.879c-0.417,0.205-5.217,2.684-5.217,2.684l-1.117-2.284
	l11.749-6.122L59.036,128.021 M66.207,139.717l1.649,1.973l-10.301,8.599l-1.673-1.97l10.213-8.522L66.207,139.717 M75.948,149.041
	l2.039,1.443l-2.626,14.188l-2.316-1.34c0,0,0.586-2.889,0.613-3.17c-0.109-0.084-1.45-0.908-2.762-1.834
	c-1.34-0.961-2.652-2.027-2.79-2.115l-2.82,1.676l-1.983-1.703l12.505-7.064L75.948,149.041 M70.032,155.059
	c0.221,0.202,1.116,0.905,2.01,1.553c0.89,0.643,1.839,1.246,2.092,1.375c0.14-0.603,1.088-5.258,1.254-6.119
	C74.637,152.316,70.562,154.743,70.032,155.059 M84.433,154.255c0,0,2.178,1.082,5.275,2.146c2.093,0.715,3.881,1.283,5.639,1.675
	l-0.613,2.043c0,0-1.674-0.296-4.383-1.129c-0.167,0.446-3.712,10.555-3.712,10.555l-2.43-0.847c0,0,3.547-10.117,3.713-10.553
	c-2.567-0.953-4.298-1.894-4.298-1.894L84.433,154.255 M126.8,156.959c0.868,0.46,1.509,1.284,1.847,2.441
	c0.166,0.49,0.248,0.961,0.248,1.408c0,1.871-1.312,3.351-3.683,4.096c0,0-1.202,0.365-1.535,0.473
	c0.14,0.43,1.535,4.967,1.535,4.967l-2.346,0.609l-3.989-12.909l3.544-1.106C124.232,156.376,125.688,156.389,126.8,156.959
	 M121.805,159.391c0.11,0.396,1.09,3.537,1.229,3.937c0.474-0.156,1.562-0.488,1.562-0.488c0.334-0.108,1.174-0.438,1.59-1.2
	c0.14-0.263,0.197-0.537,0.197-0.828l-0.111-0.681c-0.14-0.469-0.446-0.817-0.865-1.039c-0.725-0.384-1.676-0.3-2.289-0.11
	C123.117,158.979,122.141,159.283,121.805,159.391 M134.783,151.327l11.611,8.516l-2.065,1.455l-2.567-1.952
	c-0.139,0.082-1.338,0.926-2.595,1.699c-1.229,0.729-2.569,1.391-2.681,1.461c0.027,0.297,0.476,3.146,0.476,3.146l-2.179,1.062
	l-1.951-14.256L134.783,151.327 M136.125,160.348c0.332-0.164,1.254-0.662,2.146-1.193c0.811-0.483,1.426-0.887,1.758-1.148
	c-0.475-0.354-4.102-3.109-4.854-3.688C135.314,155.255,136.014,159.764,136.125,160.348 M148.07,139.594l10.13,9.045l-1.841,2.139
	c0,0-9.489-2.782-10.939-3.162c1.086,1.018,6.979,7.236,6.979,7.236l-1.789,1.604l-9.547-9.692l2.234-2.013
	c0,0,9.18,2.733,10.635,3.114c-1.091-1.018-7.397-6.453-7.397-6.453L148.07,139.594 M152.702,132.842l11.723,6.817l-1.172,2.058
	l-11.808-6.828L152.702,132.842 M157.782,121.583l2.011,1.043l-0.197,0.235c-0.668,0.793-0.945,1.205-1.253,2.098
	c-0.141,0.407-0.337,1.191-0.058,1.787c0.169,0.307,0.445,0.529,0.811,0.661c0.922,0.302,1.678-0.479,2.569-1.392
	c1.229-1.25,2.762-2.812,5.248-1.965c2.509,0.848,3.373,3.094,2.342,6.152c-0.308,0.926-0.892,1.723-1.423,2.461l-0.139,0.15
	l-2.063-0.961l0.192-0.244c0.279-0.295,1.119-1.318,1.451-2.312c0.309-0.904,0.281-2.398-1.059-2.85
	c-1.117-0.389-1.955,0.478-2.934,1.484c-1.198,1.25-2.57,2.66-4.801,1.892c-1.004-0.334-1.729-0.96-2.148-1.8
	c-0.503-1.019-0.53-2.321-0.055-3.691c0.308-0.916,0.81-1.864,1.396-2.59L157.782,121.583z"/>
</svg>
