<?xml version="1.0" encoding="utf-8"?>
<!-- Generator: Adobe Illustrator 16.0.0, SVG Export Plug-In . SVG Version: 6.00 Build 0)  -->
<!DOCTYPE svg PUBLIC "-//W3C//DTD SVG 1.1//EN" "http://www.w3.org/Graphics/SVG/1.1/DTD/svg11.dtd">
<svg version="1.1" id="Layer_1" xmlns="http://www.w3.org/2000/svg" xmlns:xlink="http://www.w3.org/1999/xlink" x="0px" y="0px"
	 width="215px" height="215px" viewBox="0 0 215 215" enable-background="new 0 0 215 215" xml:space="preserve">
<g>
	<g>
		<defs>
			<rect id="SVGID_1_" width="214.33" height="214.344"/>
		</defs>
		<clipPath id="SVGID_2_">
			<use xlink:href="#SVGID_1_"  overflow="visible"/>
		</clipPath>
		<path clip-path="url(#SVGID_2_)" fill="#C8C8C8" d="M98.535,81.43c0-7.342,8.574-16.529,8.725-16.529
			c0.115,0,8.615,9.188,8.615,16.529c0,7.947-6.23,9.852-8.312,9.852l-0.375-0.02l-0.34,0.02
			C104.73,91.281,98.535,89.377,98.535,81.43 M26.066,113.139h9.789V95.062h16.396V87.51H35.855V77.482h16.961V69.93h-26.75V113.139
			 M116.064,66.209h10.274l-11.937-43.201h-13.188L88.824,66.209h9.521l2.758-9.658h12.508L116.064,66.209 M111.795,49.252h-8.992
			l4.195-18.803h0.68L111.795,49.252 M156.605,90.451c0,12.695,5.893,22.348,18.321,22.348c12.468,0,18.4-9.652,18.4-22.348
			c0-12.686-5.935-22.348-18.4-22.348C162.498,68.104,156.605,77.766,156.605,90.451 M167.033,90.451
			c0-8.295,2.039-15.039,7.895-15.039c5.893,0,8.01,6.744,8.01,15.039c0,8.289-2.117,15.049-8.01,15.049
			C169.072,105.5,167.033,98.74,167.033,90.451 M214.334,107.172c0,59.096-48.059,107.172-107.146,107.172
			C48.094,214.344,0,166.268,0,107.172S48.094,0,107.188,0C166.275,0,214.334,48.076,214.334,107.172 M108.471,150.455
			c2.605-11.781,13.225-7.15,19.006-21.02c0.037-0.115,32.98-78.284,40.351-95.754c-2.041-1.693-4.154-3.279-6.312-4.797
			l-33.397,81.966c0,12.286-5.707,26.118-20.893,29.649v0.004h-0.037V140.5c-15.154-3.531-20.857-17.363-20.857-29.65L52.895,28.846
			c-2.154,1.516-4.27,3.117-6.311,4.799c7.332,17.404,40.314,95.675,40.35,95.791c5.859,14.054,16.434,9.404,19.006,21.021
			c0.643,2.801,0.68,4.021,0.68,4.021h1.172C107.791,154.477,107.828,153.256,108.471,150.455 M91.391,89.465l-29.28-66.283
			c-2.377,1.273-4.684,2.66-6.914,4.117c8.766,19.688,35.516,79.781,35.557,79.855c4.229,8.915,11.67,9.094,14.242,14.407
			c1.508,3.151,1.66,5.979,1.699,6.198l1.02,0.013c0.191-0.771,0.375-3.486,1.738-6.211c2.566-5.312,10.014-5.492,14.205-14.407
			c0.039-0.074,26.752-60.098,35.553-79.818c-2.266-1.473-4.572-2.848-6.912-4.129L123.02,89.465
			c0.486,6.229,0.185,7.1-0.229,10.229c-1.061,8.23-9.07,14.629-15.494,16.057h-0.188c-6.424-1.428-14.43-7.826-15.488-16.057
			C91.203,96.564,90.941,95.693,91.391,89.465 M107.188,11.844c-15.301,0-29.734,3.615-42.545,10.031
			C73.295,40.43,94,84.867,94.152,85.178l0.072,0.123c4.195,8.238,10.279,7.193,12.168,15.576l0.303,3.623h0.795l0.527-3.623
			c1.852-8.383,7.932-7.338,12.168-15.576l0.073-0.123c0.15-0.311,20.854-44.711,29.47-63.281
			C136.922,15.467,122.488,11.844,107.188,11.844 M102.615,202.387c0.568-4.188,1.133-10.885,1.133-18.752v-1.328
			c0-11.061-0.416-14.795-7.785-17.244c-11.408-3.783-16.094-16.516-13.559-32.36L44.205,35.66
			c-19.836,17.48-32.344,43.061-32.344,71.512C11.861,158.211,52.178,199.998,102.615,202.387 M202.508,107.172
			c0-28.436-12.504-54.002-32.34-71.479l-38.16,97.008c2.529,15.805-1.775,28.406-13.564,32.361
			c-7.291,2.449-7.78,5.877-7.78,17.244v1.327c0,7.859,0.563,14.564,1.133,18.748C162.232,199.965,202.508,158.188,202.508,107.172
			 M42.014,135.395c0,0,1.436,2.988,2.568,5.117c1.133,2.137,2.723,4.687,2.723,4.687l-2.535,1.469c0,0-1.926-3.174-3.664-6.858
			c-0.49,0.243-3.512,1.817-4.004,2.065c0.299,0.535,3.398,6.485,3.398,6.485l-2.566,1.466c0,0-3.137-6.066-3.402-6.603
			c-0.564,0.277-7.062,3.631-7.062,3.631l-1.512-3.092l15.904-8.287L42.014,135.395 M51.721,151.227l2.232,2.67L40.01,165.535
			l-2.266-2.664l13.826-11.539L51.721,151.227 M64.908,163.848l2.76,1.955l-3.555,19.205l-3.135-1.814c0,0,0.793-3.911,0.83-4.291
			c-0.148-0.114-1.963-1.229-3.738-2.483c-1.814-1.301-3.59-2.744-3.777-2.864l-3.818,2.268l-2.684-2.305l16.928-9.564
			L64.908,163.848 M56.9,171.994c0.299,0.273,1.51,1.227,2.721,2.1c1.205,0.871,2.49,1.688,2.832,1.863
			c0.189-0.814,1.473-7.117,1.697-8.283C63.133,168.283,57.617,171.566,56.9,171.994 M76.393,170.906c0,0,2.949,1.465,7.141,2.904
			c2.834,0.967,5.254,1.737,7.633,2.266l-0.83,2.766c0,0-2.266-0.4-5.932-1.527c-0.227,0.605-5.025,14.287-5.025,14.287
			l-3.289-1.147c0,0,4.801-13.695,5.025-14.285c-3.475-1.291-5.818-2.562-5.818-2.562L76.393,170.906 M133.744,174.566
			c1.174,0.623,2.041,1.738,2.498,3.307c0.225,0.664,0.336,1.301,0.336,1.906c0,2.531-1.775,4.535-4.984,5.543
			c0,0-1.627,0.494-2.078,0.641c0.189,0.58,2.078,6.723,2.078,6.723l-3.174,0.824l-5.4-17.475l4.797-1.498
			C130.27,173.777,132.236,173.795,133.744,174.566 M126.982,177.857c0.149,0.535,1.475,4.789,1.664,5.328
			c0.641-0.211,2.112-0.66,2.112-0.66c0.453-0.146,1.591-0.594,2.154-1.627c0.188-0.353,0.267-0.726,0.267-1.119l-0.15-0.922
			c-0.189-0.635-0.605-1.107-1.174-1.406c-0.98-0.52-2.267-0.406-3.097-0.15C128.76,177.301,127.436,177.713,126.982,177.857
			 M144.551,166.943l15.719,11.527l-2.797,1.969l-3.477-2.642c-0.188,0.111-1.811,1.254-3.512,2.3
			c-1.664,0.987-3.476,1.881-3.627,1.979c0.037,0.401,0.643,4.258,0.643,4.258l-2.949,1.438l-2.641-19.297L144.551,166.943
			 M146.367,179.152c0.449-0.221,1.697-0.894,2.906-1.615c1.096-0.654,1.93-1.199,2.381-1.555c-0.643-0.479-5.553-4.209-6.574-4.99
			C145.271,172.26,146.215,178.363,146.367,179.152 M162.539,151.061l13.711,12.242l-2.492,2.896c0,0-12.846-3.768-14.809-4.281
			c1.471,1.377,9.445,9.797,9.445,9.797l-2.422,2.172l-12.921-13.123l3.025-2.723c0,0,12.426,3.701,14.394,4.217
			c-1.476-1.377-10.015-8.736-10.015-8.736L162.539,151.061 M168.807,141.92l15.869,9.229l-1.586,2.785l-15.984-9.242
			L168.807,141.92 M175.684,126.68l2.721,1.412l-0.266,0.318c-0.904,1.072-1.281,1.633-1.697,2.84
			c-0.19,0.551-0.455,1.613-0.078,2.418c0.229,0.416,0.605,0.719,1.097,0.896c1.248,0.408,2.271-0.65,3.478-1.883
			c1.664-1.693,3.739-3.808,7.104-2.66c3.397,1.147,4.567,4.188,3.17,8.328c-0.414,1.254-1.207,2.332-1.926,3.332l-0.188,0.204
			l-2.793-1.301l0.262-0.33c0.377-0.399,1.514-1.785,1.963-3.131c0.418-1.224,0.381-3.248-1.432-3.858
			c-1.513-0.525-2.646,0.647-3.97,2.01c-1.623,1.692-3.478,3.602-6.498,2.561c-1.36-0.453-2.342-1.299-2.91-2.436
			c-0.68-1.379-0.717-3.144-0.073-4.998c0.416-1.24,1.096-2.523,1.889-3.506L175.684,126.68z"/>
	</g>
</g>
</svg>
