<?xml version="1.0" encoding="utf-8"?>
<!-- Generator: Adobe Illustrator 16.0.0, SVG Export Plug-In . SVG Version: 6.00 Build 0)  -->
<!DOCTYPE svg PUBLIC "-//W3C//DTD SVG 1.1//EN" "http://www.w3.org/Graphics/SVG/1.1/DTD/svg11.dtd">
<svg version="1.1" id="Layer_1" xmlns="http://www.w3.org/2000/svg" xmlns:xlink="http://www.w3.org/1999/xlink" x="0px" y="0px"
	 width="561px" height="206px" viewBox="0 0 561 206" enable-background="new 0 0 561 206" xml:space="preserve">
<g>
	<path id="blue_world_circle_2_" fill="#1199D6" d="M93.793,186.343c23.027,0,44.332-9.691,59.366-24.709
		c15.26-14.535,24.692-36.093,24.692-59.105c0-23.011-9.433-44.331-24.692-59.596C137.89,27.677,116.82,18.229,93.793,18.229
		c-22.766,0-43.839,9.448-59.092,24.704C19.692,58.198,9.992,79.518,9.992,102.529c0,23.012,9.437,44.57,24.709,59.105
		C49.711,176.651,71.028,186.343,93.793,186.343L93.793,186.343z"/>
	<path id="world_circle_outline_2_" fill="#231F20" d="M93.793,186.667c-21.926,0-43.562-9.047-59.322-24.809
		c-15.755-15.013-24.811-36.64-24.811-59.33c0-21.998,9.036-43.794,24.811-59.819c15.762-15.76,37.396-24.796,59.322-24.796
		c22.426,0,43.59,8.807,59.591,24.796c15.751,15.761,24.789,37.56,24.789,59.819c0,22.698-9.049,44.317-24.802,59.339
		C137.615,177.62,115.902,186.667,93.793,186.667L93.793,186.667z M93.793,18.542c-21.752,0-43.217,8.976-58.879,24.617
		C19.277,59.057,10.31,80.7,10.31,102.529c0,22.518,8.967,43.98,24.604,58.879c15.662,15.645,37.114,24.622,58.878,24.622
		c21.936,0,43.486-8.978,59.127-24.622c15.651-14.899,24.632-36.361,24.632-58.879c0-22.09-8.982-43.731-24.632-59.372
		C137.06,27.285,116.052,18.542,93.793,18.542L93.793,18.542z"/>
	<path fill="#55A88D" d="M169.135,139.347l5.574-15.018c-1.933-1.694-1.45-0.968-3.389-4.354
		c-3.147-9.451-15.257-10.91-15.98-17.932c0.723-5.811,3.132-12.107,1.203-16.235c-0.479,0-1.203-0.473-1.692-0.718
		c-2.662,0-2.662,5.086-6.539,5.321c-3.395,4.843-7.262,1.94-10.423,1.94c-0.479-0.236-0.479-1.215-0.479-2.175
		c0-2.19,3.867,1.446,7.508-0.978c0-1.213,0.236-2.408,1.69-3.147c3.391-2.174,4.377-3.387,2.192-5.812
		c-4.374-0.965-7.286,5.568-11.39,5.333c-1.946,0-2.192-3.881-2.435-3.881c-1.44-7.993,14.294-9.932,13.824-13.562
		c-3.403-2.423-7.286-8.721-5.568-12.111c-1.228-1.211-5.342-9.924-5.108-12.357c1.714-1.697,4.374-1.447,5.814-2.661
		c2.184-0.729,2.67-0.729,5.092-1.942l-5.092-3.872c0,0,0,0-0.236,0c-4.6,2.908-11.626,4.602-15.022,0.722
		c0-1.688,1.703-1.688,4.365-3.148c1.931,0.496,3.386,1.696,4.601-1.691c-2.181-2.417-5.319-3.394-8.231-5.097
		c-2.906,1.944-3.15,1.703-6.783,2.428c-2.428,0.969-2.18,2.668-4.854,4.359c-1.205,0-2.417,0-3.371,0
		c-3.165-0.962-3.647-3.391-5.828-5.811c-5.082-4.356-7.514-2.176-12.598-0.495c-0.242,0.248-0.478,0.495-0.713,0.495
		c0,0.479-1.702,5.076-3.405,5.076c-1.438,0.247-7.267-0.475-7.507-3.145c-0.976-0.722-1.929-1.204-3.154-1.688
		c-0.728,0-2.171-0.244-2.9,1.688c0,0.49,0,1.22,0,1.695c0.729,1.696,0.729,0.495,2.172,2.68c0,1.932,0.241,2.17-0.477,4.107
		c-1.943,0.732-0.967,0.732-3.639,1.214c-3.15,0.481-5.331-0.73-7.254,0.244c-1.464,0.238-4.372,0.488-4.856-1.212
		c0-2.421,0.978-5.093,0.484-7.508c-0.962,0-1.21-1.22-2.664,0.722c-0.727,0.728-0.727,2.433-0.727,3.881c0,0.237,0,1.205,0,1.452
		c-0.484,0.717-1.452,1.692-1.452,2.172c-2.179,3.15-4.857,3.636-6.785,6.066c-1.939,2.42,4.355,0.719,6.056,0.719
		c2.906,0,3.896-1.698,6.782-2.418c1.938-0.73,3.887-0.73,5.817-0.73c0.242-0.242,1.69,0,1.69,0
		c1.215,0.969,0.483,2.183,1.215,3.883c0.487,0.967,4.838,3.394,4.362,3.146c0.475,0,1.443,0.49,1.443,0.49
		c1.213,0.476,2.669,0.23,3.882,0.23c2.428,0.486,0,1.706,4.37,3.387c2.656,1.22,3.373,0.984,5.317,2.672
		c0.492,0.481,0.978,1.214,1.46,1.94c0.478,0.237,1.197,0.974,1.197,1.208c0.497,1.937,0.497,2.423,2.428,2.186
		c1.938-0.249,3.156-0.488,5.57-0.249c-0.962,5.094-1.923,0.249-6.53,6.542c1.458,2.908,1.195,2.186,2.67,4.129
		c0,0.722-1.212,1.683-1.476,2.652c-0.961,2.423-1.195,3.399,0.263,5.578c0.486,0.479,1.212,1.202,1.44,1.691
		c0.494,0.488,0.976,2.427,1.217,2.427c0.492,0.967,1.453,2.174,2.185,3.39c0.971,0.481,2.418-0.732,2.418-1.459
		c-0.237-1.931-0.964-4.117-1.204-6.29c0-0.244,0-0.733,0-1.208c-0.244-1.217-1.215-2.18-0.499-3.166
		c1.703-1.933,2.67-1.933,3.153-3.865c0.723-0.244,1.457-0.244,2.423,0.25c0.483,1.931,0.236,1.2,1.711,3.862
		c1.195,0.739,0.71,2.919-0.494,6.299c0,3.153,0,5.1,1.205,7.998c0,1.696,0.484,2.909,0.484,4.604
		c0.482,1.684,1.217,3.872,1.695,5.082c0,3.153,0.491,8.716,1.212,11.617c0.473,0.25,1.948,0.497,2.42,0.497
		c3.159,0.479,3.639-2.426,3.639-3.157c0.984-1.688,4.837-6.048,6.292-9.195c0.73-1.212,1.706-2.666,2.662-3.884
		c0.741-0.717,1.459,0.253,1.95,0.253c1.44,0.471,0.47,2.419,0.47,4.117c0,0.237,1.458,0.966,1.212,1.205
		c-0.242,0.965-0.967,1.457-1.682,2.422c-1.95,1.702-2.656,3.146-3.153,5.576c-0.969,2.416-0.969,2.664-1.459,5.083
		c0,0.493-0.724,1.933-0.958,2.426c-1.945,3.391-4.35,3.884-7.271,5.566c-0.491,1.701,0.724,5.815,1.457,7.508
		c1.215,2.192,1.92,3.153,5.082,3.153c0.479,0,0.236,0,0.733,0c2.417-0.244,3.62-0.961,6.285-0.961
		c1.458,0.471,1.458,0.717,2.427,1.209c1.447,1.932,3.646,4.11,7.024,4.11c1.216-0.247,3.888,0,5.098-0.474
		c1.198,0,2.658,0.964,3.86,0.722c0.977-0.495,2.191-1.698,3.404-1.698c1.212,0,1.938,0.239,3.392,0.239
		c0.729,0.247,1.447,0.247,2.167,0.247c1.22,0.718,1.22,1.212,3.163,1.212c1.442-0.248,1.442,0,2.892,0.72
		C167.931,138.374,169.385,138.865,169.135,139.347L169.135,139.347z"/>
	<path fill="#231F20" d="M169.168,139.603c-0.045,0-0.074,0-0.112-0.017c-0.029-0.013-0.067-0.028-0.103-0.057
		c-0.098-0.065-0.151-0.167-0.098-0.29l0,0c-0.074-0.122-0.426-0.34-0.617-0.479c-0.371-0.229-0.694-0.442-0.843-0.717l-0.566-0.229
		c-0.798-0.449-0.967-0.507-1.997-0.327c-1.547,0.04-2.025-0.319-2.646-0.765c-0.193-0.155-0.423-0.325-0.713-0.49
		c-0.581,0.046-1.348,0.039-2.122-0.218c-0.675,0-1.239-0.051-1.792-0.12c-0.484-0.059-0.935-0.109-1.496-0.109
		c-0.723,0-1.529,0.545-2.229,1.031c-0.353,0.243-0.711,0.477-1.027,0.631c-0.227,0.066-0.391,0.08-0.553,0.08
		c-0.596,0-1.248-0.211-1.858-0.405c-0.578-0.194-1.126-0.359-1.596-0.359c-0.661,0.279-1.887,0.312-3.082,0.34
		c-0.762,0.019-1.468,0.034-1.958,0.124h-0.017c-3.718,0.016-5.95-2.405-7.312-4.231c-0.245-0.073-0.467-0.229-0.69-0.367
		c-0.368-0.23-0.668-0.435-1.573-0.731c-1.43,0.012-2.456,0.252-3.538,0.509c-0.798,0.18-1.625,0.379-2.641,0.469l-0.755,0.016
		c-3.381,0-4.138-1.14-5.366-3.316c-0.741-1.77-1.994-5.958-1.482-7.753c0.831-0.592,1.482-0.924,2.124-1.238
		c2.002-1.012,3.74-1.896,5.169-4.41c0.811-1.608,0.938-2.103,0.938-2.263l0.115-0.662c0.383-1.912,0.464-2.313,1.359-4.534
		c0.505-2.58,1.336-4.035,3.234-5.693c0.197-0.277,0.435-0.536,0.657-0.779c0.435-0.505,0.794-0.898,0.938-1.49
		c-0.016,0-0.339-0.225-0.523-0.361c-0.429-0.316-0.705-0.496-0.705-0.767c0-0.521,0.095-1.068,0.186-1.587
		c0.227-1.384,0.242-1.994-0.449-2.225c-0.17,0.015-0.366-0.124-0.608-0.247c-0.213-0.126-0.433-0.258-0.634-0.258
		c-0.091,0-0.196,0.016-0.369,0.181c-0.836,1.059-1.806,2.465-2.614,3.806c-0.927,2.011-2.818,4.5-4.339,6.487
		c-0.873,1.138-1.601,2.122-1.967,2.719c0.059,0.885-0.608,3.825-3.939,3.3c-0.544-0.029-1.976-0.228-2.541-0.51
		c-0.877-3.097-1.375-8.693-1.375-11.912c-0.456-1.112-1.2-3.301-1.685-4.999c-0.01-0.909-0.127-1.617-0.237-2.34
		c-0.131-0.735-0.242-1.478-0.242-2.347c-1.223-2.842-1.223-4.783-1.223-7.998c1.122-3.214,1.664-5.406,0.637-6.024l-0.85-1.442
		c-0.619-1.073-0.619-1.094-0.91-2.263l-0.083-0.369c-0.498-0.058-1.174-0.252-1.857-0.058c-0.331,1.211-0.905,1.694-1.659,2.356
		c-0.416,0.358-0.922,0.796-1.496,1.474c-0.364,0.456-0.191,0.919,0.146,1.69c0.148,0.381,0.316,0.748,0.404,1.192v1.27
		c0.133,1.105,0.383,2.26,0.645,3.362c0.238,1.001,0.456,1.971,0.578,2.891c0,0.989-1.772,2.333-2.881,1.779
		c-0.46-0.635-0.798-1.161-1.157-1.663c-0.428-0.629-0.838-1.247-1.117-1.782c-0.184-0.135-0.33-0.488-0.555-1.065
		c-0.187-0.479-0.436-1.16-0.656-1.358c-0.287-0.539-1.059-1.318-1.458-1.702c-1.53-2.297-1.31-3.38-0.303-5.915
		c0.109-0.491,0.475-0.972,0.829-1.448c0.287-0.396,0.598-0.83,0.598-1.087c-0.326-0.34-0.598-0.678-0.815-0.921
		c-0.567-0.707-0.749-0.925-1.822-3.069c-0.044-0.111-0.044-0.23,0.039-0.325c2.412-3.31,3.887-3.644,4.869-3.867
		c0.766-0.164,1.132-0.25,1.549-2.207c-1.871-0.155-3.015-0.008-4.445,0.185l-0.712,0.089c-2.179,0.284-2.284-0.475-2.692-2.1
		l-0.074-0.314c-0.058-0.206-0.625-0.794-1.042-1.006c-0.597-0.816-1.074-1.526-1.541-2c-1.232-1.066-1.918-1.318-3.078-1.728
		c-0.577-0.219-1.245-0.459-2.157-0.874c-2.574-0.996-2.913-1.886-3.161-2.532c-0.155-0.427-0.242-0.664-1.139-0.836
		c-0.211,0.007-0.528,0.027-0.843,0.037c-0.858,0.029-1.878,0.187-3.083-0.292c-0.342-0.168-0.901-0.414-1.227-0.451
		c-0.034,0-0.04,0.01-0.064,0.01l0,0c-0.059,0-0.132-0.034-0.181-0.048c-0.048-0.03-0.082-0.061-0.125-0.109l-0.143-0.076
		c-2.646-1.564-3.947-2.527-4.248-3.113c-0.313-0.772-0.379-1.435-0.426-2.009c-0.058-0.74-0.099-1.275-0.674-1.75
		c-0.022,0.018-0.548-0.045-0.984-0.045c-0.25,0-0.324,0.032-0.334,0.032c-2.167,0.073-4.016,0.073-5.895,0.783
		c-1.232,0.306-2.083,0.771-2.906,1.219c-1.151,0.63-2.231,1.217-3.992,1.217c-0.425,0-1.146,0.106-1.961,0.231
		c-1.068,0.168-2.256,0.348-3.161,0.348c-0.542,0-1.311-0.057-1.555-0.563c-0.236-0.496,0.22-1.073,0.375-1.259
		c0.895-1.121,1.914-1.825,2.994-2.561c1.29-0.882,2.603-1.784,3.772-3.477c-0.051-0.25,0.375-0.789,0.864-1.407
		c0.206-0.27,0.433-0.529,0.59-0.762l-0.06-1.28c0-1.541,0-3.283,0.823-4.102c0.953-1.277,1.733-1.265,2.31-1
		c0.322,0.155,0.815,0.079,0.905,0.43c0.292,1.519,0.05,3.116-0.189,4.656c-0.151,1.017-0.298,1.976-0.298,2.921
		c0.258,0.858,1.559,1.06,2.621,1.06c0.675,0,1.35-0.074,1.857-0.162c0.803-0.437,2.107-0.437,3.583-0.27
		c1.079,0.119,2.295,0.249,3.677,0.034c1.663-0.305,1.86-0.407,2.266-0.629c0.251-0.14,0.596-0.307,1.32-0.576
		c0.359-1.251,0.323-1.678,0.292-2.709c0-0.306-0.019-0.666-0.019-1.102c-0.639-0.872-0.982-1.092-1.227-1.259
		c-0.324-0.217-0.55-0.399-0.933-1.289l-0.02-1.827c0.661-1.822,1.858-2.018,2.721-2.018l0.285,0.009
		c0.031,0,0.298,0.009,0.333,0.021c1.387,0.565,2.303,1.062,3.234,1.731c0.292,2.258,4.507,3.138,6.643,3.138
		c0.236,0,0.456-0.013,0.619-0.042c1.434,0,3.094-4.25,3.118-4.772c0.011-0.176,0.147-0.323,0.327-0.323
		c0.097,0,0.345-0.229,0.491-0.387c0.972-0.365,1.721-0.656,2.447-0.927c3.82-1.46,6.677-1.953,10.567,1.389
		c0.752,0.814,1.277,1.586,1.762,2.315c1.065,1.563,1.905,2.805,3.966,3.439l3.278-0.015c1.06-0.722,1.641-1.482,2.182-2.209
		c0.613-0.813,1.19-1.58,2.549-2.133l1.637-0.308c2.207-0.406,2.728-0.506,5.099-2.076c0.096-0.064,0.225-0.069,0.324-0.01
		c0.887,0.517,1.792,0.967,2.698,1.405c2.083,1.033,4.061,2.018,5.625,3.75c0.064,0.074,0.096,0.199,0.064,0.316
		c-0.633,1.743-1.384,2.516-2.488,2.516c-0.513,0-1.05-0.175-1.604-0.362c-0.295-0.083-0.587-0.182-0.899-0.261
		c-0.576,0.417-1.295,0.72-1.919,0.991c-1.45,0.619-2.038,0.911-2.038,1.849c1.165,1.218,2.998,1.947,5.344,1.947
		c2.85,0,6.277-1.108,9.169-2.946c0.13-0.059,0.513-0.059,0.616,0.017l5.081,3.885c0.108,0.056,0.141,0.164,0.131,0.271
		c-0.016,0.119-0.075,0.214-0.163,0.263c-1.836,0.919-2.581,1.151-3.785,1.516l-1.36,0.441c-0.593,0.528-1.511,0.792-2.499,1.063
		c-1.132,0.308-2.298,0.648-3.19,1.519c-0.14,2.146,3.926,10.735,5.095,11.905c0.109,0.101,0.123,0.244,0.066,0.372
		c-1.592,3.17,2.165,9.354,5.46,11.708c0.36,1.896-2.058,3.085-5.11,4.59c-4.162,2.036-9.318,4.577-8.577,9.075
		c0.088,0.141,0.148,0.386,0.228,0.749c0.247,1.042,0.719,2.967,1.898,2.967c2.011-0.019,3.477-1.261,5.095-2.604
		c1.915-1.607,4.006-3.232,6.361-2.711c1.132,1.166,1.506,2.011,1.392,2.831c-0.172,1.206-1.392,2.218-3.476,3.552
		c-1.362,0.688-1.54,1.793-1.54,2.882c0,0.111-0.054,0.215-0.155,0.271c-0.938,0.619-1.945,0.925-3.119,0.925
		c-0.991,0-1.92-0.229-2.679-0.412c-0.91-0.212-1.562-0.614-1.562,0.194c0,0.728,0,1.738,0.308,1.894
		c0.768-0.017,1.605,0.167,2.547,0.378c0.956,0.226,1.944,0.446,2.904,0.446c1.836,0,3.288-0.841,4.556-2.671
		c2.177-0.241,3.062-1.674,3.926-3.056c0.765-1.236,1.482-2.399,2.882-2.399l0.545,0.256c0.382,0.204,0.861,0.46,1.146,0.46
		c0.123,0,0.226,0.079,0.279,0.185c1.423,3.023,0.602,7.057-0.271,11.332c-0.353,1.678-0.7,3.415-0.907,5.084
		c0.355,3.188,3.269,5.216,6.672,7.546c3.583,2.477,7.653,5.279,9.303,10.233l0.363,0.616c1.229,2.146,1.229,2.146,2.205,2.969
		l0.736,0.645c0.087,0.083,0.135,0.221,0.087,0.339l-5.561,14.966C169.406,139.529,169.283,139.603,169.168,139.603L169.168,139.603
		z M165.641,136.763c0.586,0,0.936,0.188,1.506,0.489l0.692,0.359c0.205,0.261,0.516,0.473,0.758,0.626
		c0.158,0.114,0.338,0.22,0.497,0.342l5.25-14.156l-0.562-0.479c-1.073-0.897-1.103-0.94-2.364-3.16l-0.38-0.659
		c-1.598-4.8-5.58-7.548-9.099-9.967c-3.368-2.317-6.543-4.522-6.917-8.09c0.212-1.766,0.552-3.505,0.908-5.203
		c0.825-4.077,1.629-7.938,0.4-10.759c-0.4-0.066-0.846-0.314-1.245-0.53l-0.38-0.207c-0.901,0.037-1.503,1.002-2.194,2.125
		c-0.914,1.458-1.923,3.102-4.191,3.238c-1.158,1.864-2.772,2.796-4.835,2.796c-1.035,0-2.046-0.235-3.049-0.46
		c-0.885-0.206-1.751-0.396-2.549-0.396c-0.795-0.361-0.795-1.405-0.795-2.499c0-1.083,0.892-1.171,2.366-0.808
		c1.452,0.353,3.609,0.614,5.142-0.338c0.022-1.136,0.296-2.468,1.867-3.259c1.844-1.19,3.024-2.127,3.163-3.091
		c0.086-0.616-0.266-1.321-1.075-2.224c-0.104,0.037-0.381,0.005-0.657,0.005c-1.792,0-3.415,1.356-4.993,2.664
		c-1.629,1.367-3.307,2.768-5.291,2.768c-1.907-0.007-2.428-2.255-2.713-3.464c-0.066-0.223-0.12-0.478-0.155-0.548
		c-0.991-5.161,4.462-7.839,8.836-9.998c2.596-1.274,5.046-2.491,4.893-3.719c-3.27-2.206-7.175-8.495-5.634-12.091
		c-1.394-1.716-5.262-9.991-5.019-12.441c1.077-1.185,2.392-1.553,3.551-1.879c0.908-0.256,1.768-0.496,2.361-0.998
		c0.661-0.238,1.094-0.375,1.48-0.497c1.069-0.332,1.752-0.543,3.21-1.249l-4.683-3.573c-2.871,1.915-6.438,3.052-9.395,3.052
		c-2.5,0-4.548-0.816-5.905-2.362c-0.08-1.61,0.939-2.043,2.362-2.655c0.584-0.261,1.304-0.549,2.077-0.981
		c0.573,0.047,0.874,0.149,1.171,0.244c0.518,0.171,0.988,0.325,1.411,0.325c0.544,0,1.178-0.231,1.814-1.92
		c-1.438-1.548-3.329-2.477-5.299-3.459c-0.858-0.422-1.713-0.842-2.559-1.329c-2.334,1.554-2.964,1.663-5.146,2.067l-1.576,0.299
		c-1.151,0.461-1.63,1.089-2.232,1.902c-0.564,0.736-1.196,1.582-2.517,2.415l-3.543,0.051c-2.365-0.716-3.302-2.098-4.388-3.703
		c-0.478-0.712-1-1.462-1.674-2.221c-3.647-3.123-6.253-2.646-9.913-1.245c-0.733,0.276-1.504,0.564-2.357,0.847
		c-0.107,0.16-0.293,0.358-0.541,0.451c-0.287,1.166-1.896,5.137-3.671,5.137c-0.13,0.028-0.374,0.05-0.659,0.05
		c-2.159,0-6.923-0.875-7.157-3.486c-0.733-0.412-1.64-0.887-2.958-1.426l-0.382,0.015c-0.767,0-1.611,0.17-2.126,1.491l0.042,1.585
		c0.301,0.636,0.449,0.731,0.675,0.89c0.301,0.202,0.691,0.46,1.445,1.602c0.061,0.616,0.074,0.967,0.09,1.257
		c0.029,1.063,0.045,1.59-0.542,3.145c-0.859,0.446-1.188,0.6-1.417,0.737c-0.498,0.258-0.771,0.369-2.45,0.683
		c-1.49,0.223-2.747,0.084-3.853-0.023c-1.358-0.153-2.48-0.19-3.334,0.247c-0.623,0.111-1.32,0.202-2.046,0.202
		c-2.297,0-3.031-0.892-3.243-1.629c-0.03-1.062,0.141-2.1,0.3-3.1c0.205-1.408,0.435-2.851,0.225-4.198
		c-0.241-0.05-0.425-0.125-0.598-0.211c-0.488-0.237-0.818-0.128-1.557,0.841c-0.656,0.672-0.656,2.344-0.656,3.685v1.452
		c-0.22,0.427-0.451,0.702-0.676,0.98c-0.3,0.391-0.791,0.989-0.791,1.192c-1.287,1.967-2.662,2.918-3.976,3.824
		c-1.048,0.711-2.033,1.39-2.872,2.443c-0.291,0.345-0.307,0.535-0.291,0.587c0,0.006,0.115,0.192,0.982,0.192
		c0.854,0,2.036-0.168,3.07-0.332c0.842-0.128,1.597-0.236,2.053-0.236c1.596,0,2.568-0.539,3.679-1.146
		c0.838-0.447,1.751-0.959,3.03-1.28c1.944-0.729,3.959-0.729,5.889-0.729c-0.188-0.119,1.757,0,1.757,0
		c0.945,0.712,1.009,1.474,1.073,2.271c0.042,0.55,0.086,1.136,0.375,1.803c0.146,0.286,0.97,1.036,3.974,2.839l0.269,0.165
		c0.36-0.067,1.309,0.411,1.417,0.463c0.657,0.26,1.703,0.29,2.785,0.234c0.316-0.015,0.636-0.032,0.944-0.032
		c1.215,0.239,1.452,0.646,1.66,1.238c0.221,0.568,0.497,1.274,2.818,2.178c0.896,0.416,1.571,0.65,2.15,0.86
		c1.153,0.422,1.945,0.7,3.281,1.865c0.512,0.53,1.017,1.282,1.5,2.004c0.333,0.119,1.272,0.931,1.272,1.379l0.072,0.244
		c0.436,1.796,0.543,1.8,1.984,1.625l0.695-0.09c1.566-0.202,2.792-0.37,4.957-0.152c0.073,0.003,0.173,0.051,0.204,0.125
		c0.061,0.073,0.088,0.164,0.061,0.248c-0.481,2.586-1.013,2.817-2.086,3.062c-0.866,0.181-2.181,0.486-4.4,3.446
		c0.987,1.923,1.126,2.12,1.668,2.765c0.223,0.26,0.499,0.599,0.882,1.131c0.066,0.667-0.279,1.161-0.659,1.676
		c-0.303,0.414-0.628,0.854-0.727,1.259c-0.963,2.408-1.19,3.244,0.196,5.321c0.552,0.547,1.212,1.229,1.469,1.733
		c0.239,0.219,0.502,0.87,0.752,1.506c0.115,0.294,0.274,0.708,0.34,0.797c0.391,0.661,0.808,1.272,1.256,1.917
		c0.359,0.508,0.701,1.035,1.042,1.563c-0.032-0.059,0.072-0.037,0.204-0.037c0.749,0,1.622-0.821,1.622-1.252
		c-0.118-0.856-0.335-1.801-0.557-2.781c-0.25-1.127-0.514-2.295-0.639-3.48l-0.021-1.236c-0.052-0.307-0.212-0.663-0.354-1.014
		c-0.318-0.755-0.659-1.535-0.074-2.332c0.654-0.733,1.169-1.183,1.595-1.559c0.771-0.66,1.221-1.049,1.506-2.199
		c0.024-0.11,0.105-0.195,0.211-0.234c0.922-0.305,1.717-0.212,2.662,0.263l0.271,0.574c0.258,1.092,0.258,1.092,0.827,2.102
		l0.741,1.328c1.278,0.735,0.816,2.979-0.479,6.564c0.025,3.027,0.025,4.924,1.215,7.762c0.023,0.951,0.147,1.661,0.277,2.374
		c0.12,0.742,0.23,1.481,0.23,2.354c0.47,1.578,1.19,3.758,1.673,4.968c0.027,3.3,0.513,8.814,1.224,11.658
		c0.242,0.008,1.644,0.253,2.115,0.253c0.278,0.038,0.489,0.053,0.675,0.053c2.582,0,2.637-2.855,2.637-2.893
		c0.416-0.786,1.183-1.785,2.061-2.93c1.502-1.982,3.361-4.437,4.283-6.4c0.838-1.403,1.806-2.823,2.694-3.943
		c0.594-0.582,1.319-0.322,1.792-0.043c0.14,0.076,0.322,0.164,0.401,0.164c1.375,0.448,1.155,1.78,0.969,2.96
		c-0.089,0.477-0.173,0.99-0.173,1.482c0.018-0.053,0.262,0.138,0.443,0.253c0.495,0.35,0.773,0.581,0.795,0.858
		c0.009,0.093-0.042,0.265-0.114,0.323c-0.104,0.583-0.523,1.057-1.017,1.595c-0.197,0.236-0.433,0.491-0.653,0.801
		c-1.833,1.594-2.598,2.959-3.084,5.443c-0.887,2.225-0.975,2.608-1.334,4.479l-0.124,0.599c0,0.326-0.313,1.116-0.993,2.496
		c-1.548,2.705-3.357,3.626-5.456,4.685c-0.611,0.303-1.264,0.637-1.939,1.024c-0.308,1.355,0.847,5.382,1.578,7.109
		c1.144,2.052,1.777,2.956,4.799,2.956h0.733c0.958-0.096,1.733-0.277,2.524-0.461c1.124-0.258,2.181-0.503,3.761-0.503
		c1.1,0.337,1.451,0.562,1.841,0.826c0.195,0.113,0.404,0.259,0.731,0.425c1.387,1.799,3.501,4.078,6.878,4.078
		c0.439-0.101,1.197-0.117,1.995-0.137c1.078-0.025,2.313-0.058,2.982-0.332c0.687,0,1.319,0.185,1.911,0.382
		c0.695,0.227,1.403,0.443,2.011,0.341c0.212-0.121,0.539-0.347,0.88-0.584c0.772-0.526,1.647-1.117,2.583-1.117
		c0.594,0,1.065,0.052,1.562,0.105c0.53,0.066,1.077,0.121,1.831,0.121c0.778,0.246,1.446,0.246,2.167,0.246
		c0.493,0.232,0.73,0.412,0.944,0.575c0.565,0.414,0.869,0.645,2.218,0.645C165.11,136.792,165.399,136.763,165.641,136.763
		L165.641,136.763z"/>
	<path fill="#009470" d="M168.936,108.943c-1.195,0-1.541-1.129-2.28-3.913c-0.515-0.612-1.118-1.119-1.659-1.579
		c-1.058-0.915-1.997-1.698-1.997-3.592c0-0.14,0.114-0.274,0.255-0.307c3.131-0.78,5.342,3.352,6.421,5.492
		c0.053,0.196,0.115,0.383,0.216,0.625c0.526,1.315,0.907,2.421,0.441,2.896C169.653,108.853,169.254,108.943,168.936,108.943
		L168.936,108.943z M163.656,100.122c0.064,1.411,0.784,2.018,1.743,2.837c0.574,0.479,1.188,1.02,1.812,1.793
		c0.771,2.822,1.065,3.557,1.725,3.557c0.237,0,0.582-0.093,1.051-0.265c0.011-0.104-0.185-0.848-0.688-2.133
		c-0.176-0.452-0.244-0.6-0.244-0.717C168.13,103.404,166.25,99.691,163.656,100.122L163.656,100.122z M153.158,65.055
		c-3.071,0-4.163-0.911-4.163-1.689c0-0.248,0.101-0.688,0.795-1.01c0.473-0.231,1.144-0.355,1.908-0.355
		c0.765,0.49,1.114,0.677,1.336,0.788c0.477,0.266,0.52,0.409,0.477,0.951c-0.011,0.215-0.045,0.523-0.045,0.991
		C153.467,64.917,153.323,65.055,153.158,65.055L153.158,65.055z M151.51,62.569c-1.226,0.059-1.879,0.499-1.879,0.797
		c0,0.311,0.814,0.999,3.206,1.042c0.015-0.313,0.024-0.539,0.043-0.704l-0.146-0.354C152.499,63.227,152.125,63.029,151.51,62.569
		L151.51,62.569z"/>
	<path fill="#009470" d="M105.923,92.115c-1.225,1.442-0.24,2.178,0.472,3.862c0,0.983-2.408,5.093-0.712,5.093
		c2.397,0,0.967-3.145,2.171-4.599c0.226,0,0.226-0.725,0-1.698c0,0.242-0.967-1.942-0.967-2.898l0,0
		C106.886,91.386,106.17,91.386,105.923,92.115L105.923,92.115z"/>
	<path fill="#009470" d="M105.682,101.393c-0.418,0-0.646-0.197-0.759-0.351c-0.426-0.637-0.006-1.857,0.654-3.507
		c0.241-0.637,0.5-1.296,0.5-1.557c-0.124-0.242-0.3-0.578-0.462-0.872c-0.555-1.029-1.008-1.909,0.05-3.189
		c0.317-1.084,1.545-0.746,1.545-0.039c0,0.711,0.612,2.248,0.814,2.627c0.054,0.049,0.122,0.118,0.138,0.188
		c0.14,0.562,0.327,1.547,0.036,1.921c-0.067,0.088-0.247,0.172-0.345,0.172c-0.181,0.396-0.225,1.2-0.285,1.988
		C107.507,99.937,107.414,101.393,105.682,101.393L105.682,101.393z M106.535,91.868c-0.09,0-0.245,0.109-0.317,0.345
		c-0.845,1.067-0.588,1.57-0.049,2.594c0.168,0.314,0.35,0.656,0.527,1.05c0.026,0.484-0.193,1.037-0.527,1.915
		c-0.374,0.938-0.996,2.506-0.725,2.901l0.237,0.077c1.079,0,1.174-0.691,1.252-2.018c0.065-0.846,0.116-1.799,0.672-2.463
		c0.125-0.121,0.14-0.567-0.054-1.375c-0.47-0.642-0.983-2.568-0.983-3.019C106.569,91.868,106.569,91.868,106.535,91.868
		L106.535,91.868z"/>
	<path fill="#009470" d="M109.793,95.017c-0.252,0.237-0.473,2.909,0.478,2.909c1.459,0,0.725-1.693,0.489-2.178
		c0-0.242-0.242-0.974,0-0.974l0,0C110.518,93.557,109.793,94.293,109.793,95.017L109.793,95.017z"/>
	<path fill="#009470" d="M110.271,98.245c-0.201,0-0.59-0.088-0.82-0.64c-0.326-0.803-0.211-2.484,0.133-2.807
		c-0.109-0.354,0.231-0.979,0.75-0.979c0.247,0,0.592,0.151,0.734,0.885c0.027,0.094,0,0.2-0.074,0.263
		c-0.03,0.055-0.085,0.093-0.135,0.107c0.112,0.018,0.135,0.18,0.17,0.293c0.022,0.151,0.038,0.291,0.038,0.38
		c0.188,0.274,0.651,1.35,0.245,2.011C111.185,97.976,110.877,98.245,110.271,98.245L110.271,98.245z M110.296,94.431
		c-0.025,0.047-0.188,0.288-0.188,0.585c-0.193,0.428-0.346,1.881-0.009,2.449l0.171,0.139c0.255,0,0.423-0.062,0.502-0.184
		c0.185-0.291-0.014-0.996-0.298-1.533l-0.074-0.401c-0.065-0.32-0.12-0.611,0-0.826C110.335,94.478,110.296,94.431,110.296,94.431
		L110.296,94.431z"/>
	<path fill="#55A88D" d="M76.115,25.973c-1.448,2.186-0.961,4.603-1.448,8.003c0,0,0,0,0,0.245c0.487,0,1.448-0.245,1.448-0.245
		s1.223-7.521,1.223-8.484l0,0c0,0,0,0-0.497,0l0,0C76.359,25.735,76.359,25.735,76.115,25.973L76.115,25.973z"/>
	<path fill="#231F20" d="M74.668,34.53c-0.101,0-0.178-0.157-0.235-0.226c-0.058-0.069-0.1-0.284-0.073-0.375
		c0.146-1.073,0.207-2.058,0.256-2.944c0.112-1.947,0.196-3.62,1.221-5.185c0.343-0.325,0.375-0.345,0.864-0.585
		c0.042-0.032,0.529-0.045,0.56-0.045c0.189,0,0.388,0.145,0.388,0.323c0,0.981-1.175,8.225-1.21,8.537
		c-0.03,0.13-0.13,0.22-0.242,0.252C76.154,34.296,75.185,34.53,74.668,34.53L74.668,34.53z M76.842,25.812
		c-0.293,0.189-0.293,0.189-0.497,0.394c-0.896,1.356-0.984,2.883-1.1,4.812c-0.048,0.868-0.096,1.818-0.244,2.85
		c0.286-0.029,0.609-0.103,0.838-0.153c0.375-2.396,1.039-6.581,1.157-7.903H76.842L76.842,25.812z"/>
	<path fill="#55A88D" d="M90.887,24.294c0,0,0.249,0.479,0,0.227c0,0.252,0.249,0,0.495,0.252c1.693,0.479,3.885-1.222,3.153-2.428
		C92.832,23.551,90.887,22.102,90.887,24.294L90.887,24.294z"/>
	<path fill="#231F20" d="M92.01,25.169c-0.252,0-0.491-0.03-0.717-0.101c-0.083,0-0.229-0.069-0.383-0.175
		c-0.082-0.023-0.186-0.093-0.228-0.14l0.027-0.03c-0.072-0.067-0.123-0.135-0.123-0.202c0-0.1,0.055-0.211,0.154-0.264
		c-0.098-1.546,0.845-1.602,1.689-1.649c0.616-0.029,1.28-0.071,1.934-0.521c0.067-0.047,0.149-0.072,0.237-0.056
		c0.08,0.024,0.162,0.071,0.2,0.147c0.262,0.444,0.253,0.969-0.032,1.475C94.282,24.512,93.102,25.169,92.01,25.169L92.01,25.169z
		 M91.308,24.387c0.074,0,0.197,0.045,0.306,0.154c0.037-0.028,0.208-0.006,0.396-0.006c0.96,0,1.872-0.607,2.215-1.198
		c0.098-0.173,0.138-0.343,0.138-0.512c-0.666,0.35-1.361,0.387-1.905,0.414c-0.903,0.06-1.248,0.074-1.248,1.056
		c0.024,0.029,0.048,0.062,0.067,0.092C91.293,24.387,91.293,24.387,91.308,24.387L91.308,24.387z"/>
	<path fill="#55A88D" d="M72.233,77.581c0,0-0.469,0-0.701,0.234c-0.503,0.238-0.977,0.496-1.456,0.73
		c-0.242,0.73-1.224,0.974,0,2.188c0.953,0,0.479-0.972,1.456-1.214c0.231,0,0.473,0,0.701-0.244c1.22-0.244,1.953-0.49,1.953-1.693
		C73.209,77.581,73.453,77.581,72.233,77.581L72.233,77.581z"/>
	<path fill="#231F20" d="M70.075,81.037c-0.101,0-0.171-0.027-0.231-0.088c-0.993-0.991-0.738-1.526-0.341-2.075
		c0.125-0.151,0.222-0.274,0.271-0.433l1.601-0.898c0.255-0.28,0.801-0.288,0.858-0.288h1.953c0.175,0,0.322,0.149,0.322,0.325
		c0,1.556-1.165,1.802-2.216,2c-0.167,0.252-0.512,0.252-0.759,0.252c-0.245,0.072-0.345,0.239-0.449,0.487
		C70.962,80.61,70.776,81.037,70.075,81.037L70.075,81.037z M72.233,77.893c-0.109,0-0.374,0.045-0.489,0.153l-1.53,0.783
		c0.074,0.062-0.077,0.255-0.188,0.416c-0.258,0.359-0.397,0.552,0.161,1.156c0.196-0.019,0.228-0.113,0.32-0.342
		c0.131-0.281,0.317-0.69,0.927-0.852c0.329-0.01,0.439-0.01,0.579-0.154c1.262-0.298,1.74-0.515,1.83-1.16H72.233L72.233,77.893z"
		/>
	<path fill="#55A88D" d="M54.093,80.239c0.471,2.674,0.941,5.568,1.196,7.747c0,1.213-0.725,1.95,0.969,2.916
		c0.246,0,1.205-0.726,1.205-0.726c0.25-0.731,0,0,0.733-2.19c-1.692-1.687-0.733-3.618-1.692-5.073
		C55.776,82.664,52.862,79.518,54.093,80.239L54.093,80.239z"/>
	<path fill="#231F20" d="M56.257,91.217c-0.05,0-0.115-0.008-0.165-0.042c-1.462-0.842-1.324-1.635-1.205-2.419
		c0.042-0.231,0.074-0.49,0.074-0.771c-0.186-1.695-0.553-4.088-1.08-7.088c-0.382-0.459-0.483-0.674-0.382-0.885
		c0.112-0.212,0.354-0.27,0.74-0.039l0.204,0.636c0.706,0.836,1.836,1.893,2.152,1.994c0.623,0.812,0.693,1.588,0.759,2.335
		c0.081,0.993,0.175,1.928,1.069,2.833c0.082,0.077,0.112,0.208,0.082,0.322l-0.734,2.178
		C56.962,90.956,56.485,91.217,56.257,91.217L56.257,91.217z M54.679,81.791c0.436,2.545,0.747,4.614,0.919,6.165
		c0.019,0.352-0.046,0.648-0.082,0.905c-0.104,0.705-0.179,1.114,0.779,1.706c0.207-0.099,0.637-0.387,0.98-0.647l0.079-0.394
		l0.481-1.448c-0.925-1.017-1.033-2.115-1.106-3.089c-0.066-0.698-0.133-1.358-0.489-1.901
		C55.964,83.04,55.274,82.401,54.679,81.791L54.679,81.791z"/>
	<path fill="#55A88D" d="M49.222,77.581c-0.229,0-1.439,0.729-1.702,1.937c0,0.242,0.263,0.479,0.496,1.214
		c0.735,0.718,1.207,1.207,1.207,2.659c0-0.243,0.25-0.243,0-0.243c0.489,0,0.489-0.235,0.489-0.484
		C50.197,79.518,50.197,77.581,49.222,77.581L49.222,77.581z"/>
	<path fill="#231F20" d="M49.222,83.722c-0.162,0-0.308-0.16-0.308-0.33c0-1.326-0.395-1.724-1.116-2.443
		c-0.197-0.463-0.31-0.698-0.394-0.87c-0.105-0.208-0.186-0.371-0.186-0.562c0.27-1.387,1.562-2.263,2.003-2.263
		c0.285,0,0.527,0.12,0.706,0.332c0.533,0.613,0.554,2.149,0.098,5.123c0.009,0.146,0.009,0.584-0.477,0.72
		c-0.011,0-0.011,0.019-0.011,0.03C49.514,83.609,49.397,83.722,49.222,83.722L49.222,83.722z M47.847,79.581
		c0.014,0,0.057,0.096,0.119,0.215c0.109,0.185,0.237,0.444,0.359,0.828c0.426,0.399,0.832,0.791,1.037,1.472
		c0.454-2.375,0.42-3.701,0.08-4.104C49.126,77.909,48.069,78.522,47.847,79.581L47.847,79.581L47.847,79.581z"/>
	<path fill="#55A88D" d="M57.462,69.106c0,1.439,1.701,2.898,1.212,4.592c0,1.693,0.489,2.664,0.489,5.333
		c0,1.931,0,2.908,2.18,2.908c0.727,0.235,1.453,0.479,2.428,0.479c1.687-0.479,2.174-0.479,2.417-1.686c0-0.735,0-1.214,0-1.701
		c-0.243-1.938-2.417-2.668-2.906-3.886c0.489-1.2,1.944-1.2,2.663-2.174c0-1.44-0.969-1.934-1.696-2.662
		c-0.726-1.202-1.19-2.423-2.906-2.908C58.674,66.924,57.462,66.924,57.462,69.106L57.462,69.106z"/>
	<path fill="#231F20" d="M63.771,82.741c-1.011,0-1.782-0.263-2.517-0.503c-2.295-0.015-2.419-1.276-2.407-3.207
		c0-1.458-0.14-2.409-0.277-3.24c-0.112-0.7-0.213-1.319-0.213-2.093c0.279-0.943-0.128-1.745-0.552-2.593
		c-0.327-0.651-0.66-1.311-0.66-1.999c0-2.213,1.211-2.564,4.25-2.02c1.627,0.462,2.252,1.538,2.853,2.584l0.271,0.474
		c0.098,0.079,0.244,0.199,0.383,0.342c0.652,0.548,1.366,1.179,1.366,2.482c-0.438,0.675-0.941,0.934-1.408,1.187
		c-0.568,0.292-1.066,0.547-1.285,1.114c0.161,0.181,0.605,0.567,1.083,0.981c0.792,0.689,1.683,1.454,1.841,2.727v1.753
		c-0.254,1.326-0.845,1.491-2.157,1.859l-0.491,0.133C63.82,82.733,63.795,82.741,63.771,82.741L63.771,82.741z M59.231,67.462
		c-0.97,0-1.451,0.248-1.451,1.644c0,0.536,0.276,1.101,0.592,1.716c0.441,0.874,0.933,1.87,0.612,2.965
		c0,0.646,0.107,1.238,0.215,1.896c0.146,0.87,0.289,1.836,0.289,3.347c0,1.931,0,2.591,1.856,2.591
		c0.816,0.244,1.483,0.473,2.38,0.482l0.446-0.129c1.289-0.353,1.534-0.422,1.704-1.314v-1.63c-0.12-0.998-0.88-1.656-1.625-2.305
		c-0.534-0.459-1.026-0.887-1.267-1.454c0.316-1.028,0.996-1.368,1.589-1.679c0.428-0.22,0.853-0.439,1.123-0.813
		c-0.064-0.826-0.585-1.291-1.205-1.817c-0.146-0.14-0.321-0.276-0.467-0.431l-0.331-0.537c-0.579-1.028-1.09-1.903-2.437-2.284
		C60.458,67.563,59.775,67.462,59.231,67.462L59.231,67.462z"/>
	<path fill="#55A88D" d="M57.712,61.344c-0.25,0.488-0.25,0.735-0.25,0.977c-0.486,0.723-2.898,1.691-3.142,3.146
		c0.244,0.239,0.478,0.484,0.714,0.722c0.255-0.237,0.255,0,0.496-0.237c0.246-0.246,0.246-0.484,0.727-0.976
		c1.938-2.178,1.455-0.719,1.938-2.423C58.674,61.831,58.195,60.858,57.712,61.344L57.712,61.344z"/>
	<path fill="#231F20" d="M55.027,66.499c-0.082,0-0.155-0.021-0.206-0.081l-0.729-0.73c0.09-1.339,1.227-2.131,2.13-2.754
		c0.441-0.306,0.842-0.579,0.98-0.796c-0.056-0.086-0.056-0.383,0.224-0.935c0.051-0.106,0.426-0.306,0.556-0.306
		c0.241,0,0.456,0.151,0.602,0.4c0.17,0.348,0.212,0.932-0.126,1.442c-0.229,0.855-0.263,0.948-0.581,1.146
		c-0.182,0.125-0.539,0.352-1.392,1.306c-0.246,0.263-0.359,0.444-0.453,0.6c-0.069,0.123-0.15,0.252-0.281,0.385
		c-0.054,0.058-0.382,0.212-0.463,0.212C55.223,66.457,55.115,66.499,55.027,66.499L55.027,66.499z M58.055,61.718
		c-0.276,0.193-0.276,0.376-0.276,0.603c-0.251,0.476-0.7,0.784-1.19,1.129c-0.829,0.562-1.822,1.266-1.96,2.075l0.439,0.295
		c0.087-0.028,0.185-0.061,0.22-0.061c0.09-0.106,0.138-0.182,0.197-0.292c0.104-0.171,0.244-0.402,0.547-0.712
		c0.876-1.008,1.289-1.267,1.502-1.407c0.129-0.065,0.129-0.065,0.286-0.64c0.015-0.03,0.098-0.31,0.116-0.33
		C58.055,62.178,58.115,61.939,58.055,61.718L58.055,61.718z"/>
	<path fill="#55A88D" d="M71.762,139.109c1.447,1.452,1.211,0.478,1.691,1.694c0,0.471,0,0.471,0,0.722
		c0,0.247,0.483,1.462-0.244,1.462c-1.205,0.232-1.678-0.981-3.134-0.981c0-0.233-0.242-0.48-0.242-0.48
		c-1.224-0.251-2.192-1.449-1.711-2.416c1.215-0.486,1.215,0.967,1.953,0.718c0,0,0-0.48,0.242-0.718
		C71.028,138.623,71.531,138.865,71.762,139.109L71.762,139.109z"/>
	<path fill="#231F20" d="M72.893,143.325c-0.547,0-0.961-0.249-1.362-0.488c-0.426-0.267-0.847-0.517-1.456-0.517
		c-0.171,0-0.317-0.136-0.317-0.315c0-0.053-0.1-0.188-0.166-0.251c-0.64-0.076-1.39-0.635-1.726-1.327
		c-0.234-0.497-0.242-1.013-0.015-1.458c0.35-0.239,0.561-0.285,0.729-0.285c0.524,0,0.819,0.348,1.046,0.605
		c0.045,0.071,0.096,0.133,0.162,0.184c0.043-0.184,0.128-0.417,0.285-0.584c0.796-0.551,1.457-0.484,1.905,0
		c0.644,0.631,0.935,0.771,1.082,0.853c0.34,0.155,0.431,0.278,0.69,0.936l0.016,0.849c0.131,0.61,0.279,1.176,0,1.522
		c-0.089,0.118-0.25,0.244-0.56,0.244C73.143,143.315,73.012,143.325,72.893,143.325L72.893,143.325z M70.317,141.705
		c0.662,0.05,1.116,0.332,1.542,0.581c0.431,0.267,0.794,0.482,1.285,0.382c0.178-0.086,0.162-0.347,0.05-0.789
		c0-0.022-0.05-0.322-0.05-0.354v-0.722c-0.196-0.415-0.221-0.431-0.352-0.488c-0.192-0.106-0.536-0.262-1.26-0.985
		c-0.164-0.172-0.569-0.274-1.042,0.04c-0.055,0.053-0.107,0.345-0.107,0.457c0,0.151-0.096,0.262-0.218,0.309
		c-0.611,0.04-0.847-0.222-1.037-0.446c-0.277-0.319-0.454-0.467-0.873-0.29c-0.021,0.188,0.075,0.53,0.191,0.75
		c0.235,0.517,0.823,0.945,1.446,1.067C70.032,141.312,70.214,141.485,70.317,141.705L70.317,141.705z"/>
	<path fill="#55A88D" d="M57.462,134.261c-1.932,0-2.428,0.481-4.355,1.209c-0.245,0.239-0.475,0.977,0.242,1.205
		c0.971,0,1.939,0,2.908-0.229c1.455,0,2.906,0,3.635,0.474c0.725,0.248,1.452,0.49,1.699,0.969c0,0.486,0.966,0.735,1.468,0.735
		c0.223,0,2.168,0.723,2.168,0c0-0.249-0.494-1.702-0.978-1.949c-1.454-1.204-2.906-1.687-3.873-2.168
		C59.163,134.261,58.195,134.261,57.462,134.261L57.462,134.261z"/>
	<path fill="#231F20" d="M64.703,139.265c-0.432,0-0.988-0.155-1.362-0.254c-0.144-0.031-0.251-0.065-0.317-0.082l0,0
		c-0.548,0-1.753-0.261-1.753-1.042c-0.155-0.217-0.821-0.444-1.472-0.66c-0.717-0.466-2.159-0.466-3.541-0.466
		c-0.919,0.234-1.937,0.234-2.908,0.234c-0.446-0.135-0.701-0.38-0.774-0.705c-0.095-0.396,0.087-0.83,0.302-1.041
		c0.605-0.263,1.004-0.428,1.354-0.582c1.529-0.648,2.407-1.245,6.21-0.477c0.286,0.138,0.529,0.242,0.799,0.355
		c0.911,0.413,2.058,0.923,3.206,1.884c0.613,0.304,1.085,1.923,1.085,2.192c0,0.232-0.107,0.417-0.305,0.528
		C65.109,139.223,64.919,139.265,64.703,139.265L64.703,139.265z M56.75,136.134c1.371,0,2.626,0.052,3.318,0.527
		c0.691,0.229,1.489,0.493,1.809,1.09c0.029,0.293,0.625,0.548,1.181,0.548c0.074,0,0.192,0.035,0.444,0.092
		c0.499,0.14,1.416,0.203,1.416,0.203c-0.023-0.228-0.488-1.466-0.811-1.629c-1.15-0.949-2.256-1.438-3.137-1.837
		c-0.274-0.123-0.513-0.229-0.743-0.339c-1.086-0.217-2.056-0.217-2.766-0.217c-1.378,0-1.984,0.26-2.989,0.695
		c-0.359,0.154-0.758,0.313-1.251,0.499c0.021,0-0.066,0.228-0.032,0.389c0.008,0.062,0.062,0.155,0.266,0.234
		c0.865-0.024,1.798-0.024,2.717-0.256C56.378,136.134,56.551,136.134,56.75,136.134L56.75,136.134z"/>
	<path fill="#55A88D" d="M21.865,144.913c0.47,0.494,1.45,1.458,1.928,1.458c0.728-1.458,1.215-1.703,1.215-2.425
		c-0.97-3.386-0.715-3.143-1.215-5.572c-0.233-1.699-0.478-3.387,0.728-4.6c1.218-0.713,1.218,0,2.667,0.731
		c1.707,1.45,3.4,6.055,5.083,8.481c1.949,1.926,3.404,2.42,5.334,3.627c2.172,1.452,3.394,1.693,5.087,4.115
		c0.481,0.971,1.222,2.185,2.67,2.913c1.679,1.211,4.349,2.184,6.774,4.111c0.726,1.213,0.972,3.155,1.458,4.599
		c1.439,1.459,1.693,1.459,2.414,3.4c-0.232,1.449-0.975,0.976-2.901,0.976c-1.204,1.205,0.985,1.933,0.985,4.112
		c-0.247,0-1.459,0-1.714,0c0,0-0.242,0.247-0.242,0.479c0,0-0.232,0.736-0.232,0.969c0.232,1.214,0.232,1.698,0.729,2.663
		c0,0,0.229,0.247-0.255,0c19.154,11.883,42.156,13.559,59.841,9.222c0.962,0.471-2.9-3.88-3.397-4.618
		c-1.215-3.146-2.428-3.146-1.438-5.328c0-1.208-0.497-3.386-1.702-4.113c-3.4-4.123,0.712-6.3,1.205-11.145
		c0.497-0.722-0.717-2.671-0.717-3.141c-0.731-1.708-1.949-2.43-2.674-2.43c-5.329,0-8.476,1.695-12.115,4.115
		c-1.926,1.206-3.142,1.7-5.082,2.424c-1.221-0.246-1.944,0-3.158-0.246c-1.209-0.478-0.247-6.293-1.94-6.048
		c-0.949,0.246-2.415,0.477-3.377,0.246c-3.157,0.489-10.184,0.965-13.091,1.687c-0.484,0-3.142,0.722-5.57,0.722
		c-0.969,0.256-1.701,0-2.661,0c-2.182-2.653-3.87-3.141-5.807-5.085c-1.945-1.937,0-4.597,0-7.016
		c-0.499-5.33-5.823-0.977-7.037-2.669c-0.72-1.212-1.203-2.903-1.935-4.358c-1.205-4.849-6.774-8.712-5.563-12.351
		c0-2.67,5.328-0.982,7.267-0.724c5.325-3.874,9.207,1.929,13.55,2.412c0.736-2.412-7.753-5.321-7.265-7.988
		c-0.239-3.392-0.489-6.782-0.718-9.939c-0.242-2.658-0.977-3.866,0.718-6.535c0.985-1.454,1.456-2.42,2.425-3.394
		c0.727-3.396,0.242-4.831,0.242-6.772c0.484-1.94,1.467-6.069-2.667-4.609c-3.65,4.119-2.67,2.178-5.797,5.083
		c-1.71,0-3.396-0.235-5.596-0.474c-1.198-0.976-1.69-2.906-1.69-3.891c-0.228-1.45-0.228-2.651-0.228-4.109
		c0.72-2.186,6.292-2.186,7.258-4.359c0.493-0.974,0.962-1.937,1.215-2.425c0-0.962-1.7-1.702-1.7-2.42
		c1.7-1.46,3.639-2.422,5.316-3.638c0-1.691,0.261-3.389,0.261-4.846c-1.23-3.638-1.939-3.638-5.578-6.049
		c-0.481-1.7-2.42-3.633-2.42-5.085c0-2.907-3.148-3.634-4.841-5.34c-0.962-1.449-2.42-4.359-2.42-5.08c0,1.459,0,3.145,0,4.848
		c-0.244,2.903-1.221,11.136,0,13.315c-0.486,0.969-0.979,1.934-1.221,3.155c-3.875,3.154-4.346,10.179-5.083,17.925
		c-0.722,1.213-5.82,4.6-7.757,5.093c-4.11,1.206-5.804,6.045-9.198,8.221C8.544,115.126,14.105,132.562,21.865,144.913
		L21.865,144.913z"/>
	<path fill="#231F20" d="M93.646,186.667c-10.479,0-26.18-1.985-41.427-11.444c-0.144-0.09-0.18-0.272-0.107-0.429
		c0.024-0.04,0.066-0.085,0.14-0.118c-0.331-0.505-0.412-0.974-0.529-1.61l-0.13-0.719c0-0.325,0.196-0.951,0.247-1.126
		c-0.01-0.255,0.272-0.551,0.316-0.614l1.594-0.075c-0.082-0.736-0.449-1.289-0.771-1.786c-0.449-0.7-0.932-1.41-0.1-2.245
		c0.674-0.092,1.06-0.079,1.401-0.05c0.879,0.065,1.274,0.224,1.42-0.752c-0.563-1.399-0.81-1.632-1.713-2.513l-0.617-0.599
		c-0.25-0.654-0.398-1.242-0.53-1.838c-0.279-1.033-0.533-2.09-0.96-2.824c-1.344-1.04-2.859-1.851-4.176-2.556
		c-0.954-0.505-1.819-0.977-2.532-1.467c-1.476-0.739-2.246-2.01-2.755-3.021c-1.213-1.718-2.155-2.288-3.483-3.069
		c-0.443-0.277-0.951-0.567-1.5-0.935c-0.545-0.318-1.017-0.601-1.506-0.873c-1.25-0.707-2.435-1.369-3.868-2.803
		c-0.747-1.051-1.454-2.447-2.15-3.787c-0.967-1.896-1.966-3.846-2.921-4.673c-0.405-0.195-0.741-0.428-1.004-0.612
		c-0.573-0.421-0.67-0.461-1.284-0.077c-1.043,1.045-0.831,2.608-0.583,4.272c0.155,0.784,0.241,1.294,0.306,1.736
		c0.138,0.927,0.236,1.531,0.892,3.803c0.007,0.607-0.197,0.943-0.51,1.4c-0.178,0.293-0.428,0.673-0.714,1.244
		c-0.058,0.105-0.17,0.19-0.295,0.19c-0.518,0-1.245-0.63-2.157-1.561c-8.997-14.321-13.259-31.783-11.724-47.971
		c1.523-1.126,2.604-2.448,3.735-3.844c1.589-1.937,3.21-3.931,5.701-4.667c1.921-0.484,6.928-3.863,7.573-4.947l0.048-0.878
		c0.694-7.526,1.302-14.033,5.115-17.133c0.128-1.055,0.634-2.053,1.115-3.029c-1.009-1.556-0.593-6.963-0.155-11.896l0.128-1.317
		v-4.819c0-0.351,0.636-0.351,0.636,0c0,0.579,1.345,3.379,2.358,4.905c0.484,0.466,1.116,0.881,1.782,1.314
		c1.535,0.991,3.114,2.022,3.114,4.201c0,0.719,0.605,1.661,1.18,2.573c0.498,0.811,1.011,1.629,1.229,2.423l1.243,0.71
		c2.505,1.61,3.266,2.098,4.338,5.329c0.008,0.804-0.034,1.572-0.096,2.359c-0.067,0.837-0.131,1.716-0.131,2.586
		c-0.799,0.724-1.482,1.168-2.192,1.599c-1.087,0.688-2.218,1.4-3.245,2.285c0.111-0.062,0.452,0.274,0.771,0.552
		c0.491,0.46,1.036,0.962,1.036,1.621l-1.249,2.564c-0.528,1.196-2.221,1.764-3.85,2.317c-1.512,0.512-3.09,1.044-3.401,1.995
		c0.017,1.381,0.017,2.544,0.251,3.971c0.01,1.03,0.507,2.807,1.588,3.681l0.939,0.054c1.627,0.201,3.044,0.361,4.444,0.361
		c1.107-1.15,1.711-1.528,2.255-1.858c0.678-0.425,1.213-0.76,3.303-3.119c1.804-0.744,2.64-0.499,3.204,0.232
		c0.89,1.116,0.323,3.416,0.031,4.653c0,0.46,0.03,0.948,0.065,1.446c0.097,1.327,0.206,2.833-0.321,5.324
		c-0.771,0.838-1.205,1.544-1.756,2.416c-0.228,0.33-0.463,0.693-0.717,1.092c-1.279,1.994-1.1,3.114-0.853,4.799
		c0.059,0.461,0.131,0.971,0.181,1.536c0.201,2.651,0.404,5.479,0.622,8.346l0.108,1.596c-0.222,1.212,1.831,2.622,3.622,3.863
		c2.085,1.44,4.054,2.813,3.63,4.235c-0.041,0.154-0.194,0.215-0.349,0.223c-1.57-0.18-3.095-1.018-4.568-1.841
		c-1.676-0.929-3.394-1.895-5.233-1.895c-1.215,0-2.364,0.412-3.528,1.257c-0.606,0.05-1.106-0.085-1.66-0.2
		c-1.089-0.212-2.459-0.489-3.547-0.489c-1.745,0-1.93,0.661-1.93,1.162c-0.651,2.015,0.75,4.033,2.393,6.369
		c1.285,1.838,2.621,3.749,3.165,5.902c0.31,0.584,0.57,1.274,0.841,1.951c0.348,0.859,0.665,1.67,1.065,2.324
		c0.074,0.1,0.254,0.268,0.741,0.268c0.449,0,0.98-0.112,1.542-0.232c0.659-0.136,1.35-0.279,2.009-0.279
		c1.676,0,2.598,0.991,2.768,3.045c0.008,0.882-0.22,1.76-0.456,2.607c-0.397,1.58-0.792,3.063,0.375,4.219
		c0.776,0.778,1.512,1.316,2.273,1.879c1.107,0.807,2.245,1.633,3.561,3.228c0.086-0.106,0.411-0.094,0.703-0.054
		c0.564,0.049,1.131,0.068,1.638-0.043c1.717-0.01,3.509-0.359,4.59-0.567c0.523-0.103,0.899-0.169,1.052-0.169
		c1.75-0.453,5.185-0.807,8.214-1.13c1.891-0.199,3.623-0.386,4.813-0.569c1.342,0.251,2.686-0.059,3.365-0.235
		c1.236,0.007,1.462,1.756,1.588,3.473c0.072,0.969,0.183,2.457,0.555,2.591c0.517,0.111,0.983,0.144,1.454,0.111
		c0.495,0,1.005,0,1.646,0.124c1.743-0.709,2.923-1.187,4.842-2.38c3.424-2.28,6.702-4.175,12.286-4.175
		c0.88,0,2.186,0.829,2.956,2.619c0.035,0.229,0.197,0.604,0.301,0.882c0.36,0.869,0.815,1.945,0.403,2.574
		c-0.141,1.693-0.818,3.145-1.439,4.435c-1.052,2.258-1.82,3.876,0.206,6.326c1.256,0.737,1.761,3.048,1.761,4.316
		c-0.595,1.401-0.366,1.773,0.236,2.795c0.345,0.573,0.764,1.299,1.205,2.418c0.116,0.163,0.587,0.727,1.124,1.385
		c2.37,2.847,2.555,3.179,2.408,3.486c-0.055,0.12-0.201,0.219-0.34,0.219C106.372,185.936,100.091,186.667,93.646,186.667
		L93.646,186.667z M52.96,174.934c14.989,9.171,30.39,11.103,40.686,11.103c6.303,0,12.447-0.711,18.257-2.11
		c-0.417-0.61-1.459-1.882-2.141-2.701c-0.565-0.67-1.045-1.267-1.198-1.485c-0.449-1.14-0.873-1.833-1.18-2.396
		c-0.631-1.043-1.012-1.667-0.302-3.244c-0.032-1.047-0.513-3.083-1.563-3.723c-2.362-2.818-1.436-4.787-0.378-7.055
		c0.592-1.249,1.254-2.669,1.429-4.385c0.287-0.488-0.146-1.505-0.399-2.117c-0.202-0.492-0.333-0.783-0.333-0.993
		c-0.668-1.506-1.774-2.113-2.34-2.113c-5.411,0-8.604,1.839-11.941,4.07c-1.961,1.227-3.238,1.738-5.15,2.457
		c-0.763-0.107-1.218-0.142-1.682-0.107c-0.504,0-1.011,0-1.635-0.124c-0.793-0.319-0.897-1.632-0.997-3.165
		c-0.112-1.221-0.244-2.891-0.788-2.891c-0.784,0.181-2.551,0.497-3.575,0.242c-1.057,0.187-2.828,0.369-4.698,0.565
		c-3.022,0.324-6.424,0.677-8.217,1.121c-0.221,0.016-0.552,0.075-1.026,0.17c-1.091,0.212-2.916,0.568-4.625,0.568
		c-0.456,0.125-1.116,0.104-1.767,0.06c-0.287-0.029-0.576-0.06-0.894-0.06c-1.506-1.653-2.614-2.454-3.665-3.235
		c-0.776-0.554-1.562-1.131-2.371-1.939c-1.416-1.421-0.96-3.152-0.52-4.84c0.196-0.807,0.423-1.629,0.423-2.411
		c-0.195-2.149-1.205-2.44-2.142-2.44c-0.594,0-1.247,0.143-1.883,0.259c-1.326,0.28-2.458,0.367-2.953-0.309
		c-0.425-0.717-0.762-1.546-1.1-2.425c-0.263-0.673-0.537-1.339-0.856-1.973c-0.537-2.103-1.839-3.957-3.084-5.762
		c-1.662-2.371-3.243-4.621-2.502-6.834c-0.015-0.715,0.433-1.692,2.551-1.692c1.161,0,2.557,0.282,3.67,0.503
		c0.545,0.117,1.019,0.207,1.388,0.254c1.063-0.872,2.333-1.324,3.678-1.324c2.001,0,3.808,0.999,5.538,1.971
		c1.381,0.771,2.686,1.494,4.021,1.72c-0.06-0.939-1.827-2.164-3.404-3.255c-2.15-1.489-4.168-2.884-3.883-4.436l-0.133-1.502
		c-0.183-2.853-0.39-5.69-0.607-8.345c-0.051-0.544-0.116-1.029-0.182-1.488c-0.251-1.764-0.444-3.037,0.967-5.245
		c0.256-0.39,0.473-0.752,0.689-1.079c0.59-0.916,1.031-1.634,1.774-2.359c0.421-2.253,0.332-3.646,0.217-4.991
		c-0.024-0.513-0.061-1.028-0.061-1.564c0.249-1.129,0.795-3.318,0.103-4.199c-0.39-0.501-1.18-0.526-2.362-0.109
		c-2.011,2.342-2.596,2.704-3.323,3.156c-0.505,0.314-1.087,0.67-2.375,1.864c-1.638,0.077-3.07-0.09-4.723-0.274l-1.11-0.126
		c-1.461-1.131-1.979-3.158-1.979-4.202c-0.227-1.423-0.227-2.668-0.227-4.109c0.433-1.349,2.067-1.915,3.803-2.5
		c1.507-0.507,3.057-1.038,3.485-1.994l1.214-2.433c-0.017-0.237-0.481-0.646-0.863-1.013c-0.441-0.404-0.854-0.792-0.854-1.264
		c1.153-1.15,2.329-1.87,3.436-2.571c0.683-0.437,1.374-0.867,2.025-1.328c-0.138-0.629-0.074-1.521-0.008-2.366
		c0.044-0.779,0.106-1.528,0.106-2.219c-0.984-2.913-1.558-3.301-4.06-4.89l-1.358-0.892c-0.343-0.889-0.828-1.684-1.298-2.439
		c-0.659-1.049-1.27-2.018-1.27-2.915c0-1.834-1.365-2.726-2.824-3.667c-0.674-0.438-1.386-0.887-1.931-1.442
		c-0.579-0.873-1.351-2.251-1.872-3.432l-0.123,4.323c-0.31,3.233-0.934,9.986,0.082,11.812c0.042,0.095,0.056,0.201,0,0.289
		c-0.486,0.981-0.935,1.91-1.182,3.086c-3.72,3.096-4.307,9.482-4.988,16.868l-0.083,1.009c-0.837,1.471-6.047,4.888-8.006,5.371
		c-2.278,0.675-3.847,2.6-5.359,4.457c-1.127,1.372-2.275,2.795-3.748,3.74c-1.366,15.813,2.848,33.137,11.722,47.28
		c0.841,0.838,1.277,1.148,1.509,1.259c0.25-0.476,0.472-0.812,0.645-1.092c0.28-0.431,0.42-0.625,0.42-0.967
		c-0.661-2.215-0.765-2.868-0.905-3.787c-0.062-0.432-0.152-0.937-0.306-1.719c-0.245-1.772-0.507-3.574,0.814-4.892
		c1.107-0.687,1.455-0.372,2.06,0.062c0.244,0.172,0.529,0.396,0.974,0.612c1.108,0.937,2.11,2.864,3.137,4.909
		c0.685,1.317,1.386,2.686,2.07,3.667c1.326,1.326,2.422,1.938,3.686,2.652c0.496,0.266,0.998,0.553,1.547,0.894
		c0.544,0.367,1.035,0.655,1.482,0.914c1.336,0.8,2.396,1.423,3.697,3.287c0.519,1.036,1.205,2.127,2.548,2.803
		c0.734,0.523,1.573,0.971,2.487,1.46c1.35,0.722,2.899,1.531,4.353,2.698c0.571,0.905,0.834,2.014,1.094,3.086
		c0.143,0.579,0.291,1.151,0.456,1.662l0.541,0.482c0.933,0.909,1.26,1.211,1.894,2.896c-0.188,1.371-0.684,1.533-2.083,1.444
		c-0.336-0.009-0.702-0.036-1.132-0.036c-0.23,0.341-0.092,0.627,0.392,1.354c0.404,0.599,0.901,1.35,0.901,2.442
		c0,0.17-0.146,0.315-0.308,0.315H52.44c0.091,0.02,0.015,0.116,0.015,0.162c-0.128,0.435-0.239,0.868-0.239,0.969l0.135,0.662
		c0.133,0.714,0.212,1.157,0.564,1.863C52.925,174.844,52.934,174.889,52.96,174.934L52.96,174.934z"/>
	<path d="M415.95,161.746c-11.881,0-22.492-2.382-31.479-7.064c-9.074-4.707-16.064-11.501-20.833-20.202
		c-4.728-8.648-7.238-19.063-7.451-30.959c0-13.356,2.854-24.701,8.49-33.727c5.614-9.034,12.844-15.767,21.473-19.995
		c8.21-4.034,16.664-6.069,25.114-6.069l1.251,0.013c19.695,0.407,33.731,5.076,41.688,13.871
		c7.901,8.719,12.711,19.503,14.382,32.069l0.222,1.663h-36.917l-0.14-1.311c-0.759-6.759-2.911-11.252-6.47-13.358
		c-3.751-2.221-7.561-3.357-11.305-3.357c-6.725,0-11.424,2.738-14.359,8.368c-3.06,5.867-4.586,13.199-4.586,21.806
		c0,19.005,6.456,28.379,19.745,28.66c9.811,0,15.419-5.679,17.119-17.37l0.2-1.247h37.264l-0.167,1.614
		c-1.442,13.729-6.873,25.047-16.142,33.622C443.805,157.379,431.307,161.746,415.95,161.746L415.95,161.746z M293.325,158.705
		h-48.262V46.618h48.565c11.953,0,22.437,1.824,31.211,5.411c8.888,3.638,15.888,9.481,20.828,17.382
		c4.914,7.868,7.414,18.222,7.414,30.752c0,20.636-5.294,35.731-15.724,44.855C327.013,154.104,312.174,158.705,293.325,158.705
		L293.325,158.705z M184.275,158.705h-38.819V46.618h87.878v28.376h-49.059v16.889h38.906v28.374h-38.906V158.705L184.275,158.705z
		 M137.794,158.705H98.977V46.618h38.817V158.705L137.794,158.705z M283.899,130.345h6.545c7.421,0,13.153-2.007,17.042-5.958
		c4.647-4.724,6.939-12.458,6.768-22.994c0-9.977-1.778-16.947-5.28-20.738c-3.464-3.761-10.322-5.662-20.348-5.662h-4.727V130.345
		L283.899,130.345z"/>
</g>
</svg>
