<?xml version="1.0" encoding="utf-8"?>
<!-- Generator: Adobe Illustrator 16.0.0, SVG Export Plug-In . SVG Version: 6.00 Build 0)  -->
<!DOCTYPE svg PUBLIC "-//W3C//DTD SVG 1.1//EN" "http://www.w3.org/Graphics/SVG/1.1/DTD/svg11.dtd">
<svg version="1.1" id="Layer_1" xmlns="http://www.w3.org/2000/svg" xmlns:xlink="http://www.w3.org/1999/xlink" x="0px" y="0px"
	 width="561px" height="206px" viewBox="0 0 561 206" enable-background="new 0 0 561 206" xml:space="preserve">
<path id="blue_world_circle_1_" fill="#CDD1D6" d="M102.528,205.119c28.043,0,53.988-11.803,72.297-30.092
	c18.584-17.701,30.072-43.955,30.072-71.98c0-28.023-11.488-53.988-30.072-72.578c-18.594-18.58-44.254-30.086-72.297-30.086
	c-27.725,0-53.389,11.506-71.965,30.086C12.284,49.059,0.472,75.023,0.472,103.047c0,28.025,11.492,54.279,30.092,71.98
	C48.843,193.316,74.804,205.119,102.528,205.119L102.528,205.119z"/>
<path id="world_circle_outline_1_" fill="#231F20" d="M102.528,205.514c-26.703,0-53.051-11.018-72.246-30.213
	C11.095,157.018,0.067,130.68,0.067,103.047c0-26.789,11.004-53.334,30.215-72.85C49.478,11.004,75.825,0,102.528,0
	c27.311,0,53.086,10.725,72.572,30.197c19.182,19.195,30.188,45.742,30.188,72.85c0,27.643-11.02,53.971-30.205,72.266
	C155.897,194.496,129.452,205.514,102.528,205.514L102.528,205.514z M102.528,0.764c-26.492,0-52.631,10.932-71.705,29.979
	C11.78,50.105,0.86,76.463,0.86,103.047c0,27.424,10.92,53.561,29.963,71.705c19.074,19.053,45.199,29.986,71.705,29.986
	c26.713,0,52.959-10.934,72.006-29.986c19.061-18.145,29.998-44.281,29.998-71.705c0-26.902-10.938-53.258-29.998-72.305
	C155.22,11.412,129.636,0.764,102.528,0.764L102.528,0.764z"/>
<path fill="#A8A8A8" d="M194.282,147.885l6.789-18.289c-2.354-2.063-1.766-1.178-4.127-5.303
	c-3.832-11.51-18.58-13.287-19.461-21.838c0.881-7.076,3.814-14.744,1.465-19.771c-0.584,0-1.465-0.576-2.061-0.875
	c-3.242,0-3.242,6.195-7.963,6.48c-4.135,5.898-8.844,2.363-12.693,2.363c-0.584-0.287-0.584-1.48-0.584-2.648
	c0-2.668,4.709,1.76,9.143-1.191c0-1.477,0.287-2.932,2.059-3.832c4.129-2.648,5.33-4.125,2.67-7.078
	c-5.326-1.176-8.873,6.781-13.871,6.494c-2.369,0-2.67-4.727-2.965-4.727c-1.754-9.734,17.408-12.096,16.836-16.516
	c-4.145-2.951-8.873-10.621-6.781-14.75c-1.496-1.475-6.506-12.086-6.221-15.049c2.088-2.066,5.326-1.762,7.08-3.24
	c2.66-0.887,3.252-0.887,6.201-2.365l-6.201-4.715c0,0,0,0-0.287,0c-5.602,3.541-14.158,5.604-18.295,0.879
	c0-2.055,2.074-2.055,5.316-3.834c2.352,0.604,4.123,2.066,5.604-2.059c-2.656-2.943-6.479-4.133-10.025-6.207
	c-3.539,2.367-3.836,2.074-8.26,2.957c-2.957,1.18-2.656,3.25-5.912,5.309c-1.467,0-2.943,0-4.105,0
	c-3.854-1.172-4.441-4.129-7.098-7.076c-6.189-5.305-9.15-2.65-15.342-0.602c-0.295,0.301-0.582,0.602-0.869,0.602
	c0,0.584-2.072,6.182-4.146,6.182c-1.752,0.301-8.85-0.578-9.143-3.83c-1.188-0.879-2.348-1.467-3.84-2.055
	c-0.887,0-2.645-0.297-3.533,2.055c0,0.596,0,1.486,0,2.064c0.889,2.066,0.889,0.602,2.646,3.264c0,2.352,0.293,2.643-0.58,5.002
	c-2.367,0.891-1.178,0.891-4.432,1.479c-3.836,0.586-6.492-0.889-8.834,0.297c-1.783,0.289-5.324,0.594-5.914-1.477
	c0-2.949,1.191-6.203,0.59-9.143c-1.172,0-1.475-1.486-3.244,0.879c-0.885,0.887-0.885,2.963-0.885,4.727c0,0.289,0,1.467,0,1.768
	c-0.59,0.873-1.768,2.061-1.768,2.646c-2.654,3.836-5.916,4.428-8.262,7.387c-2.363,2.947,5.303,0.875,7.375,0.875
	c3.539,0,4.744-2.068,8.26-2.945c2.359-0.889,4.734-0.889,7.084-0.889c0.295-0.295,2.059,0,2.059,0
	c1.48,1.18,0.588,2.658,1.48,4.729c0.592,1.178,5.891,4.133,5.312,3.832c0.578,0,1.758,0.596,1.758,0.596
	c1.477,0.58,3.25,0.281,4.727,0.281c2.957,0.592,0,2.078,5.322,4.125c3.234,1.486,4.107,1.199,6.475,3.254
	c0.6,0.586,1.191,1.479,1.779,2.363c0.582,0.289,1.457,1.186,1.457,1.471c0.605,2.359,0.605,2.951,2.957,2.662
	c2.359-0.303,3.842-0.594,6.783-0.303c-1.172,6.203-2.342,0.303-7.953,7.967c1.775,3.541,1.455,2.662,3.252,5.029
	c0,0.879-1.477,2.049-1.797,3.23c-1.17,2.951-1.455,4.139,0.32,6.793c0.592,0.584,1.477,1.463,1.754,2.059
	c0.602,0.594,1.189,2.955,1.482,2.955c0.6,1.178,1.77,2.648,2.662,4.129c1.182,0.586,2.945-0.891,2.945-1.777
	c-0.289-2.352-1.174-5.014-1.467-7.66c0-0.297,0-0.893,0-1.471c-0.297-1.482-1.479-2.654-0.607-3.855
	c2.074-2.354,3.252-2.354,3.84-4.707c0.879-0.297,1.773-0.297,2.951,0.305c0.588,2.352,0.287,1.461,2.084,4.703
	c1.455,0.9,0.865,3.555-0.602,7.672c0,3.84,0,6.211,1.467,9.74c0,2.066,0.59,3.543,0.59,5.607c0.588,2.051,1.482,4.715,2.064,6.189
	c0,3.84,0.598,10.615,1.477,14.147c0.576,0.304,2.373,0.605,2.947,0.605c3.848,0.582,4.432-2.955,4.432-3.846
	c1.199-2.057,5.891-7.365,7.662-11.197c0.889-1.477,2.078-3.246,3.242-4.73c0.902-0.873,1.777,0.307,2.375,0.307
	c1.754,0.574,0.572,2.947,0.572,5.014c0,0.289,1.777,1.176,1.477,1.467c-0.295,1.176-1.178,1.775-2.049,2.951
	c-2.375,2.072-3.234,3.83-3.84,6.791c-1.18,2.941-1.18,3.244-1.777,6.189c0,0.602-0.881,2.354-1.166,2.954
	c-2.369,4.13-5.297,4.73-8.855,6.779c-0.598,2.072,0.881,7.082,1.775,9.144c1.479,2.67,2.338,3.84,6.188,3.84
	c0.584,0,0.287,0,0.893,0c2.943-0.297,4.408-1.17,7.654-1.17c1.775,0.573,1.775,0.873,2.955,1.473
	c1.762,2.353,4.441,5.005,8.555,5.005c1.48-0.3,4.734,0,6.209-0.576c1.459,0,3.236,1.174,4.701,0.879
	c1.189-0.603,2.668-2.068,4.145-2.068c1.477,0,2.361,0.291,4.131,0.291c0.887,0.301,1.762,0.301,2.639,0.301
	c1.486,0.875,1.486,1.477,3.852,1.477c1.756-0.303,1.756,0,3.521,0.877C192.817,146.701,194.587,147.299,194.282,147.885
	L194.282,147.885z"/>
<path fill="#231F20" d="M194.323,148.197c-0.055,0-0.09,0-0.137-0.021c-0.035-0.016-0.082-0.034-0.125-0.069
	c-0.119-0.08-0.184-0.203-0.119-0.353l0,0c-0.09-0.149-0.52-0.414-0.752-0.584c-0.451-0.28-0.846-0.539-1.027-0.873l-0.689-0.278
	c-0.973-0.547-1.178-0.617-2.432-0.398c-1.885,0.049-2.467-0.389-3.221-0.932c-0.236-0.188-0.516-0.396-0.869-0.597
	c-0.707,0.056-1.641,0.048-2.584-0.266c-0.822,0-1.508-0.062-2.182-0.146c-0.59-0.072-1.139-0.134-1.822-0.134
	c-0.881,0-1.863,0.664-2.715,1.257c-0.43,0.295-0.867,0.579-1.25,0.768c-0.277,0.08-0.477,0.098-0.674,0.098
	c-0.727,0-1.52-0.258-2.264-0.494c-0.703-0.236-1.371-0.438-1.943-0.438c-0.805,0.34-2.299,0.381-3.754,0.414
	c-0.928,0.022-1.787,0.041-2.385,0.152h-0.02c-4.529,0.018-7.246-2.931-8.906-5.154c-0.297-0.09-0.568-0.279-0.84-0.447
	c-0.449-0.281-0.814-0.529-1.916-0.891c-1.742,0.014-2.992,0.307-4.309,0.619c-0.973,0.219-1.979,0.461-3.217,0.571l-0.92,0.019
	c-4.117,0-5.039-1.388-6.535-4.039c-0.902-2.154-2.428-7.256-1.805-9.441c1.012-0.721,1.805-1.125,2.586-1.508
	c2.439-1.232,4.555-2.309,6.295-5.371c0.988-1.959,1.143-2.561,1.143-2.756l0.139-0.807c0.467-2.328,0.566-2.816,1.656-5.521
	c0.615-3.143,1.627-4.914,3.938-6.934c0.24-0.338,0.529-0.652,0.801-0.95c0.529-0.615,0.967-1.094,1.143-1.814
	c-0.02,0-0.414-0.273-0.637-0.439c-0.523-0.385-0.859-0.604-0.859-0.934c0-0.635,0.117-1.301,0.227-1.934
	c0.275-1.686,0.295-2.428-0.547-2.709c-0.207,0.018-0.445-0.15-0.74-0.301c-0.26-0.154-0.527-0.314-0.773-0.314
	c-0.111,0-0.238,0.02-0.449,0.221c-1.018,1.289-2.199,3.002-3.182,4.635c-1.129,2.449-3.432,5.479-5.285,7.9
	c-1.062,1.385-1.949,2.584-2.395,3.311c0.072,1.078-0.74,4.658-4.797,4.019c-0.662-0.035-2.406-0.276-3.094-0.621
	c-1.068-3.771-1.674-10.586-1.674-14.506c-0.555-1.355-1.461-4.021-2.051-6.088c-0.012-1.107-0.156-1.969-0.289-2.85
	c-0.16-0.896-0.295-1.799-0.295-2.859c-1.49-3.461-1.49-5.824-1.49-9.74c1.367-3.914,2.027-6.584,0.777-7.336l-1.035-1.756
	c-0.754-1.307-0.754-1.332-1.109-2.756l-0.1-0.449c-0.607-0.07-1.43-0.307-2.262-0.07c-0.402,1.475-1.102,2.062-2.021,2.869
	c-0.506,0.436-1.123,0.969-1.822,1.795c-0.443,0.555-0.232,1.119,0.178,2.059c0.18,0.463,0.385,0.91,0.492,1.451v1.547
	c0.162,1.346,0.467,2.752,0.785,4.094c0.289,1.219,0.555,2.4,0.703,3.521c0,1.205-2.158,2.842-3.508,2.166
	c-0.561-0.773-0.973-1.414-1.41-2.025c-0.52-0.766-1.02-1.518-1.359-2.17c-0.225-0.164-0.402-0.594-0.676-1.297
	c-0.227-0.584-0.531-1.412-0.799-1.654c-0.348-0.656-1.289-1.605-1.775-2.072c-1.863-2.797-1.596-4.117-0.369-7.203
	c0.133-0.598,0.578-1.184,1.01-1.764c0.348-0.482,0.727-1.01,0.727-1.324c-0.396-0.414-0.727-0.826-0.992-1.121
	c-0.691-0.861-0.912-1.127-2.219-3.738c-0.053-0.135-0.053-0.281,0.047-0.395c2.938-4.031,4.734-4.438,5.93-4.709
	c0.932-0.199,1.379-0.305,1.887-2.688c-2.279-0.189-3.672-0.01-5.414,0.225l-0.867,0.109c-2.654,0.346-2.781-0.578-3.279-2.557
	l-0.09-0.383c-0.07-0.25-0.762-0.967-1.268-1.225c-0.727-0.994-1.309-1.859-1.877-2.436c-1.5-1.299-2.336-1.605-3.748-2.104
	c-0.703-0.266-1.516-0.559-2.627-1.064c-3.135-1.213-3.547-2.297-3.85-3.084c-0.188-0.52-0.295-0.809-1.387-1.018
	c-0.258,0.008-0.643,0.033-1.027,0.045c-1.045,0.035-2.287,0.227-3.754-0.355c-0.416-0.205-1.098-0.504-1.494-0.549
	c-0.041,0-0.049,0.012-0.078,0.012l0,0c-0.072,0-0.16-0.041-0.221-0.059c-0.059-0.037-0.1-0.074-0.152-0.133l-0.174-0.092
	c-3.223-1.906-4.807-3.078-5.174-3.791c-0.381-0.941-0.461-1.748-0.518-2.447c-0.072-0.9-0.121-1.553-0.822-2.131
	c-0.027,0.021-0.668-0.055-1.199-0.055c-0.305,0-0.395,0.039-0.406,0.039c-2.639,0.088-4.891,0.088-7.18,0.953
	c-1.5,0.373-2.537,0.938-3.539,1.484c-1.402,0.768-2.717,1.482-4.861,1.482c-0.518,0-1.396,0.129-2.389,0.281
	c-1.301,0.205-2.748,0.424-3.85,0.424c-0.66,0-1.596-0.07-1.893-0.686c-0.287-0.604,0.268-1.307,0.457-1.533
	c1.09-1.365,2.33-2.223,3.645-3.119c1.572-1.074,3.17-2.172,4.594-4.234c-0.062-0.305,0.457-0.961,1.053-1.713
	c0.25-0.328,0.527-0.645,0.719-0.928l-0.074-1.559c0-1.877,0-3.998,1.002-4.996c1.16-1.555,2.111-1.541,2.814-1.217
	c0.391,0.188,0.992,0.096,1.102,0.523c0.355,1.85,0.061,3.795-0.23,5.67c-0.184,1.238-0.363,2.406-0.363,3.557
	c0.314,1.045,1.898,1.291,3.191,1.291c0.822,0,1.645-0.09,2.262-0.197c0.977-0.531,2.566-0.531,4.363-0.328
	c1.314,0.145,2.795,0.303,4.479,0.041c2.025-0.371,2.264-0.496,2.758-0.766c0.307-0.17,0.727-0.373,1.609-0.701
	c0.436-1.523,0.393-2.043,0.355-3.299c0-0.373-0.023-0.811-0.023-1.342c-0.779-1.061-1.197-1.33-1.494-1.533
	c-0.395-0.264-0.67-0.486-1.137-1.57l-0.025-2.225c0.805-2.219,2.264-2.457,3.314-2.457l0.348,0.01c0.037,0,0.363,0.012,0.406,0.025
	c1.688,0.688,2.805,1.293,3.938,2.109c0.357,2.75,5.49,3.822,8.09,3.822c0.287,0,0.555-0.016,0.754-0.051
	c1.746,0,3.768-5.176,3.797-5.811c0.014-0.215,0.18-0.393,0.398-0.393c0.119,0,0.42-0.279,0.598-0.471
	c1.184-0.445,2.096-0.799,2.98-1.129c4.652-1.779,8.131-2.379,12.869,1.691c0.916,0.992,1.555,1.932,2.145,2.82
	c1.297,1.904,2.32,3.416,4.83,4.188l3.992-0.018c1.291-0.879,1.998-1.805,2.658-2.691c0.746-0.99,1.449-1.924,3.104-2.598
	l1.994-0.375c2.688-0.494,3.322-0.617,6.209-2.529c0.117-0.078,0.275-0.084,0.395-0.012c1.08,0.629,2.182,1.178,3.285,1.711
	c2.537,1.258,4.945,2.457,6.85,4.566c0.078,0.09,0.117,0.242,0.078,0.385c-0.771,2.123-1.686,3.064-3.031,3.064
	c-0.625,0-1.279-0.213-1.953-0.441c-0.359-0.1-0.715-0.221-1.094-0.318c-0.703,0.508-1.578,0.877-2.338,1.207
	c-1.766,0.754-2.482,1.109-2.482,2.252c1.418,1.484,3.652,2.371,6.508,2.371c3.471,0,7.645-1.35,11.166-3.588
	c0.158-0.072,0.625-0.072,0.75,0.02l6.188,4.732c0.131,0.068,0.17,0.199,0.16,0.33c-0.02,0.145-0.092,0.26-0.199,0.32
	c-2.236,1.119-3.143,1.402-4.609,1.846l-1.656,0.537c-0.723,0.643-1.84,0.965-3.043,1.295c-1.379,0.375-2.799,0.789-3.885,1.85
	c-0.17,2.613,4.781,13.074,6.205,14.498c0.133,0.123,0.15,0.297,0.08,0.453c-1.938,3.861,2.637,11.393,6.65,14.258
	c0.438,2.309-2.506,3.758-6.223,5.59c-5.068,2.48-11.348,5.574-10.445,11.051c0.107,0.172,0.18,0.471,0.277,0.912
	c0.301,1.27,0.875,3.613,2.312,3.613c2.449-0.023,4.234-1.535,6.205-3.172c2.332-1.957,4.879-3.936,7.746-3.301
	c1.379,1.42,1.834,2.449,1.695,3.447c-0.209,1.469-1.695,2.701-4.232,4.326c-1.66,0.838-1.875,2.184-1.875,3.51
	c0,0.135-0.066,0.262-0.189,0.33c-1.141,0.754-2.369,1.127-3.799,1.127c-1.207,0-2.338-0.279-3.262-0.502
	c-1.109-0.258-1.902-0.748-1.902,0.236c0,0.887,0,2.117,0.375,2.307c0.936-0.021,1.955,0.203,3.102,0.461
	c1.164,0.275,2.367,0.543,3.537,0.543c2.236,0,4.004-1.025,5.549-3.254c2.65-0.293,3.729-2.039,4.781-3.721
	c0.932-1.506,1.805-2.922,3.51-2.922l0.664,0.312c0.465,0.248,1.049,0.561,1.396,0.561c0.15,0,0.275,0.096,0.34,0.225
	c1.734,3.682,0.734,8.594-0.33,13.801c-0.43,2.043-0.852,4.158-1.104,6.191c0.432,3.883,3.98,6.352,8.125,9.189
	c4.363,3.016,9.32,6.43,11.33,12.463l0.441,0.75c1.496,2.613,1.496,2.613,2.686,3.615l0.896,0.785
	c0.107,0.102,0.164,0.27,0.107,0.413l-6.773,18.226C194.612,148.107,194.462,148.197,194.323,148.197L194.323,148.197z
	 M190.028,144.738c0.713,0,1.139,0.229,1.834,0.596l0.842,0.438c0.25,0.318,0.629,0.576,0.924,0.763
	c0.193,0.139,0.412,0.268,0.605,0.416l6.393-17.24l-0.684-0.582c-1.307-1.094-1.344-1.146-2.879-3.849l-0.463-0.803
	c-1.945-5.846-6.795-9.192-11.08-12.139c-4.102-2.822-7.969-5.508-8.424-9.852c0.258-2.15,0.672-4.268,1.105-6.336
	c1.004-4.965,1.984-9.666,0.488-13.102c-0.488-0.08-1.031-0.383-1.516-0.645l-0.463-0.252c-1.096,0.045-1.83,1.221-2.672,2.588
	c-1.113,1.775-2.342,3.777-5.104,3.943c-1.41,2.27-3.377,3.406-5.889,3.406c-1.26,0-2.492-0.287-3.713-0.561
	c-1.078-0.25-2.133-0.482-3.104-0.482c-0.969-0.439-0.969-1.711-0.969-3.043c0-1.32,1.086-1.426,2.881-0.984
	c1.768,0.43,4.395,0.748,6.262-0.412c0.027-1.383,0.361-3.006,2.273-3.969c2.246-1.449,3.684-2.59,3.852-3.764
	c0.104-0.75-0.324-1.609-1.309-2.709c-0.127,0.045-0.465,0.006-0.801,0.006c-2.182,0-4.158,1.652-6.08,3.244
	c-1.984,1.664-4.027,3.371-6.443,3.371c-2.322-0.008-2.957-2.746-3.305-4.219c-0.08-0.271-0.145-0.582-0.188-0.668
	c-1.207-6.285,5.434-9.547,10.76-12.176c3.162-1.551,6.146-3.033,5.959-4.529c-3.982-2.686-8.738-10.346-6.861-14.725
	c-1.697-2.09-6.408-12.168-6.111-15.152c1.311-1.443,2.912-1.891,4.324-2.289c1.105-0.312,2.152-0.604,2.875-1.215
	c0.805-0.289,1.332-0.457,1.803-0.605c1.301-0.404,2.133-0.662,3.91-1.521l-5.703-4.352c-3.496,2.332-7.84,3.717-11.441,3.717
	c-3.045,0-5.539-0.994-7.191-2.877c-0.098-1.961,1.143-2.488,2.877-3.234c0.711-0.318,1.588-0.668,2.529-1.195
	c0.697,0.057,1.064,0.182,1.426,0.297c0.631,0.209,1.203,0.396,1.719,0.396c0.662,0,1.434-0.281,2.209-2.338
	c-1.752-1.885-4.055-3.016-6.453-4.213c-1.045-0.514-2.086-1.025-3.117-1.619c-2.842,1.893-3.609,2.025-6.266,2.518l-1.92,0.365
	c-1.402,0.561-1.986,1.326-2.719,2.316c-0.686,0.896-1.457,1.926-3.064,2.941l-4.316,0.062c-2.881-0.873-4.021-2.555-5.344-4.51
	c-0.582-0.867-1.217-1.781-2.039-2.705c-4.441-3.803-7.615-3.223-12.072-1.516c-0.893,0.336-1.832,0.688-2.871,1.031
	c-0.131,0.195-0.357,0.436-0.658,0.549c-0.35,1.42-2.309,6.256-4.471,6.256c-0.158,0.035-0.455,0.061-0.803,0.061
	c-2.629,0-8.43-1.066-8.715-4.246c-0.893-0.502-1.998-1.08-3.602-1.736l-0.465,0.018c-0.934,0-1.963,0.207-2.59,1.816l0.051,1.93
	c0.367,0.775,0.547,0.891,0.822,1.084c0.367,0.246,0.842,0.561,1.76,1.951c0.074,0.75,0.09,1.178,0.109,1.531
	c0.037,1.295,0.055,1.936-0.66,3.83c-1.047,0.543-1.447,0.73-1.725,0.898c-0.607,0.314-0.939,0.449-2.984,0.832
	c-1.814,0.271-3.344,0.102-4.691-0.029c-1.654-0.186-3.021-0.232-4.061,0.301c-0.758,0.135-1.607,0.246-2.492,0.246
	c-2.797,0-3.691-1.086-3.949-1.984c-0.037-1.293,0.172-2.557,0.365-3.775c0.25-1.715,0.529-3.473,0.275-5.113
	c-0.293-0.061-0.518-0.152-0.729-0.258c-0.594-0.289-0.996-0.156-1.895,1.025c-0.799,0.818-0.799,2.854-0.799,4.488v1.768
	c-0.268,0.52-0.549,0.855-0.824,1.193c-0.365,0.477-0.963,1.205-0.963,1.453c-1.568,2.395-3.242,3.553-4.842,4.656
	c-1.277,0.867-2.477,1.693-3.498,2.975c-0.355,0.42-0.373,0.652-0.355,0.715c0,0.008,0.141,0.234,1.197,0.234
	c1.039,0,2.479-0.205,3.738-0.404c1.025-0.156,1.945-0.287,2.5-0.287c1.943,0,3.127-0.656,4.48-1.395
	c1.021-0.545,2.133-1.168,3.691-1.559c2.367-0.887,4.822-0.887,7.172-0.887c-0.23-0.145,2.139,0,2.139,0
	c1.152,0.867,1.23,1.795,1.307,2.766c0.051,0.67,0.104,1.383,0.457,2.195c0.178,0.348,1.182,1.262,4.84,3.457l0.328,0.201
	c0.438-0.082,1.594,0.5,1.725,0.564c0.799,0.316,2.074,0.352,3.391,0.285c0.385-0.018,0.775-0.039,1.15-0.039
	c1.479,0.291,1.768,0.787,2.021,1.508c0.27,0.691,0.605,1.551,3.432,2.652c1.09,0.506,1.914,0.791,2.619,1.047
	c1.404,0.514,2.369,0.852,3.996,2.271c0.623,0.645,1.238,1.561,1.826,2.441c0.406,0.145,1.549,1.133,1.549,1.68l0.088,0.297
	c0.531,2.188,0.662,2.193,2.416,1.979l0.846-0.109c1.908-0.246,3.4-0.451,6.037-0.186c0.088,0.004,0.211,0.062,0.248,0.152
	c0.074,0.088,0.107,0.199,0.074,0.301c-0.586,3.15-1.234,3.432-2.541,3.73c-1.055,0.221-2.656,0.592-5.359,4.197
	c1.203,2.342,1.373,2.582,2.033,3.367c0.271,0.316,0.607,0.729,1.074,1.377c0.08,0.812-0.34,1.414-0.803,2.041
	c-0.369,0.504-0.764,1.039-0.885,1.533c-1.172,2.932-1.449,3.951,0.24,6.479c0.672,0.666,1.475,1.496,1.789,2.111
	c0.291,0.266,0.611,1.059,0.916,1.834c0.139,0.359,0.334,0.863,0.414,0.971c0.475,0.805,0.984,1.549,1.529,2.334
	c0.438,0.619,0.854,1.26,1.27,1.904c-0.039-0.072,0.088-0.045,0.248-0.045c0.912,0,1.975-1,1.975-1.525
	c-0.143-1.043-0.408-2.193-0.678-3.387c-0.305-1.373-0.625-2.795-0.779-4.238l-0.025-1.506c-0.064-0.373-0.258-0.807-0.432-1.234
	c-0.387-0.92-0.803-1.869-0.09-2.84c0.797-0.893,1.424-1.441,1.943-1.898c0.939-0.803,1.486-1.277,1.834-2.678
	c0.029-0.135,0.129-0.238,0.258-0.285c1.123-0.371,2.09-0.258,3.242,0.32l0.33,0.699c0.314,1.33,0.314,1.33,1.008,2.559l0.902,1.617
	c1.557,0.895,0.994,3.627-0.584,7.994c0.031,3.686,0.031,5.996,1.479,9.453c0.029,1.158,0.18,2.023,0.338,2.891
	c0.146,0.904,0.281,1.803,0.281,2.867c0.572,1.922,1.449,4.576,2.037,6.051c0.033,4.018,0.625,10.734,1.49,14.197
	c0.295,0.01,2.002,0.309,2.576,0.309c0.338,0.045,0.596,0.064,0.822,0.064c3.145,0,3.211-3.479,3.211-3.523
	c0.506-0.957,1.441-2.174,2.51-3.567c1.83-2.414,4.094-5.404,5.217-7.795c1.02-1.709,2.199-3.438,3.281-4.801
	c0.723-0.709,1.607-0.393,2.182-0.053c0.17,0.092,0.391,0.199,0.488,0.199c1.674,0.545,1.406,2.168,1.18,3.605
	c-0.109,0.58-0.211,1.205-0.211,1.805c0.021-0.064,0.318,0.168,0.539,0.309c0.602,0.426,0.941,0.707,0.969,1.045
	c0.01,0.113-0.051,0.322-0.139,0.393c-0.127,0.709-0.637,1.287-1.238,1.943c-0.24,0.287-0.527,0.598-0.795,0.975
	c-2.232,1.94-3.164,3.603-3.756,6.629c-1.08,2.709-1.188,3.177-1.625,5.455l-0.15,0.729c0,0.396-0.381,1.359-1.209,3.039
	c-1.885,3.295-4.088,4.416-6.645,5.705c-0.744,0.369-1.539,0.775-2.361,1.248c-0.375,1.65,1.031,6.555,1.922,8.658
	c1.393,2.498,2.164,3.6,5.844,3.6h0.893c1.166-0.116,2.111-0.338,3.074-0.562c1.369-0.313,2.656-0.612,4.58-0.612
	c1.34,0.411,1.768,0.686,2.242,1.006c0.238,0.139,0.492,0.315,0.891,0.518c1.688,2.191,4.264,4.967,8.377,4.967
	c0.535-0.123,1.457-0.143,2.43-0.166c1.312-0.031,2.816-0.07,3.631-0.404c0.836,0,1.607,0.224,2.328,0.465
	c0.846,0.275,1.709,0.539,2.449,0.414c0.258-0.147,0.656-0.422,1.072-0.711c0.941-0.641,2.006-1.36,3.145-1.36
	c0.723,0,1.297,0.063,1.902,0.129c0.645,0.08,1.311,0.147,2.229,0.147c0.949,0.299,1.762,0.299,2.639,0.299
	c0.6,0.283,0.889,0.502,1.15,0.701c0.688,0.504,1.057,0.785,2.701,0.785C189.38,144.773,189.733,144.738,190.028,144.738
	L190.028,144.738z"/>
<path fill="#909394" d="M194.04,110.859c-1.455,0-1.877-1.375-2.777-4.767c-0.627-0.745-1.361-1.362-2.02-1.922
	c-1.289-1.115-2.432-2.068-2.432-4.375c0-0.17,0.139-0.334,0.311-0.373c3.814-0.951,6.506,4.082,7.82,6.688
	c0.064,0.238,0.139,0.466,0.262,0.761c0.641,1.603,1.105,2.948,0.537,3.526C194.913,110.748,194.427,110.859,194.04,110.859
	L194.04,110.859z M187.61,100.115c0.078,1.719,0.955,2.457,2.123,3.455c0.699,0.584,1.447,1.242,2.207,2.184
	c0.938,3.438,1.297,4.332,2.1,4.332c0.289,0,0.709-0.113,1.281-0.322c0.012-0.127-0.225-1.033-0.838-2.598
	c-0.215-0.551-0.297-0.73-0.297-0.873C193.058,104.113,190.769,99.592,187.61,100.115L187.61,100.115z M174.825,57.41
	c-3.74,0-5.07-1.109-5.07-2.057c0-0.301,0.123-0.838,0.969-1.23c0.576-0.281,1.393-0.432,2.324-0.432
	c0.932,0.596,1.357,0.824,1.627,0.959c0.58,0.324,0.633,0.498,0.58,1.158c-0.014,0.262-0.055,0.637-0.055,1.207
	C175.2,57.242,175.026,57.41,174.825,57.41L174.825,57.41z M172.819,54.383c-1.494,0.072-2.289,0.607-2.289,0.971
	c0,0.379,0.992,1.217,3.904,1.268c0.018-0.381,0.029-0.656,0.053-0.857l-0.178-0.432C174.022,55.184,173.567,54.943,172.819,54.383
	L172.819,54.383z"/>
<path fill="#909394" d="M117.3,90.365c-1.492,1.756-0.293,2.652,0.574,4.703c0,1.197-2.932,6.203-0.867,6.203
	c2.92,0,1.178-3.83,2.645-5.6c0.275,0,0.275-0.883,0-2.068c0,0.295-1.178-2.365-1.178-3.529l0,0
	C118.474,89.477,117.601,89.477,117.3,90.365L117.3,90.365z"/>
<path fill="#909394" d="M117.007,101.664c-0.51,0-0.787-0.24-0.924-0.428c-0.518-0.775-0.008-2.262,0.797-4.271
	c0.293-0.775,0.609-1.578,0.609-1.896c-0.152-0.295-0.367-0.705-0.564-1.062c-0.676-1.254-1.227-2.326,0.062-3.885
	c0.385-1.32,1.881-0.908,1.881-0.047c0,0.867,0.746,2.738,0.992,3.201c0.066,0.059,0.148,0.143,0.168,0.229
	c0.17,0.684,0.398,1.883,0.043,2.34c-0.082,0.107-0.301,0.209-0.42,0.209c-0.221,0.482-0.275,1.461-0.348,2.42
	C119.229,99.891,119.116,101.664,117.007,101.664L117.007,101.664z M118.046,90.064c-0.109,0-0.299,0.133-0.387,0.42
	c-1.029,1.299-0.715,1.912-0.059,3.158c0.205,0.383,0.426,0.799,0.641,1.279c0.033,0.59-0.234,1.262-0.641,2.332
	c-0.455,1.141-1.213,3.051-0.883,3.533l0.289,0.094c1.314,0,1.43-0.842,1.525-2.457c0.08-1.031,0.141-2.191,0.818-3
	c0.152-0.148,0.17-0.691-0.066-1.674c-0.572-0.781-1.197-3.127-1.197-3.676C118.087,90.064,118.087,90.064,118.046,90.064
	L118.046,90.064z"/>
<path fill="#909394" d="M122.013,93.898c-0.307,0.289-0.576,3.543,0.582,3.543c1.777,0,0.883-2.062,0.596-2.652
	c0-0.295-0.295-1.186,0-1.186l0,0C122.896,92.121,122.013,93.018,122.013,93.898L122.013,93.898z"/>
<path fill="#909394" d="M122.595,97.83c-0.244,0-0.719-0.107-0.998-0.779c-0.398-0.979-0.258-3.025,0.162-3.418
	c-0.133-0.432,0.281-1.193,0.914-1.193c0.301,0,0.721,0.184,0.895,1.078c0.033,0.115,0,0.244-0.09,0.32
	c-0.037,0.066-0.104,0.113-0.164,0.131c0.135,0.021,0.164,0.219,0.207,0.357c0.027,0.184,0.047,0.354,0.047,0.463
	c0.229,0.334,0.793,1.645,0.297,2.449C123.708,97.502,123.333,97.83,122.595,97.83L122.595,97.83z M122.626,93.186
	c-0.031,0.057-0.229,0.35-0.229,0.713c-0.236,0.521-0.422,2.291-0.012,2.982l0.209,0.17c0.311,0,0.516-0.076,0.611-0.225
	c0.225-0.354-0.016-1.213-0.363-1.867l-0.09-0.488c-0.08-0.391-0.145-0.744,0-1.006C122.673,93.242,122.626,93.186,122.626,93.186
	L122.626,93.186z"/>
<path fill="#A8A8A8" d="M80.999,9.814c-1.762,2.662-1.17,5.605-1.762,9.746c0,0,0,0,0,0.299c0.592,0,1.762-0.299,1.762-0.299
	s1.49-9.158,1.49-10.332l0,0c0,0,0,0-0.605,0l0,0C81.296,9.525,81.296,9.525,80.999,9.814L80.999,9.814z"/>
<path fill="#231F20" d="M79.237,20.236c-0.123,0-0.217-0.191-0.287-0.275c-0.07-0.084-0.121-0.346-0.088-0.457
	c0.178-1.307,0.252-2.506,0.312-3.586c0.137-2.371,0.238-4.408,1.486-6.314c0.418-0.396,0.457-0.42,1.053-0.713
	c0.051-0.039,0.645-0.055,0.682-0.055c0.23,0,0.471,0.176,0.471,0.393c0,1.195-1.43,10.016-1.473,10.396
	c-0.037,0.158-0.158,0.268-0.295,0.307C81.046,19.951,79.866,20.236,79.237,20.236L79.237,20.236z M81.884,9.619
	c-0.357,0.23-0.357,0.23-0.605,0.479c-1.092,1.652-1.199,3.512-1.34,5.861c-0.059,1.057-0.117,2.215-0.297,3.471
	c0.348-0.035,0.742-0.125,1.02-0.186c0.457-2.918,1.266-8.014,1.41-9.625H81.884L81.884,9.619z"/>
<path fill="#A8A8A8" d="M98.989,7.77c0,0,0.303,0.584,0,0.277c0,0.307,0.303,0,0.602,0.307c2.062,0.584,4.732-1.488,3.84-2.957
	C101.358,6.865,98.989,5.1,98.989,7.77L98.989,7.77z"/>
<path fill="#231F20" d="M100.356,8.836c-0.307,0-0.598-0.037-0.873-0.123c-0.102,0-0.279-0.084-0.467-0.213
	c-0.1-0.029-0.227-0.113-0.277-0.17l0.033-0.037c-0.088-0.082-0.15-0.164-0.15-0.246c0-0.121,0.068-0.258,0.188-0.322
	c-0.119-1.883,1.029-1.951,2.057-2.008c0.75-0.035,1.559-0.086,2.355-0.635c0.082-0.057,0.182-0.088,0.289-0.068
	c0.098,0.029,0.197,0.086,0.244,0.18c0.318,0.541,0.309,1.18-0.039,1.795C103.124,8.035,101.687,8.836,100.356,8.836L100.356,8.836z
	 M99.501,7.883c0.09,0,0.24,0.055,0.373,0.188c0.045-0.035,0.254-0.008,0.482-0.008c1.17,0,2.279-0.74,2.697-1.459
	c0.119-0.211,0.168-0.418,0.168-0.623c-0.811,0.426-1.658,0.471-2.32,0.504c-1.1,0.072-1.52,0.09-1.52,1.285
	c0.029,0.035,0.059,0.076,0.082,0.113C99.483,7.883,99.483,7.883,99.501,7.883L99.501,7.883z"/>
<path fill="#A8A8A8" d="M76.271,72.664c0,0-0.572,0-0.854,0.285c-0.613,0.289-1.189,0.604-1.773,0.889
	c-0.295,0.889-1.49,1.186,0,2.664c1.16,0,0.584-1.184,1.773-1.479c0.281,0,0.576,0,0.854-0.297c1.486-0.297,2.379-0.596,2.379-2.062
	C77.46,72.664,77.757,72.664,76.271,72.664L76.271,72.664z"/>
<path fill="#231F20" d="M73.644,76.873c-0.123,0-0.209-0.033-0.281-0.107c-1.209-1.207-0.9-1.859-0.416-2.527
	c0.152-0.184,0.27-0.334,0.33-0.527l1.949-1.094c0.311-0.34,0.975-0.35,1.045-0.35h2.379c0.213,0,0.391,0.182,0.391,0.396
	c0,1.895-1.418,2.195-2.699,2.436c-0.203,0.307-0.623,0.307-0.924,0.307c-0.299,0.088-0.42,0.291-0.547,0.594
	C74.724,76.354,74.497,76.873,73.644,76.873L73.644,76.873z M76.271,73.045c-0.133,0-0.455,0.055-0.596,0.186l-1.863,0.953
	c0.09,0.076-0.094,0.311-0.229,0.506c-0.314,0.438-0.484,0.672,0.197,1.408c0.238-0.023,0.277-0.137,0.389-0.416
	c0.16-0.342,0.387-0.84,1.129-1.037c0.4-0.012,0.535-0.012,0.705-0.188c1.537-0.363,2.119-0.627,2.229-1.412H76.271L76.271,73.045z"
	/>
<path fill="#A8A8A8" d="M54.179,75.902c0.574,3.256,1.146,6.781,1.457,9.434c0,1.477-0.883,2.375,1.18,3.551
	c0.299,0,1.467-0.883,1.467-0.883c0.305-0.891,0,0,0.893-2.668c-2.061-2.055-0.893-4.406-2.061-6.178
	C56.229,78.855,52.681,75.023,54.179,75.902L54.179,75.902z"/>
<path fill="#231F20" d="M56.815,89.271c-0.062,0-0.141-0.01-0.201-0.051c-1.781-1.025-1.613-1.992-1.467-2.947
	c0.051-0.281,0.09-0.596,0.09-0.938c-0.227-2.064-0.674-4.979-1.316-8.633c-0.465-0.559-0.588-0.82-0.465-1.078
	c0.137-0.258,0.432-0.328,0.902-0.047l0.248,0.775c0.859,1.018,2.236,2.305,2.621,2.428c0.758,0.988,0.844,1.934,0.924,2.844
	c0.098,1.209,0.213,2.348,1.301,3.451c0.1,0.094,0.137,0.254,0.1,0.393l-0.895,2.652C57.673,88.953,57.093,89.271,56.815,89.271
	L56.815,89.271z M54.894,77.791c0.531,3.1,0.91,5.619,1.119,7.508c0.023,0.428-0.057,0.789-0.1,1.102
	c-0.127,0.859-0.217,1.357,0.949,2.078c0.252-0.121,0.775-0.471,1.193-0.789l0.096-0.479l0.586-1.764
	c-1.127-1.238-1.258-2.576-1.348-3.762c-0.08-0.85-0.162-1.654-0.596-2.316C56.458,79.312,55.618,78.535,54.894,77.791
	L54.894,77.791z"/>
<path fill="#A8A8A8" d="M48.247,72.664c-0.279,0-1.752,0.889-2.072,2.359c0,0.295,0.32,0.584,0.604,1.479
	c0.895,0.875,1.469,1.469,1.469,3.238c0-0.295,0.305-0.295,0-0.295c0.596,0,0.596-0.287,0.596-0.59
	C49.435,75.023,49.435,72.664,48.247,72.664L48.247,72.664z"/>
<path fill="#231F20" d="M48.247,80.143c-0.197,0-0.375-0.195-0.375-0.402c0-1.615-0.48-2.1-1.359-2.975
	c-0.24-0.564-0.377-0.85-0.48-1.059c-0.127-0.254-0.225-0.451-0.225-0.684c0.328-1.689,1.902-2.756,2.439-2.756
	c0.348,0,0.643,0.146,0.861,0.404c0.648,0.746,0.674,2.617,0.119,6.238c0.012,0.178,0.012,0.711-0.58,0.877
	c-0.014,0-0.014,0.023-0.014,0.037C48.604,80.006,48.46,80.143,48.247,80.143L48.247,80.143z M46.573,75.1
	c0.018,0,0.07,0.117,0.145,0.262c0.133,0.225,0.289,0.541,0.438,1.008c0.518,0.486,1.012,0.963,1.262,1.793
	c0.553-2.893,0.512-4.508,0.098-4.998C48.13,73.064,46.843,73.811,46.573,75.1L46.573,75.1L46.573,75.1z"/>
<path fill="#A8A8A8" d="M58.282,62.344c0,1.752,2.072,3.529,1.477,5.592c0,2.062,0.596,3.244,0.596,6.494
	c0,2.352,0,3.541,2.654,3.541c0.885,0.287,1.77,0.584,2.957,0.584c2.055-0.584,2.648-0.584,2.943-2.053c0-0.895,0-1.479,0-2.072
	c-0.295-2.359-2.943-3.25-3.539-4.732c0.596-1.461,2.369-1.461,3.244-2.648c0-1.754-1.18-2.355-2.066-3.242
	c-0.885-1.463-1.449-2.951-3.539-3.541C59.759,59.686,58.282,59.686,58.282,62.344L58.282,62.344z"/>
<path fill="#231F20" d="M65.966,78.949c-1.23,0-2.17-0.32-3.064-0.613c-2.795-0.018-2.947-1.555-2.932-3.906
	c0-1.775-0.17-2.934-0.338-3.945c-0.137-0.852-0.26-1.607-0.26-2.549c0.34-1.148-0.156-2.125-0.672-3.158
	c-0.398-0.793-0.803-1.596-0.803-2.434c0-2.695,1.475-3.123,5.176-2.459c1.982,0.562,2.744,1.873,3.475,3.146l0.33,0.578
	c0.119,0.096,0.297,0.242,0.467,0.416c0.795,0.668,1.664,1.436,1.664,3.023c-0.533,0.822-1.146,1.137-1.715,1.445
	c-0.691,0.355-1.299,0.666-1.564,1.357c0.195,0.221,0.736,0.691,1.318,1.195c0.965,0.84,2.049,1.771,2.242,3.32V76.5
	c-0.309,1.615-1.029,1.816-2.627,2.264l-0.598,0.162C66.026,78.939,65.995,78.949,65.966,78.949L65.966,78.949z M60.437,60.342
	c-1.182,0-1.768,0.301-1.768,2.002c0,0.652,0.336,1.34,0.721,2.09c0.537,1.064,1.137,2.277,0.746,3.611
	c0,0.787,0.131,1.508,0.262,2.309c0.178,1.059,0.352,2.236,0.352,4.076c0,2.352,0,3.156,2.26,3.156
	c0.994,0.297,1.807,0.576,2.898,0.588l0.543-0.158c1.57-0.43,1.869-0.514,2.076-1.6V74.43c-0.146-1.215-1.072-2.016-1.979-2.807
	c-0.65-0.559-1.25-1.08-1.543-1.771c0.385-1.252,1.213-1.666,1.936-2.045c0.521-0.268,1.039-0.535,1.367-0.99
	c-0.078-1.006-0.713-1.572-1.467-2.213c-0.178-0.17-0.391-0.336-0.568-0.525l-0.404-0.654c-0.705-1.252-1.328-2.318-2.967-2.781
	C61.931,60.465,61.099,60.342,60.437,60.342L60.437,60.342z"/>
<path fill="#A8A8A8" d="M58.587,52.891c-0.305,0.594-0.305,0.895-0.305,1.189c-0.592,0.881-3.529,2.059-3.826,3.832
	c0.297,0.291,0.582,0.59,0.869,0.879c0.311-0.289,0.311,0,0.605-0.289c0.299-0.299,0.299-0.59,0.885-1.189
	c2.359-2.652,1.771-0.875,2.359-2.951C59.759,53.484,59.175,52.299,58.587,52.891L58.587,52.891z"/>
<path fill="#231F20" d="M55.317,59.168c-0.1,0-0.189-0.025-0.25-0.098l-0.889-0.889c0.109-1.631,1.494-2.596,2.594-3.354
	c0.537-0.373,1.025-0.705,1.193-0.969c-0.068-0.105-0.068-0.467,0.273-1.139c0.062-0.129,0.518-0.373,0.676-0.373
	c0.293,0,0.555,0.184,0.734,0.488c0.207,0.424,0.258,1.135-0.154,1.756c-0.279,1.041-0.32,1.154-0.707,1.395
	c-0.221,0.152-0.656,0.428-1.695,1.59c-0.299,0.32-0.436,0.541-0.551,0.73c-0.084,0.15-0.182,0.307-0.342,0.469
	c-0.066,0.07-0.465,0.258-0.564,0.258C55.556,59.117,55.425,59.168,55.317,59.168L55.317,59.168z M59.005,53.346
	c-0.336,0.236-0.336,0.459-0.336,0.734c-0.305,0.58-0.852,0.955-1.449,1.375c-1.01,0.684-2.219,1.541-2.387,2.527l0.535,0.359
	c0.107-0.035,0.225-0.074,0.268-0.074c0.109-0.129,0.168-0.221,0.24-0.355c0.127-0.209,0.297-0.49,0.666-0.867
	c1.068-1.227,1.57-1.543,1.83-1.713c0.158-0.08,0.158-0.08,0.348-0.779c0.018-0.037,0.119-0.377,0.141-0.402
	C59.005,53.906,59.077,53.615,59.005,53.346L59.005,53.346z"/>
<path fill="#A8A8A8" d="M75.698,147.596c1.762,1.769,1.475,0.582,2.059,2.064c0,0.572,0,0.572,0,0.879
	c0,0.301,0.588,1.779-0.297,1.779c-1.467,0.283-2.043-1.195-3.816-1.195c0-0.283-0.295-0.584-0.295-0.584
	c-1.49-0.307-2.67-1.766-2.084-2.943c1.479-0.592,1.479,1.178,2.379,0.875c0,0,0-0.586,0.295-0.875
	C74.804,147.004,75.417,147.299,75.698,147.596L75.698,147.596z"/>
<path fill="#231F20" d="M77.075,152.73c-0.666,0-1.17-0.304-1.658-0.595c-0.518-0.325-1.031-0.629-1.773-0.629
	c-0.209,0-0.387-0.166-0.387-0.385c0-0.063-0.121-0.228-0.201-0.306c-0.779-0.092-1.693-0.772-2.102-1.616
	c-0.285-0.604-0.295-1.232-0.018-1.775c0.426-0.291,0.682-0.348,0.887-0.348c0.639,0,0.998,0.424,1.275,0.737
	c0.055,0.088,0.117,0.162,0.197,0.224c0.053-0.224,0.156-0.508,0.348-0.711c0.969-0.67,1.773-0.591,2.32,0
	c0.783,0.769,1.139,0.938,1.318,1.039c0.414,0.188,0.525,0.338,0.84,1.139l0.02,1.033c0.16,0.744,0.34,1.433,0,1.854
	c-0.109,0.144-0.305,0.297-0.682,0.297C77.38,152.719,77.22,152.73,77.075,152.73L77.075,152.73z M73.938,150.758
	c0.805,0.061,1.359,0.404,1.877,0.707c0.525,0.324,0.967,0.588,1.564,0.465c0.217-0.104,0.197-0.422,0.062-0.961
	c0-0.027-0.062-0.393-0.062-0.43v-0.879c-0.238-0.506-0.268-0.525-0.428-0.596c-0.234-0.129-0.652-0.318-1.535-1.199
	c-0.199-0.209-0.693-0.334-1.268,0.049c-0.068,0.064-0.131,0.42-0.131,0.557c0,0.185-0.117,0.318-0.266,0.375
	c-0.744,0.049-1.031-0.27-1.262-0.543c-0.338-0.389-0.553-0.568-1.064-0.354c-0.025,0.229,0.092,0.646,0.232,0.914
	c0.287,0.629,1.002,1.15,1.762,1.299C73.591,150.279,73.812,150.49,73.938,150.758L73.938,150.758z"/>
<path fill="#A8A8A8" d="M58.282,141.691c-2.352,0-2.957,0.586-5.303,1.473c-0.299,0.291-0.578,1.189,0.295,1.467
	c1.182,0,2.361,0,3.541-0.277c1.771,0,3.539,0,4.426,0.576c0.883,0.303,1.768,0.598,2.07,1.18c0,0.593,1.176,0.896,1.787,0.896
	c0.271,0,2.641,0.881,2.641,0c0-0.303-0.602-2.073-1.191-2.373c-1.77-1.467-3.539-2.055-4.717-2.641
	C60.354,141.691,59.175,141.691,58.282,141.691L58.282,141.691z"/>
<path fill="#231F20" d="M67.101,147.785c-0.527,0-1.203-0.189-1.658-0.309c-0.176-0.039-0.307-0.08-0.387-0.101l0,0
	c-0.668,0-2.135-0.317-2.135-1.269c-0.188-0.264-1-0.541-1.793-0.805c-0.873-0.566-2.629-0.566-4.312-0.566
	c-1.119,0.285-2.359,0.285-3.541,0.285c-0.543-0.164-0.854-0.463-0.943-0.858c-0.115-0.481,0.107-1.011,0.367-1.269
	c0.738-0.319,1.223-0.521,1.65-0.709c1.861-0.789,2.932-1.516,7.562-0.58c0.348,0.168,0.645,0.295,0.973,0.433
	c1.109,0.504,2.506,1.125,3.904,2.295c0.746,0.369,1.322,2.342,1.322,2.67c0,0.283-0.131,0.508-0.371,0.644
	C67.595,147.734,67.364,147.785,67.101,147.785L67.101,147.785z M57.415,143.973c1.67,0,3.199,0.062,4.041,0.642
	c0.842,0.28,1.814,0.602,2.203,1.327c0.037,0.357,0.762,0.668,1.439,0.668c0.09,0,0.234,0.043,0.541,0.111
	c0.607,0.17,1.725,0.248,1.725,0.248c-0.029-0.277-0.594-1.785-0.988-1.984c-1.4-1.155-2.748-1.75-3.82-2.237
	c-0.334-0.149-0.625-0.279-0.904-0.412c-1.324-0.265-2.504-0.265-3.369-0.265c-1.678,0-2.416,0.316-3.639,0.847
	c-0.438,0.188-0.924,0.383-1.525,0.608c0.027,0-0.08,0.277-0.039,0.474c0.01,0.076,0.076,0.188,0.324,0.285
	c1.053-0.029,2.189-0.029,3.309-0.312C56.962,143.973,57.173,143.973,57.415,143.973L57.415,143.973z"/>
<path fill="#A8A8A8" d="M14.931,154.664c0.572,0.602,1.766,1.775,2.348,1.775c0.885-1.775,1.479-2.074,1.479-2.953
	c-1.182-4.123-0.871-3.826-1.479-6.785c-0.285-2.07-0.582-4.125,0.885-5.602c1.484-0.869,1.484,0,3.248,0.891
	c2.078,1.766,4.141,7.373,6.191,10.328c2.373,2.346,4.145,2.947,6.496,4.418c2.645,1.768,4.133,2.062,6.195,5.012
	c0.586,1.182,1.488,2.66,3.252,3.547c2.045,1.475,5.297,2.66,8.25,5.008c0.885,1.477,1.184,3.842,1.777,5.6
	c1.752,1.777,2.062,1.777,2.939,4.142c-0.283,1.765-1.188,1.188-3.533,1.188c-1.467,1.467,1.199,2.354,1.199,5.008
	c-0.301,0-1.777,0-2.088,0c0,0-0.295,0.301-0.295,0.582c0,0-0.283,0.898-0.283,1.18c0.283,1.479,0.283,2.068,0.889,3.244
	c0,0,0.279,0.301-0.311,0c23.326,14.471,51.34,16.512,72.877,11.23c1.172,0.573-3.531-4.726-4.137-5.625
	c-1.48-3.83-2.957-3.83-1.752-6.488c0-1.471-0.605-4.123-2.072-5.01c-4.141-5.021,0.867-7.672,1.467-13.572
	c0.605-0.879-0.873-3.252-0.873-3.824c-0.891-2.08-2.373-2.959-3.256-2.959c-6.49,0-10.322,2.064-14.754,5.012
	c-2.346,1.469-3.826,2.07-6.188,2.951c-1.488-0.299-2.369,0-3.846-0.299c-1.473-0.582-0.301-7.664-2.363-7.365
	c-1.156,0.299-2.941,0.58-4.113,0.299c-3.844,0.596-12.402,1.176-15.943,2.055c-0.59,0-3.826,0.879-6.783,0.879
	c-1.18,0.312-2.072,0-3.24,0c-2.658-3.231-4.713-3.825-7.072-6.192c-2.369-2.358,0-5.599,0-8.545c-0.607-6.49-7.092-1.188-8.57-3.25
	c-0.877-1.476-1.465-3.535-2.357-5.308c-1.467-5.905-8.25-10.61-6.775-15.041c0-3.252,6.488-1.196,8.85-0.881
	c6.484-4.719,11.213,2.349,16.502,2.937c0.896-2.937-9.443-6.479-8.848-9.728c-0.291-4.131-0.596-8.26-0.875-12.104
	c-0.295-3.238-1.189-4.709,0.875-7.959c1.199-1.771,1.773-2.947,2.953-4.133c0.885-4.135,0.295-5.883,0.295-8.248
	c0.59-2.363,1.787-7.391-3.248-5.613c-4.445,5.016-3.252,2.652-7.061,6.191c-2.082,0-4.135-0.287-6.814-0.578
	c-1.459-1.188-2.059-3.539-2.059-4.738c-0.277-1.766-0.277-3.229-0.277-5.004c0.877-2.662,7.662-2.662,8.84-5.309
	c0.6-1.186,1.172-2.359,1.479-2.953c0-1.172-2.07-2.072-2.07-2.947c2.07-1.779,4.432-2.949,6.475-4.43
	c0-2.059,0.318-4.127,0.318-5.902c-1.498-4.43-2.361-4.43-6.793-7.367c-0.586-2.07-2.947-4.424-2.947-6.193
	c0-3.541-3.834-4.426-5.896-6.504c-1.172-1.764-2.947-5.309-2.947-6.186c0,1.777,0,3.83,0,5.904c-0.297,3.535-1.486,13.562,0,16.215
	c-0.592,1.18-1.191,2.355-1.486,3.842c-4.719,3.842-5.293,12.396-6.191,21.83c-0.879,1.477-7.088,5.602-9.447,6.203
	C6.962,88.007,4.9,93.901,0.767,96.55C-1.292,118.389,5.481,139.623,14.931,154.664L14.931,154.664z"/>
<path fill="#231F20" d="M102.349,205.514c-12.762,0-31.883-2.418-50.451-13.938c-0.176-0.109-0.219-0.332-0.131-0.521
	c0.029-0.049,0.08-0.104,0.17-0.145c-0.404-0.615-0.502-1.186-0.645-1.961l-0.158-0.875c0-0.396,0.238-1.158,0.301-1.371
	c-0.012-0.311,0.332-0.672,0.385-0.748l1.941-0.092c-0.1-0.896-0.547-1.57-0.939-2.176c-0.547-0.853-1.135-1.717-0.123-2.734
	c0.822-0.111,1.291-0.096,1.707-0.061c1.07,0.08,1.551,0.272,1.729-0.916c-0.686-1.703-0.986-1.986-2.086-3.06l-0.752-0.729
	c-0.305-0.797-0.484-1.513-0.645-2.238c-0.34-1.258-0.65-2.545-1.17-3.438c-1.637-1.269-3.482-2.255-5.086-3.113
	c-1.162-0.615-2.215-1.189-3.084-1.787c-1.797-0.9-2.736-2.447-3.355-3.678c-1.477-2.093-2.625-2.787-4.242-3.738
	c-0.539-0.338-1.158-0.691-1.826-1.139c-0.664-0.388-1.238-0.73-1.834-1.062c-1.523-0.861-2.965-1.668-4.711-3.414
	c-0.91-1.279-1.771-2.98-2.619-4.611c-1.178-2.309-2.395-4.684-3.557-5.691c-0.494-0.237-0.902-0.521-1.223-0.745
	c-0.699-0.513-0.816-0.562-1.564-0.095c-1.27,1.273-1.012,3.177-0.711,5.203c0.189,0.955,0.293,1.576,0.373,2.115
	c0.168,1.129,0.287,1.865,1.086,4.631c0.008,0.74-0.24,1.148-0.621,1.705c-0.217,0.357-0.521,0.82-0.869,1.516
	c-0.07,0.129-0.207,0.232-0.359,0.232c-0.631,0-1.516-0.768-2.627-1.9C3.696,137.498-1.495,116.232,0.374,96.518
	c1.855-1.371,3.172-2.982,4.549-4.682c1.936-2.359,3.91-4.787,6.943-5.684c2.34-0.59,8.438-4.705,9.223-6.025l0.059-1.07
	c0.844-9.166,1.586-17.09,6.229-20.865c0.156-1.285,0.773-2.5,1.359-3.689c-1.23-1.895-0.723-8.48-0.189-14.488l0.156-1.604v-5.869
	c0-0.428,0.775-0.428,0.775,0c0,0.705,1.637,4.115,2.871,5.973c0.59,0.568,1.359,1.074,2.17,1.6
	c1.869,1.207,3.793,2.463,3.793,5.117c0,0.875,0.736,2.023,1.436,3.133c0.607,0.988,1.232,1.984,1.496,2.951l1.514,0.865
	c3.051,1.961,3.977,2.555,5.283,6.49c0.01,0.979-0.041,1.914-0.117,2.873c-0.082,1.02-0.16,2.09-0.16,3.15
	c-0.973,0.881-1.805,1.422-2.67,1.947c-1.324,0.838-2.701,1.705-3.951,2.783c0.135-0.076,0.551,0.334,0.938,0.672
	c0.598,0.561,1.262,1.172,1.262,1.975l-1.521,3.123c-0.643,1.457-2.705,2.148-4.689,2.822c-1.842,0.623-3.764,1.271-4.143,2.43
	c0.021,1.682,0.021,3.098,0.307,4.836c0.012,1.254,0.617,3.418,1.934,4.482l1.143,0.066c1.982,0.244,3.707,0.439,5.412,0.439
	c1.348-1.4,2.084-1.861,2.746-2.262c0.826-0.518,1.477-0.926,4.023-3.799c2.197-0.906,3.215-0.607,3.902,0.283
	c1.084,1.359,0.393,4.16,0.037,5.666c0,0.561,0.037,1.156,0.08,1.762c0.119,1.615,0.25,3.449-0.391,6.484
	c-0.939,1.02-1.467,1.879-2.139,2.941c-0.277,0.402-0.564,0.844-0.873,1.33c-1.557,2.428-1.34,3.791-1.039,5.844
	c0.072,0.562,0.16,1.183,0.221,1.871c0.244,3.229,0.492,6.674,0.758,10.164l0.131,1.943c-0.27,1.477,2.23,3.193,4.412,4.705
	c2.539,1.754,4.936,3.426,4.42,5.158c-0.049,0.188-0.236,0.262-0.424,0.271c-1.912-0.219-3.77-1.239-5.564-2.241
	c-2.041-1.132-4.133-2.308-6.373-2.308c-1.479,0-2.879,0.502-4.297,1.53c-0.738,0.062-1.346-0.104-2.021-0.243
	c-1.326-0.259-2.994-0.597-4.32-0.597c-2.125,0-2.35,0.806-2.35,1.416c-0.793,2.453,0.914,4.912,2.914,7.756
	c1.564,2.238,3.191,4.566,3.854,7.188c0.377,0.711,0.695,1.552,1.025,2.377c0.424,1.046,0.809,2.033,1.297,2.83
	c0.09,0.121,0.309,0.326,0.902,0.326c0.547,0,1.193-0.138,1.877-0.283c0.803-0.166,1.645-0.34,2.447-0.34
	c2.041,0,3.164,1.207,3.371,3.707c0.01,1.074-0.268,2.144-0.555,3.176c-0.484,1.925-0.965,3.729,0.457,5.138
	c0.945,0.948,1.842,1.604,2.768,2.289c1.348,0.981,2.734,1.987,4.336,3.93c0.105-0.129,0.5-0.113,0.857-0.064
	c0.686,0.059,1.377,0.082,1.994-0.053c2.092-0.012,4.273-0.438,5.59-0.691c0.637-0.125,1.094-0.205,1.281-0.205
	c2.131-0.553,6.314-0.983,10.004-1.377c2.303-0.242,4.412-0.469,5.861-0.692c1.635,0.305,3.271-0.072,4.098-0.287
	c1.506,0.008,1.781,2.139,1.934,4.229c0.088,1.18,0.223,2.992,0.676,3.154c0.629,0.137,1.197,0.176,1.771,0.137
	c0.602,0,1.223,0,2.004,0.15c2.123-0.863,3.559-1.445,5.896-2.898c4.17-2.776,8.162-5.084,14.963-5.084
	c1.072,0,2.662,1.01,3.6,3.189c0.043,0.279,0.24,0.736,0.367,1.074c0.438,1.059,0.992,2.369,0.49,3.135
	c-0.172,2.062-0.996,3.83-1.752,5.4c-1.281,2.75-2.217,4.721,0.25,7.705c1.529,0.897,2.145,3.711,2.145,5.256
	c-0.725,1.707-0.447,2.16,0.287,3.404c0.42,0.698,0.93,1.582,1.467,2.944c0.141,0.199,0.715,0.885,1.369,1.687
	c2.885,3.467,3.111,3.871,2.932,4.246c-0.066,0.146-0.244,0.266-0.414,0.266C117.847,204.623,110.198,205.514,102.349,205.514
	L102.349,205.514z M52.8,191.225c18.254,11.168,37.01,13.521,49.549,13.521c7.676,0,15.158-0.865,22.234-2.57
	c-0.508-0.743-1.777-2.291-2.607-3.288c-0.689-0.816-1.273-1.544-1.459-1.81c-0.547-1.388-1.064-2.231-1.438-2.918
	c-0.768-1.271-1.232-2.029-0.367-3.951c-0.039-1.274-0.625-3.754-1.904-4.533c-2.877-3.432-1.748-5.829-0.461-8.592
	c0.721-1.521,1.527-3.25,1.74-5.34c0.35-0.595-0.178-1.832-0.486-2.578c-0.246-0.599-0.406-0.953-0.406-1.209
	c-0.814-1.834-2.162-2.574-2.85-2.574c-6.59,0-10.479,2.24-14.543,4.957c-2.389,1.494-3.943,2.117-6.271,2.992
	c-0.93-0.131-1.484-0.172-2.049-0.131c-0.615,0-1.232,0-1.992-0.15c-0.965-0.389-1.092-1.987-1.213-3.854
	c-0.137-1.487-0.297-3.521-0.959-3.521c-0.955,0.22-3.107,0.604-4.354,0.296c-1.287,0.227-3.443,0.448-5.721,0.688
	c-3.68,0.395-7.824,0.824-10.006,1.365c-0.27,0.02-0.672,0.092-1.25,0.207c-1.33,0.258-3.551,0.692-5.633,0.692
	c-0.555,0.152-1.359,0.127-2.152,0.072c-0.348-0.035-0.701-0.072-1.088-0.072c-1.834-2.014-3.184-2.989-4.463-3.94
	c-0.945-0.674-1.902-1.377-2.887-2.361c-1.725-1.73-1.17-3.84-0.633-5.895c0.238-0.982,0.516-1.984,0.516-2.937
	c-0.238-2.617-1.467-2.972-2.609-2.972c-0.723,0-1.518,0.173-2.293,0.314c-1.615,0.342-2.994,0.447-3.596-0.375
	c-0.518-0.873-0.928-1.883-1.34-2.953c-0.32-0.82-0.654-1.631-1.043-2.402c-0.654-2.562-2.24-4.819-3.756-7.018
	c-2.023-2.887-3.949-5.627-3.047-8.322c-0.018-0.871,0.527-2.062,3.107-2.062c1.414,0,3.113,0.344,4.469,0.613
	c0.664,0.143,1.242,0.252,1.691,0.309c1.295-1.062,2.842-1.612,4.479-1.612c2.438,0,4.637,1.217,6.744,2.399
	c1.682,0.94,3.271,1.82,4.898,2.095c-0.072-1.144-2.225-2.636-4.146-3.964c-2.619-1.813-5.076-3.512-4.729-5.401l-0.162-1.83
	c-0.223-3.474-0.475-6.93-0.74-10.162c-0.062-0.662-0.141-1.254-0.221-1.812c-0.307-2.148-0.541-3.699,1.178-6.387
	c0.311-0.475,0.576-0.916,0.838-1.314c0.719-1.115,1.256-1.99,2.162-2.873c0.512-2.744,0.404-4.441,0.264-6.078
	c-0.029-0.625-0.074-1.252-0.074-1.906c0.303-1.375,0.969-4.041,0.125-5.113c-0.475-0.611-1.438-0.641-2.877-0.133
	c-2.449,2.852-3.162,3.293-4.047,3.844c-0.615,0.383-1.324,0.816-2.891,2.27c-1.996,0.094-3.74-0.109-5.752-0.334l-1.352-0.154
	c-1.779-1.377-2.41-3.846-2.41-5.117c-0.277-1.734-0.277-3.25-0.277-5.004c0.527-1.643,2.518-2.332,4.631-3.045
	c1.836-0.617,3.723-1.264,4.244-2.428l1.479-2.963c-0.021-0.289-0.586-0.787-1.051-1.234c-0.537-0.492-1.039-0.965-1.039-1.539
	c1.404-1.4,2.836-2.277,4.184-3.131c0.832-0.531,1.674-1.055,2.467-1.617c-0.168-0.766-0.09-1.852-0.01-2.881
	c0.053-0.949,0.129-1.861,0.129-2.703c-1.199-3.547-1.898-4.02-4.945-5.955l-1.654-1.086c-0.418-1.082-1.008-2.051-1.58-2.971
	c-0.803-1.277-1.547-2.457-1.547-3.549c0-2.234-1.662-3.32-3.439-4.467c-0.822-0.533-1.688-1.08-2.352-1.756
	c-0.705-1.064-1.645-2.742-2.279-4.18l-0.15,5.264c-0.377,3.938-1.137,12.162,0.1,14.385c0.051,0.115,0.068,0.244,0,0.352
	c-0.592,1.195-1.139,2.326-1.439,3.758c-4.531,3.77-5.246,11.547-6.076,20.543l-0.1,1.229c-1.02,1.791-7.365,5.953-9.75,6.541
	c-2.775,0.822-4.686,3.166-6.527,5.428c-1.373,1.67-2.77,3.404-4.564,4.555c-1.664,19.259,3.469,40.355,14.275,57.58
	c1.025,1.021,1.555,1.398,1.838,1.533c0.305-0.58,0.574-0.99,0.785-1.33c0.342-0.524,0.512-0.762,0.512-1.178
	c-0.805-2.697-0.932-3.492-1.102-4.611c-0.076-0.526-0.186-1.141-0.373-2.094c-0.297-2.158-0.617-4.353,0.992-5.957
	c1.348-0.836,1.771-0.453,2.508,0.076c0.297,0.209,0.645,0.483,1.186,0.745c1.35,1.142,2.57,3.488,3.82,5.979
	c0.834,1.604,1.688,3.271,2.521,4.466c1.615,1.614,2.949,2.36,4.488,3.229c0.605,0.323,1.215,0.674,1.885,1.088
	c0.662,0.448,1.26,0.799,1.805,1.114c1.627,0.974,2.918,1.732,4.502,4.003c0.631,1.262,1.467,2.59,3.102,3.413
	c0.895,0.638,1.916,1.183,3.029,1.777c1.645,0.879,3.531,1.865,5.301,3.287c0.695,1.102,1.016,2.451,1.332,3.758
	c0.174,0.705,0.355,1.402,0.555,2.023l0.658,0.588c1.137,1.107,1.535,1.475,2.307,3.527c-0.23,1.67-0.832,1.867-2.537,1.76
	c-0.41-0.012-0.855-0.045-1.379-0.045c-0.281,0.416-0.113,0.764,0.477,1.648c0.492,0.729,1.098,1.645,1.098,2.975
	c0,0.207-0.178,0.385-0.375,0.385h-2.016c0.111,0.023,0.018,0.141,0.018,0.197c-0.156,0.529-0.291,1.057-0.291,1.18l0.164,0.807
	c0.162,0.869,0.258,1.408,0.686,2.269C52.757,191.115,52.769,191.17,52.8,191.225L52.8,191.225z"/>
<path d="M494.864,175.164c-14.47,0-27.394-2.9-38.336-8.604c-11.052-5.732-19.564-14.006-25.371-24.603
	c-5.758-10.533-8.816-23.217-9.074-37.703c0-16.266,3.475-30.082,10.338-41.074c6.838-11.002,15.644-19.201,26.152-24.35
	c9.998-4.912,20.293-7.391,30.584-7.391l1.522,0.016c23.986,0.496,41.08,6.182,50.771,16.893
	c9.623,10.619,15.479,23.752,17.514,39.055l0.271,2.025h-44.959l-0.17-1.596c-0.925-8.232-3.545-13.703-7.879-16.268
	c-4.568-2.705-9.207-4.088-13.769-4.088c-8.188,0-13.912,3.334-17.486,10.191c-3.727,7.145-5.586,16.074-5.586,26.557
	c0,23.146,7.863,34.562,24.047,34.902c11.947,0,18.777-6.916,20.849-21.154l0.244-1.518h45.381l-0.203,1.965
	c-1.756,16.721-8.371,30.504-19.658,40.947C528.786,169.846,513.565,175.164,494.864,175.164L494.864,175.164z M345.526,171.461
	h-58.775V34.957h59.146c14.557,0,27.323,2.221,38.01,6.59c10.824,4.43,19.348,11.547,25.365,21.168
	c5.983,9.582,9.028,22.191,9.028,37.451c0,25.131-6.447,43.516-19.147,54.627C386.552,165.857,368.481,171.461,345.526,171.461
	L345.526,171.461z M212.72,171.461h-47.275V34.957h107.021v34.557H212.72v20.568h47.381v34.555H212.72V171.461L212.72,171.461z
	 M156.114,171.461h-47.273V34.957h47.273V171.461L156.114,171.461z M334.046,136.922h7.971c9.037,0,16.019-2.443,20.755-7.256
	c5.659-5.752,8.45-15.172,8.241-28.002c0-12.15-2.166-20.639-6.43-25.256c-4.219-4.58-12.572-6.895-24.781-6.895h-5.756V136.922
	L334.046,136.922z"/>
</svg>
